<svg xmlns="http://www.w3.org/2000/svg" viewBox="0 0 26.18 26.16"><defs><style>.cls-1{fill:#7cc144;}.cls-2{fill:#22723f;}</style></defs><title>Ресурс 3</title><g id="Слой_2" data-name="Слой 2"><g id="katman_1" data-name="katman 1"><circle class="cls-1" cx="9.17" cy="17" r="7.17"/><g id="Money_Transfer-3" data-name="Money Transfer-3"><path class="cls-2" d="M13.09,8.58a4.49,4.49,0,1,0,4.49,4.49,4.49,4.49,0,0,0-4.49-4.49Zm3.36,4.49a3.36,3.36,0,1,1-3.36-3.36,3.35,3.35,0,0,1,3.36,3.36Z"/><path class="cls-2" d="M13.09,14.39a.44.44,0,0,1-.44-.44h-.87a1.31,1.31,0,0,0,.87,1.23v.52h.87v-.52a1.31,1.31,0,0,0-.44-2.54.44.44,0,1,1,.44-.44h.87A1.31,1.31,0,0,0,13.52,11v-.52h-.87V11a1.31,1.31,0,0,0,.44,2.54.44.44,0,1,1,.13.87h-.13Z"/><path class="cls-2" d="M20.5,24a1.31,1.31,0,0,1-1.31,1.31H7A1.31,1.31,0,0,1,5.67,24V15.26H4.8V24A2.19,2.19,0,0,0,7,26.16H19.19A2.19,2.19,0,0,0,21.37,24h0V18.31H20.5Z"/><rect class="cls-2" x="20.07" y="12.64" width="0.87" height="0.87"/><path class="cls-2" d="M5.67,2.18A1.31,1.31,0,0,1,7,.87H19.19A1.31,1.31,0,0,1,20.5,2.18h0V7.85h.87V2.18A2.19,2.19,0,0,0,19.19,0H7A2.19,2.19,0,0,0,4.8,2.18V10.9h.87Z"/><path class="cls-2" d="M20.07,8.72V2.18a.87.87,0,0,0-.87-.87H16.81a.88.88,0,0,0-.69.34l-.59.53H10.64l-.59-.53a.88.88,0,0,0-.69-.34H7a.87.87,0,0,0-.84.87V10.9H7V2.18H9.39l.07.08.74.68a.46.46,0,0,0,.3.11h5.23A.44.44,0,0,0,16,2.94l.74-.68.07-.08h2.38V8.72Z"/><rect class="cls-2" x="18.32" y="12.64" width="0.87" height="0.87"/><path class="cls-2" d="M20.07,21.8V17.44H19.2V21.8H7V15.26H6.14V21.8a.87.87,0,0,0,.87.87H19.19a.87.87,0,0,0,.88-.86Z"/><rect class="cls-2" x="11.78" y="23.55" width="2.62" height="0.87"/><path class="cls-2" d="M5.8,14.08l.62.62,1.31-1.31a.44.44,0,0,0,0-.62L6.42,11.46l-.62.62.56.56H3.49v.87H6.36Z"/><path class="cls-2" d="M26,12.77l-1.3-1.31-.6.62.56.56H21.81v.87h2.87l-.54.57.62.62,1.31-1.31A.44.44,0,0,0,26,12.77Z"/><path class="cls-2" d="M19.19,9.58v.87h2.87L21.5,11l.62.62,1.31-1.31a.44.44,0,0,0,0-.62L22.14,8.41,21.52,9l.56.56Z"/><path class="cls-2" d="M22.14,14.52l-.62.62.56.56H19.19v.88h2.87l-.56.56.62.62,1.31-1.31a.44.44,0,0,0,0-.62Z"/><rect class="cls-2" x="1.75" y="12.64" width="0.87" height="0.87"/><rect class="cls-2" y="12.64" width="0.87" height="0.87"/><rect class="cls-2" x="17.45" y="15.7" width="0.87" height="0.87"/><rect class="cls-2" x="17.45" y="9.59" width="0.87" height="0.87"/><rect class="cls-2" x="12.65" y="5.67" width="0.87" height="0.87"/><rect class="cls-2" x="14.4" y="5.67" width="0.87" height="0.87"/><rect class="cls-2" x="10.91" y="5.67" width="0.87" height="0.87"/></g></g></g></svg>