<svg xmlns="http://www.w3.org/2000/svg" viewBox="0 0 20.47 30.25"><defs><style>.cls-1{fill:#7cc144;}.cls-2{fill:#20713d;stroke:#20713d;stroke-miterlimit:10;stroke-width:0.25px;}</style></defs><title>Ресурс 1</title><g id="Слой_2" data-name="Слой 2"><g id="katman_1" data-name="katman 1"><circle class="cls-1" cx="9.3" cy="20.95" r="7.17"/><path class="cls-2" d="M19.91,24.43a.44.44,0,0,0-.44.44V29a.25.25,0,0,1-.25.25H16.86V20.59a.44.44,0,0,0-.44-.44.44.44,0,0,0-.44.44v8.66H11.23l1.38-1.52a.8.8,0,0,0,.19-.63v0l-1.31-7.76.35-.53a1,1,0,0,0,.63.27.77.77,0,0,0,.69-.42h0l1.39-2.78,3.15,1.22a3,3,0,0,1,1.78,2.77v3a.44.44,0,0,0,.44.44.44.44,0,0,0,.44-.44v-3A3.92,3.92,0,0,0,18,16.27h0l-5.26-2V13a4.08,4.08,0,0,0,1.56-2.71,1.93,1.93,0,0,0,1.12-.46,1.86,1.86,0,0,0,.65-1.41,1.83,1.83,0,0,0-.46-1.22V5.57a5.45,5.45,0,0,0-10.89,0V7.24a1.77,1.77,0,0,0-.45,1.18,1.83,1.83,0,0,0,.65,1.41,1.9,1.9,0,0,0,1.11.46A4.1,4.1,0,0,0,7.7,13.06v1.17l-5.25,2h0A3.92,3.92,0,0,0,.13,19.85V29a1.12,1.12,0,0,0,1.12,1.12H5.43a.44.44,0,1,0,0-.87H4.49V20.59a.44.44,0,0,0-.88,0v8.66H1.25A.25.25,0,0,1,1,29V19.85a3,3,0,0,1,1.78-2.77l3.15-1.22,1.39,2.78a.77.77,0,0,0,.69.42,1,1,0,0,0,.62-.27l.36.53L7.67,27.08v0a.8.8,0,0,0,.19.63l1.38,1.52H7.48a.44.44,0,0,0,0,.87H19.22A1.13,1.13,0,0,0,20.35,29V24.87A.44.44,0,0,0,19.91,24.43Zm-6.2-8.89-1.29,2.59L10.87,17l1.59-2Zm-2.59,2.74-.34.5H9.69l-.34-.5.88-.63ZM8.58,14.37v-.82a4.52,4.52,0,0,0,1.66.31,4.16,4.16,0,0,0,1.65-.34v.85l-1.66,2Zm6.63-5.95a1,1,0,0,1-.34.75,1.08,1.08,0,0,1-.51.23v-2A1,1,0,0,1,15.21,8.42ZM6,9.4a1,1,0,0,1-.85-1,1,1,0,0,1,.85-1ZM6,6.56a2.58,2.58,0,0,0-.42.1V5.57a4.57,4.57,0,0,1,9.14,0V6.63a1.77,1.77,0,0,0-.4-.08c0-.42,0-.34-1.38-1.83a.78.78,0,0,0-1-.12A8.5,8.5,0,0,1,6.86,6,.78.78,0,0,0,6,6.56ZM6.9,9.75V6.86a9.4,9.4,0,0,0,5.49-1.48c.63.68,1,1,1.09,1.18V9.75a3.29,3.29,0,0,1-6.58,0Zm1.15,8.38-1.3-2.59L8,15.06l1.6,2Zm.5,9.05,1.27-7.52h.83l1.27,7.52L10.23,29Z"/></g></g></svg>