<svg xmlns="http://www.w3.org/2000/svg" viewBox="0 0 27.5 19.56"><defs><style>.cls-1{fill:#7cc144;}.cls-2{fill:#20713d;}</style></defs><title>Ресурс 1</title><g id="Слой_2" data-name="Слой 2"><g id="katman_1" data-name="katman 1"><circle class="cls-1" cx="9.17" cy="10.39" r="7.17"/><path class="cls-2" d="M10.69,5.94a3.76,3.76,0,0,1-.92-.43.28.28,0,0,1-.06-.27A.4.4,0,0,1,10,4.93a.71.71,0,0,1,.66.11A.41.41,0,0,0,11.2,5a.4.4,0,0,0,0-.56,1.53,1.53,0,0,0-.59-.29V4a.41.41,0,0,0-.81,0v.16h0a1.2,1.2,0,0,0-.82.94,1.07,1.07,0,0,0,.36,1.05,4.46,4.46,0,0,0,1.14.55.45.45,0,0,1,.33.53.61.61,0,0,1-.6.51,1,1,0,0,1-.74-.19.4.4,0,0,0-.55.11A.41.41,0,0,0,9,8.22a1.77,1.77,0,0,0,.78.31v.14a.41.41,0,1,0,.81,0V8.49a1.44,1.44,0,0,0,1-1.13,1.25,1.25,0,0,0-.85-1.42Z"/><path class="cls-2" d="M24.79,8.05H20.36V1.72A1.72,1.72,0,0,0,18.64,0H1.72A1.72,1.72,0,0,0,0,1.72V11a1.72,1.72,0,0,0,1.72,1.71H10.2v4.18a2.71,2.71,0,0,0,2.71,2.71h9.41a.41.41,0,0,0,0-.81H12.91A1.91,1.91,0,0,1,11,16.85V14H26.7v2.88a1.91,1.91,0,0,1-1.91,1.9h-.86a.41.41,0,0,0,0,.81h.86a2.71,2.71,0,0,0,2.71-2.71v-6.1a2.7,2.7,0,0,0-2.71-2.7Zm1.86,2.3H11.05a1.91,1.91,0,0,1,1.86-1.5H24.79A1.91,1.91,0,0,1,26.65,10.35ZM13.52,8.05h-.61a2.72,2.72,0,0,0-2.63,2h-.1a3.74,3.74,0,1,1,3.34-2Zm6-6.33v2A3.37,3.37,0,0,1,16.62.81h2A.91.91,0,0,1,19.55,1.72ZM.81,11v-2a3.37,3.37,0,0,1,2.92,2.93h-2A.91.91,0,0,1,.81,11Zm3.73.91A4.17,4.17,0,0,0,.81,8.13V4.54A4.09,4.09,0,0,0,2.94,3.7.39.39,0,0,0,3,3.14a.4.4,0,0,0-.56-.08,3.25,3.25,0,0,1-1.64.67v-2A.9.9,0,0,1,1.72.81h2A3,3,0,0,1,3.37,2a.42.42,0,0,0,.17.55.43.43,0,0,0,.19,0,.39.39,0,0,0,.36-.21A4.15,4.15,0,0,0,4.54.81H15.81a4.17,4.17,0,0,0,3.74,3.73V8.05H14.4a4.56,4.56,0,1,0-4.22,2.84h0v1ZM11,13.16v-2H26.7v2Z"/><path class="cls-2" d="M12.1,14.89a.41.41,0,1,0,0,.81h1.73a.41.41,0,0,0,0-.81Z"/><path class="cls-2" d="M15.06,14.89a.41.41,0,1,0,0,.81h1.73a.41.41,0,0,0,0-.81Z"/><path class="cls-2" d="M18,14.89a.41.41,0,1,0,0,.81h1.73a.41.41,0,0,0,0-.81Z"/><path class="cls-2" d="M22.71,14.89H21a.41.41,0,1,0,0,.81h1.73a.41.41,0,0,0,0-.81Z"/></g></g></svg>