<svg id="Ñëîé_1" data-name="Ñëîé 1" xmlns="http://www.w3.org/2000/svg" viewBox="0 0 500 500"><defs><style>.cls-1{fill:#064a5f;}.cls-2{opacity:0.1;}.cls-3{fill:#fff;}</style></defs><title>EFT</title><path class="cls-1" d="M493.49,250C493.49,63.22,432.4,6.51,250,6.51S6.51,63.22,6.51,250,67.6,493.49,250,493.49,493.49,436.78,493.49,250Z"/><path class="cls-2" d="M493.49,250q0-13.93-.47-26.89c-50.54-53.8-107.29-114.34-107.29-114.34l-168.17.65L205.76,113l-9,.29-.92,2.73-1.68.51.29,3.61-6.1,18.11,8.25,8.62.58,7.19-8.82,24.81,11.2,15.84-7.34,89.34-21,31.15-28.6-34.78-18.62,9.47-2.6,53.89,18.08,18.57L128.37,379l95,114q12.85.44,26.58.45C432.4,493.49,493.49,436.78,493.49,250Z"/><path class="cls-3" d="M188.38,178.91h60.93A25.42,25.42,0,0,1,274.7,204.3V331.24H381.34a10.17,10.17,0,0,0,10.16-10.16V148.45H188.38Zm126.94,30.47h10.16v.74a4.34,4.34,0,0,0,4.34,4.34h1.48a4.34,4.34,0,0,0,1.94-8.22l-9.9-5a14.49,14.49,0,0,1,2.14-26.79v-5.74h10.16v5.74a14.52,14.52,0,0,1,10.16,13.83v.74H335.64v-.74A4.34,4.34,0,0,0,331.3,184h-1.48a4.34,4.34,0,0,0-1.94,8.22l9.9,5a14.49,14.49,0,0,1-2.14,26.79v5.74H325.48v-5.74a14.52,14.52,0,0,1-10.16-13.83Zm0,35.54h60.93v10.16H315.33Zm-20.31,0h10.16v10.16H295Zm-10.16,20.31h91.4v10.16h-91.4Zm0,20.31h91.4V295.7h-91.4Zm0,20.31h71.09V316H284.86Z"/><path class="cls-3" d="M149.25,324.68a5.08,5.08,0,0,1,0-7.18h0l22.85-22.85A5.69,5.69,0,0,0,164,286.6L141.2,309.45,134,302.26l8.67-8.67V280.47H127.45a10.17,10.17,0,0,0-10.16,10.16v45.7a5.08,5.08,0,0,1-1.49,3.59l-7.3,7.3L128.37,379l20.88-20.88A23.67,23.67,0,0,0,149.25,324.68Z"/><path class="cls-3" d="M381.34,107.82H198.54A10.17,10.17,0,0,0,188.38,118v20.31H391.49V118A10.17,10.17,0,0,0,381.34,107.82ZM208.69,128.13H198.54V118h10.16Zm20.31,0H218.85V118H229Zm20.31,0H239.16V118h10.16Z"/><path class="cls-3" d="M249.32,189.07H168.07a15.25,15.25,0,0,0-15.23,15.23v79.14l4-4a15.85,15.85,0,0,1,22.41,22.41l-19.53,19.53a33.86,33.86,0,0,1-3.32,43.94l-3.59,3.59v8.05a15.25,15.25,0,0,0,15.23,15.23h81.24a15.25,15.25,0,0,0,15.23-15.23V204.3A15.25,15.25,0,0,0,249.32,189.07Zm-55.86,10.16h10.16v10.16H193.46ZM213.77,382H203.62V371.87h10.16Zm10.16-101.55H213.77v-.74a4.34,4.34,0,0,0-4.34-4.34H208A4.34,4.34,0,0,0,206,283.6l9.9,5a14.49,14.49,0,0,1-2.14,26.79v5.74H203.62v-5.74a14.52,14.52,0,0,1-10.16-13.83v-.74h10.16v.74a4.34,4.34,0,0,0,4.34,4.34h1.48a4.34,4.34,0,0,0,1.94-8.22l-9.9-5a14.49,14.49,0,0,1,2.14-26.79v-5.74h10.16v5.74a14.52,14.52,0,0,1,10.16,13.83Zm0-71.09H213.77V199.22h10.16Z"/></svg>