<svg id="Ñëîé_1" data-name="Ñëîé 1" xmlns="http://www.w3.org/2000/svg" viewBox="0 0 500 500"><defs><style>.cls-1{fill:#064a5f;}.cls-2{opacity:0.1;}.cls-3{fill:#fff;}</style></defs><title>Money</title><path class="cls-1" d="M493.49,250C493.49,63.22,432.4,6.51,250,6.51S6.51,63.22,6.51,250,67.6,493.49,250,493.49,493.49,436.78,493.49,250Z"/><path class="cls-2" d="M492.06,295.67l-151.91-174L200,151.63,97.77,253.9,111.4,369.8,144.87,413l-11.06,5.47,54.35,72.28c18.86,1.85,39.43,2.71,61.85,2.71C416.59,493.49,482,446.17,492.06,295.67Z"/><path class="cls-3" d="M117.66,377.09c-28.85-43.33-52.4-88.29-38.08-142.93,8.09-30.82,28.25-53.16,53.33-71.58a255.87,255.87,0,0,1,73-37c7.7-2.51,9.18-6.23,7.21-13.55-2.79-10.11-4.7-20.43-7.38-32.35l134.41,42L236.34,216.89c-2.73-12-5.46-22.46-7.43-32.78-.87-4.32-2.19-5.46-6.61-3.72-31.8,11.47-61.8,26.34-84.31,53.11a91,91,0,0,0-21.86,75.56C120.29,331.63,118.16,354.19,117.66,377.09Z"/><path class="cls-3" d="M408.39,314.91V290.76c0-6.17-.71-11.91-8.3-13.33a4.15,4.15,0,0,1-3.68-4.58v-.12c.44-9.18-2.84-13.22-12.95-13.66a21.25,21.25,0,0,1-17.76-14.7c-2-5-4-6.61-9.51-5.79-51,7.43-102,14.59-153,21.86-6.72.93-13,1.48-12.07,10.93.38,3.93-3.11,4.15-8.8,4.7-8.74.82-13.71,1.09-24.86,1.31-9.23,0-10.27-8.63-10.93-15.35s.55-12.29,8.52-13.5c19.12-2.84,38.25-5.46,57.48-8.41q89.33-12.46,179-25.08c12.73-1.8,15.79,0,17.54,12.68q7.27,51.52,14.75,103a60.92,60.92,0,0,1,.87,10.93c0,5.08-5.46,6.72-10.38,6.34-6-.49-5.46-5.74-5.85-8.8C408.12,331,408.39,322.94,408.39,314.91Z"/><path class="cls-3" d="M319.93,276.61c-10.11-1.53-19.34,3.61-27.59-3.55a5.46,5.46,0,0,0-7,.38c-6.78,6.61-14,1.26-22.84,3.72C278.68,257.49,304.25,257.54,319.93,276.61Z"/><path class="cls-3" d="M396.75,299.72c0-9.78-3.55-13.71-13.55-13.71q-118.51.33-237,0c-10.49,0-14.26,3.93-14.15,14.26.38,35.13,0,70.21,0,105.34,0,12.89,1.75,14.7,14.53,14.7H382.66c10.6,0,14.21-4.1,14.1-14.32Q396.32,352.94,396.75,299.72Zm-31.31,77.59c-7.81,1.2-12.89,9.45-14.37,17.92-.93,5.46-3.44,6.88-8.74,6.83q-78.51-.27-157.08,0c-4.7,0-8.14,0-9.12-6.39a24.59,24.59,0,0,0-20.05-20.76c-4.7-1.15-5.85-3.06-5.46-7.38a155,155,0,0,0,0-16.39c-.76-10.87-1.69-21.8,13.28-24.53a16.39,16.39,0,0,0,11.36-13.66c1.2-8.3,5.85-8.41,12.24-8.36H341.24c6.12,0,9.07,1.42,10.93,7.65a23.6,23.6,0,0,0,20,18c5.46.87,6.61,3,6.39,7.76-.33,5.85,0,11.69,0,17.59C378.39,365.07,381.24,375.45,365.44,377.31Z"/><path class="cls-3" d="M253.71,344.14c0,2.35,1.48,4.21,4.64,5.46l1.42.49V338.35C256.33,338.79,253.71,340.75,253.71,344.14Z"/><path class="cls-3" d="M264.64,356.65h-1v12.51c4-.33,6.72-2.57,6.72-6.23S269.12,358.13,264.64,356.65Z"/><path class="cls-3" d="M261.2,316.28a37.43,37.43,0,0,0-38,36.88q0,.19,0,.39a37.67,37.67,0,1,0,38.19-37.26Zm2.46,57.7v3.72H259.5V374c-8.74-.66-12.62-5.85-12.68-11.31h5.9a7,7,0,0,0,7,6.34V355.72l-2.29-.6a10.93,10.93,0,0,1-9.56-10.55c0-6.83,5.19-10.49,11.8-10.93v-4.32h4v3.82a11.8,11.8,0,0,1,11.86,10.93H270a6.5,6.5,0,0,0-6.39-5.74v12.84l2.35.55c6.06,1.48,10.22,4.37,10.22,10.93S271.14,373.32,263.66,374Z"/></svg>