<svg id="Capa_1" data-name="Capa 1" xmlns="http://www.w3.org/2000/svg" viewBox="0 0 512.04 512.04"><defs><style>.cls-1{fill:#c1e5df;}.cls-2{fill:#fff;}.cls-3{fill:#3db2a3;}</style></defs><title>phone</title><path class="cls-1" d="M500.39,431.23l-26,43.35a53.76,53.76,0,0,1-17.75,18.09,49.63,49.63,0,0,1-13.4,5.89C400,510.42,304.72,512.89,152,360.06S1.62,112,13.48,68.82a49.63,49.63,0,0,1,5.89-13.4A53.75,53.75,0,0,1,37.46,37.67l43.35-26a21.61,21.61,0,0,1,29.1,6.57l37.63,56.32L179,121.81a21.8,21.8,0,0,1-4.69,29.1L163.92,159,135.5,181a21.72,21.72,0,0,0-5.72,27.48C141.22,229,152,253.14,205.39,306.64s77.65,64.17,98.13,75.61A21.72,21.72,0,0,0,331,376.53l22-28.42,8.11-10.41a21.79,21.79,0,0,1,29.1-4.69l48.73,32.51,54.87,36.61A21.61,21.61,0,0,1,500.39,431.23Z"/><path class="cls-2" d="M483.32,448.3l-26,43.35c-.26.34-.43.68-.68,1a49.63,49.63,0,0,1-13.4,5.89C400,510.42,304.72,512.89,152,360.06S1.62,112,13.48,68.82a49.63,49.63,0,0,1,5.89-13.4c.34-.26.68-.43,1-.68l43.35-26a21.61,21.61,0,0,1,29.1,6.57L130.47,91.6,162,138.88a22,22,0,0,1-4.69,29.1l-28.59,22.19-10.24,7.94a21.67,21.67,0,0,0-5.72,27.48c11.43,20.48,22.19,44.63,75.61,98.13s77.65,64.17,98.13,75.61a21.67,21.67,0,0,0,27.48-5.72l7.94-10.24,22.19-28.59a22,22,0,0,1,29.1-4.69l48.73,32.51,54.87,36.61A21.61,21.61,0,0,1,483.32,448.3Z"/><path class="cls-2" d="M418.18,502.94c-52.44-4.09-132-34.2-240.64-142.88C24.74,207.31,27.22,112,39.08,68.82A49.63,49.63,0,0,1,45,55.42,53.75,53.75,0,0,1,63.06,37.67l41.53-24.93a21.63,21.63,0,0,0-23.78-1.09l-43.35,26A53.76,53.76,0,0,0,19.37,55.42a49.63,49.63,0,0,0-5.89,13.4C1.62,112-.86,207.31,152,360.06,280.06,488.22,367.78,507.16,418.18,502.94Z"/><path class="cls-2" d="M145.91,366.12a853.34,853.34,0,0,1-73.83-84.31,415,415,0,0,1-56.83-99.64A235,235,0,0,1,1,125.6,161.82,161.82,0,0,1,5.21,66.52L21.66,71A145,145,0,0,0,18,123.77a218.55,218.55,0,0,0,13.22,52.4,398.15,398.15,0,0,0,54.54,95.44A835.55,835.55,0,0,0,158,354.07Z"/><path class="cls-3" d="M1.05,125.59a235,235,0,0,0,14.21,56.58A415,415,0,0,0,72.09,281.8q2.47,3.56,5.22,6.89a8.67,8.67,0,0,0,12.1,1.48,8.46,8.46,0,0,0,1.43-11.86q-2.69-3.25-5.12-6.71a398.16,398.16,0,0,1-54.49-95.45A218.55,218.55,0,0,1,18,123.77a144.85,144.85,0,0,1,3.64-52.69A44.17,44.17,0,0,1,41.87,45L85.21,19a13,13,0,0,1,17.6,4l69.12,103.64a13.13,13.13,0,0,1-2.85,17.58l-38.8,30.18a29.87,29.87,0,0,0-7.91,38.33l3.08,5.6c10.91,20,24.47,44.88,74,94.38s74.38,63.05,94.37,74l5.61,3.09a29.87,29.87,0,0,0,38.33-7.91L367.91,343a13.14,13.14,0,0,1,17.58-2.85l103.64,69.12a13,13,0,0,1,4,17.6l-26,43.34A44.1,44.1,0,0,1,441,490.36C388.5,504.78,296.78,492.84,158,354l-23.42-24.4a8.7,8.7,0,0,0-12-.46,8.44,8.44,0,0,0-.46,12.08l23.85,24.85C260.92,481.11,346.53,512,405.38,512a151.18,151.18,0,0,0,40.11-5.24,61.08,61.08,0,0,0,36.18-27.88l26.06-43.32A30.1,30.1,0,0,0,498.61,395L395,325.9a30.25,30.25,0,0,0-40.51,6.58L324.26,371.3a12.9,12.9,0,0,1-16.55,3.48L302,371.62c-19-10.38-42.73-23.3-90.45-71s-60.67-71.45-71-90.45l-3.15-5.74a12.92,12.92,0,0,1,3.41-16.61l38.79-30.18a30.27,30.27,0,0,0,6.59-40.51L117,13.44A30.1,30.1,0,0,0,76.43,4.31l-43.34,26A61.18,61.18,0,0,0,5.2,66.52,161.91,161.91,0,0,0,1.05,125.59Z"/><path class="cls-3" d="M106.25,301.53a8.52,8.52,0,0,0-3.26.41,8.4,8.4,0,0,0-2.92,1.55,9.11,9.11,0,0,0-3.1,5.83,8.9,8.9,0,0,0,2.14,6.2,9.18,9.18,0,0,0,5.92,3l1.65-.07a6.25,6.25,0,0,0,1.71-.43,5.44,5.44,0,0,0,1.49-.62,12,12,0,0,0,1.4-1,9,9,0,0,0,2.94-5.83,8.65,8.65,0,0,0-7.94-9h0Z"/><path class="cls-3" d="M290.13,85.37A145.23,145.23,0,0,1,435.2,230.44a8.53,8.53,0,1,0,17.07,0A162.31,162.31,0,0,0,290.13,68.31a8.53,8.53,0,0,0,0,17.07Z"/><path class="cls-3" d="M290.13,136.57A94,94,0,0,1,384,230.44a8.53,8.53,0,1,0,17.07,0A111.06,111.06,0,0,0,290.13,119.51a8.53,8.53,0,0,0,0,17.07Z"/><path class="cls-3" d="M290.13,187.77a42.72,42.72,0,0,1,42.67,42.67,8.53,8.53,0,1,0,17.07,0,59.8,59.8,0,0,0-59.73-59.73,8.53,8.53,0,1,0,0,17.07Z"/></svg>