<svg id="Ñëîé_1" data-name="Ñëîé 1" xmlns="http://www.w3.org/2000/svg" viewBox="0 0 500 500"><defs><style>.cls-1{fill:#afafaf;}</style></defs><title>Apple logo</title><g id="_Group_" data-name=" Group "><g id="_Group_2" data-name=" Group 2"><path id="_Path_" data-name=" Path " class="cls-1" d="M380.24,266.41a107.41,107.41,0,0,1,52.52-91.9c-19.69-28.45-52.52-46-87.53-48.14C308,122,273,148.25,253.32,148.25s-48.14-21.88-78.77-21.88c-41.58,2.19-78.77,24.07-98.47,59.08-41.58,72.21-10.94,181.62,30.63,240.7,19.69,28.45,43.76,61.27,74.4,61.27s41.58-19.69,78.77-19.69,46,19.69,78.77,19.69,52.52-28.45,72.21-59.08c15.32-19.69,26.26-43.76,32.82-67.83C404.31,345.19,378.05,308,380.24,266.41Z"/><path id="_Path_2" data-name=" Path 2" class="cls-1" d="M319,89.17C336.47,67.29,345.23,41,343,12.58c-28.45,2.19-52.52,15.32-70,37.2-17.51,19.69-26.26,48.14-24.07,74.4C277.39,124.18,301.46,111.05,319,89.17Z"/></g></g></svg>