<svg id="Ñëîé_1" data-name="Ñëîé 1" xmlns="http://www.w3.org/2000/svg" viewBox="0 0 500 500"><defs><style>.cls-1{fill:#00b17c;}.cls-2{opacity:0.1;}.cls-3{fill:#fff;}</style></defs><title>Credit card</title><path class="cls-1" d="M491.49,250C491.49,64.75,430.9,8.51,250,8.51S8.51,64.75,8.51,250,69.1,491.49,250,491.49,491.49,435.25,491.49,250Z"/><path class="cls-2" d="M488.79,310.88,398,200.74l-22.65-7.59-56.74-71.25L167.16,205.72l37.76,39.92-84.28,12.7L97.46,393.08l67.61,92.73c24.78,3.91,53,5.68,84.93,5.68C409.33,491.49,475.32,447.84,488.79,310.88Z"/><path class="cls-3" d="M299.66,103A21,21,0,0,0,270,103L167.16,205.72H234.8l83.83-83.83Z"/><path class="cls-3" d="M397,200.22l-65.71-65.64-71.14,71.14h73a38.93,38.93,0,0,1,38.89,38.89v10.17l25-24.95a20.93,20.93,0,0,0,0-29.62Z"/><path class="cls-3" d="M333.17,223.67H117.77a21,21,0,0,0-20.94,20.94V382.23a21,21,0,0,0,20.94,20.94H333.17a21,21,0,0,0,20.94-20.94V244.61A21,21,0,0,0,333.17,223.67Zm-62.82,47.87h47.87v17.95H270.34Zm-132.23,0h106.5v17.95H138.11Zm176.12,91.75a29.94,29.94,0,0,1-42.1.2,29.91,29.91,0,1,1,0-42.71,30,30,0,0,1,42.09.2h0A30,30,0,0,1,314.23,363.29Z"/></svg>