<svg id="Capa_1" data-name="Capa 1" xmlns="http://www.w3.org/2000/svg" viewBox="0 0 512 512"><defs><style>.cls-1{fill:#7bc144;}.cls-1,.cls-2{isolation:isolate;}.cls-3{fill:#00703d;}.cls-4{fill:#fff;}</style></defs><title>euro</title><circle class="cls-1" cx="256" cy="256" r="252.84"/><circle class="cls-1" cx="255.94" cy="256" r="185.71"/><g class="cls-2"><path class="cls-3" d="M256,2.67C116.31,2.67,2.67,116.31,2.67,256A253.92,253.92,0,0,0,59,415.25,10.13,10.13,0,1,0,74.72,402.5,233.59,233.59,0,0,1,22.93,256C22.93,127.49,127.49,22.93,256,22.93S489.07,127.49,489.07,256,384.51,489.07,256,489.07a233.59,233.59,0,0,1-146.5-51.79A10.13,10.13,0,0,0,96.76,453,253.92,253.92,0,0,0,256,509.33c139.69,0,253.33-113.64,253.33-253.33S395.69,2.67,256,2.67Z"/></g><g class="cls-2"><path class="cls-3" d="M398.9,137.27a10.13,10.13,0,1,0-15.58,13A165.71,165.71,0,0,1,421.51,256c0,91.26-74.25,165.51-165.51,165.51S90.49,347.26,90.49,256,164.74,90.49,256,90.49a164.93,164.93,0,0,1,89.11,26A10.13,10.13,0,0,0,356,99.44,185.17,185.17,0,0,0,256,70.22C153.56,70.22,70.22,153.56,70.22,256S153.56,441.78,256,441.78,441.78,358.44,441.78,256A186,186,0,0,0,398.9,137.27Z"/></g><path class="cls-4" d="M314.8,296l20.38,19.64A76.33,76.33,0,0,1,305.84,337a104.57,104.57,0,0,1-78.31-.49,86.24,86.24,0,0,1-30.93-22.09,81.55,81.55,0,0,1-17.8-32.89h-28V264.35h24.79q-.25-2.7-.25-8.35t.25-8.35H150.82V230.47h28a81.59,81.59,0,0,1,17.8-32.9,86.32,86.32,0,0,1,30.93-22.09,104.57,104.57,0,0,1,78.31-.49,76.32,76.32,0,0,1,29.33,21.36L314.8,215.74q-18.66-20.13-45.9-20.13-19.64,0-34.49,9.33a56.13,56.13,0,0,0-22,25.53h70.45v17.18H207.77q-.49,5.4-.49,8.35t.49,8.35h75.12v17.18H212.44a56.11,56.11,0,0,0,22,25.53q14.85,9.33,34.49,9.33Q296.15,316.39,314.8,296Z"/></svg>