<svg id="Ñëîé_1" data-name="Ñëîé 1" xmlns="http://www.w3.org/2000/svg" viewBox="0 0 500 500"><defs><style>.cls-1{fill:#064a5f;}.cls-2{fill:#04303a;}.cls-3{fill:#fff;}</style></defs><title>Euro account</title><path class="cls-1" d="M495.45,250C495.45,61.72,433.87,4.55,250,4.55S4.55,61.72,4.55,250,66.13,495.45,250,495.45,495.45,438.28,495.45,250Z"/><path class="cls-2" d="M495.45,250c0-1.26,0-2.49,0-3.74C439.54,198.9,353.78,125.09,353.78,125.09l-176,20-20,72.67-3.33,68.67L93.61,298.78,312,492.74C448,479.51,495.45,415.27,495.45,250Z"/><path class="cls-3" d="M302.55,324.74q15.91-9.63,25.12-27.63h78.72q-12.56,47.73-49.83,75.16T267,399.69q-51.92,0-89.4-27.22t-51.29-73.69H93.61V261.51H120a110.89,110.89,0,0,1-.42-11.31q0-7.95.42-12.14H93.61V200.38h33.08q13.82-46.06,51.29-73.07t89-27q52.34,0,89.61,27.64t49.83,75.37H327.67q-9.21-18-25.12-27.43t-36.43-9.42q-20.1,0-36,8.79a66.8,66.8,0,0,0-25.54,25.12h69.93v37.68H192.85q-.42,3.77-.42,12.14a111.06,111.06,0,0,0,.42,11.31h81.65v37.27H203.73a67.78,67.78,0,0,0,25.75,26.38q16.11,9.22,36.64,9.21T302.55,324.74Z"/></svg>