<svg id="Ñëîé_1" data-name="Ñëîé 1" xmlns="http://www.w3.org/2000/svg" viewBox="0 0 500 500"><defs><style>.cls-1{fill:#00b17c;}.cls-2{opacity:0.1;}.cls-3{fill:#fff;}</style></defs><title>bill</title><path class="cls-1" d="M495,250C495,62.06,433.53,5,250,5S5,62.06,5,250,66.47,495,250,495s245-57.06,245-245Z"/><path class="cls-2" d="M495,250c0-1.31,0-2.59,0-3.89L365.86,108.47l-62.72,68L246.89,175l-52.36-66.55L150.26,147.1l11.95,25.69-8-.21-20,219,89.47,103q12.76.43,26.39.44C433.53,495,495,437.94,495,250Z"/><path class="cls-3" d="M305.47,108.47V158H194.53V108.47H134.14V391.53H365.86V108.47ZM216.18,287.78V271.19H317.82v16.59Zm92.76,33-35.35,35.35L250,332.53l11.73-11.73,11.83,11.83L297.21,309ZM216.18,252.4V235.81H317.82V252.4Zm-16.59,0H182.18V235.81H199.6Zm0,18.8v16.59H182.18V271.19Zm26.81,53.07v16.59H182.18V324.27Zm91.41-123.84V217H216.18V200.43Zm-118.22,0V217H182.18V200.43Z"/></svg>