<svg xmlns="http://www.w3.org/2000/svg" viewBox="0 0 70.02 90"><defs><style>.cls-1{fill:#7cc144;}.cls-2{fill:#22723f;}</style></defs><title>Ресурс 1</title><g id="Слой_2" data-name="Слой 2"><g id="katman_1" data-name="katman 1"><circle class="cls-1" cx="27.16" cy="62.84" r="23.16"/><path class="cls-2" d="M2,0A2.08,2.08,0,0,0,0,2V88a2.08,2.08,0,0,0,2,2H54a2,2,0,0,0,1.42-.6l14-14A2.23,2.23,0,0,0,70,74V2a2.09,2.09,0,0,0-2-2ZM4,4H66V72H54a2,2,0,0,0-2,2V86H4Zm6,6a2.17,2.17,0,0,0-2,2V26a2.07,2.07,0,0,0,2,2H28a2.07,2.07,0,0,0,2-2V12a2.09,2.09,0,0,0-2-2Zm2,4H26V24H12Zm24,3a2,2,0,0,0-2,2,2,2,0,0,0,2,2H60a2,2,0,0,0,2-2,2,2,0,0,0-2-2ZM31.82,32a2.13,2.13,0,0,0-1.49.89L22.46,44.22l-4.32-2.91a2.13,2.13,0,0,0-2.83.57,2.07,2.07,0,0,0,.56,2.77l6,4a2.08,2.08,0,0,0,2.8-.53l9-13A2.07,2.07,0,0,0,33.77,33,2.1,2.1,0,0,0,31.82,32ZM10,34a2.15,2.15,0,0,0-2,2V54a2,2,0,0,0,2,2H28a2.05,2.05,0,0,0,2-2V52A2.12,2.12,0,0,0,28,50,2.06,2.06,0,0,0,26,52H12V38H22a2,2,0,1,0,0-4Zm26,9a2,2,0,0,0,0,4H60a2,2,0,1,0,0-4ZM10,62a2.13,2.13,0,0,0-2,2V78a2.08,2.08,0,0,0,2,2H28a2.09,2.09,0,0,0,2-2V64a2.07,2.07,0,0,0-2-2Zm2,4H26V76H12Zm24,3a2,2,0,0,0-2,2,2,2,0,0,0,2,2H48a2,2,0,0,0,2-2,2,2,0,0,0-2-2Zm20,7h7.16L56,83.16Z"/></g></g></svg>