<svg id="katman_1" data-name="katman 1" xmlns="http://www.w3.org/2000/svg" viewBox="0 0 32 35"><defs><style>.cls-1{fill:#7cc144;}.cls-2{fill:#20713d;stroke:#20713d;stroke-miterlimit:10;stroke-width:0.25px;}</style></defs><title>gold</title><circle class="cls-1" cx="12.63" cy="20.16" r="7.17"/><path class="cls-2" d="M16,5.67A.38.38,0,0,0,15.6,6V8a.38.38,0,1,0,.75,0s0,0,0,0V6A.37.37,0,0,0,16,5.67Z"/><path class="cls-2" d="M27.39,17.08h-2a.38.38,0,0,0,0,.75h2a.38.38,0,0,0,0-.75Z"/><path class="cls-2" d="M6.55,17.08h-2a.38.38,0,0,0,0,.75h2a.38.38,0,0,0,0-.75Z"/><path class="cls-2" d="M24.31,9.12a.37.37,0,0,0-.52,0h0l-1.4,1.4a.37.37,0,0,0,.53.53l1.4-1.4A.38.38,0,0,0,24.31,9.12Z"/><path class="cls-2" d="M9.57,10.52l-1.4-1.4a.37.37,0,0,0-.53.53L9,11a.37.37,0,1,0,.53-.53Z"/><path class="cls-2" d="M28.52,28.55,26.78,22a2.39,2.39,0,0,0-2.22-1.71H22.45s0,0,0,0l-1.06-4a.38.38,0,1,0-.72.2h0l1,3.82H10.33l1.77-6.63a1.24,1.24,0,0,1,1.2-.92h5.18A1.66,1.66,0,0,1,20,13.89l.08.31a.38.38,0,0,0,.72-.2h0l-.08-.3A2.39,2.39,0,0,0,18.48,12H13.29a2,2,0,0,0-1.92,1.48L9.56,20.25a.07.07,0,0,0,0,0H7.21a2,2,0,0,0-1.92,1.48l-.37,1.37a.37.37,0,1,0,.71.25l0-.06L6,22A1.24,1.24,0,0,1,7.21,21h5.18a1.66,1.66,0,0,1,1.5,1.15l1.7,6.4H4.24l.8-3a.38.38,0,1,0-.72-.2h0l-.84,3.14a.63.63,0,0,0,.11.54.61.61,0,0,0,.49.24H27.92a.63.63,0,0,0,.61-.78ZM14.61,22a2.21,2.21,0,0,0-.55-1h3.76a2,2,0,0,0-.37.73L16,27.22Zm1.8,6.6,1.77-6.63a1.24,1.24,0,0,1,1.2-.92h5.18a1.66,1.66,0,0,1,1.5,1.15l1.7,6.4Z"/></svg>