<svg id="Ñëîé_1" data-name="Ñëîé 1" xmlns="http://www.w3.org/2000/svg" xmlns:xlink="http://www.w3.org/1999/xlink" viewBox="0 0 500 500"><defs><style>.cls-1{fill:url(#Adsız_degrade_5);}.cls-2{fill:url(#Adsız_degrade_2);}.cls-3{fill:url(#Adsız_degrade_3);}.cls-4{fill:url(#Adsız_degrade_4);}.cls-5{opacity:0.2;}.cls-5,.cls-6,.cls-7{isolation:isolate;}.cls-6{opacity:0.12;}.cls-7{fill:#fff;opacity:0.25;}</style><linearGradient id="Adsız_degrade_5" x1="255.43" y1="4398.4" x2="-53.54" y2="4707.37" gradientTransform="translate(0 -4357.35)" gradientUnits="userSpaceOnUse"><stop offset="0" stop-color="#00a0ff"/><stop offset="0.01" stop-color="#00a1ff"/><stop offset="0.26" stop-color="#00beff"/><stop offset="0.51" stop-color="#00d2ff"/><stop offset="0.76" stop-color="#00dfff"/><stop offset="1" stop-color="#00e3ff"/></linearGradient><linearGradient id="Adsız_degrade_2" x1="477.49" y1="4607.75" x2="32.08" y2="4607.75" gradientTransform="translate(0 -4357.35)" gradientUnits="userSpaceOnUse"><stop offset="0" stop-color="#ffe000"/><stop offset="0.41" stop-color="#ffbd00"/><stop offset="0.78" stop-color="orange"/><stop offset="1" stop-color="#ff9c00"/></linearGradient><linearGradient id="Adsız_degrade_3" x1="311.59" y1="4648.82" x2="-107.49" y2="5067.9" gradientTransform="translate(0 -4357.35)" gradientUnits="userSpaceOnUse"><stop offset="0" stop-color="#ff3a44"/><stop offset="1" stop-color="#c31162"/></linearGradient><linearGradient id="Adsız_degrade_4" x1="-11.74" y1="4242.44" x2="175.34" y2="4429.52" gradientTransform="translate(0 -4357.35)" gradientUnits="userSpaceOnUse"><stop offset="0" stop-color="#32a071"/><stop offset="0.07" stop-color="#2da771"/><stop offset="0.48" stop-color="#15cf74"/><stop offset="0.8" stop-color="#06e775"/><stop offset="1" stop-color="#00f076"/></linearGradient></defs><title>Google logo</title><path class="cls-1" d="M46.08,19.32c-5.52,7.37-9.21,16.57-9.21,25.78V452c0,9.21,3.68,18.41,9.21,25.78l1.84,1.84L276.24,251.32v-3.68Z"/><path class="cls-2" d="M351.73,328.66l-75.49-75.49v-5.52l75.49-75.49,1.84,1.84,90.22,51.56c25.78,14.73,25.78,38.67,0,53.4Z"/><path class="cls-3" d="M353.57,326.82l-77.33-77.33L46.08,479.65c9.21,9.21,22.1,9.21,38.67,1.84L353.57,326.82"/><path class="cls-4" d="M353.57,172.15,84.74,19.32c-11-9.21-27.62-7.37-38.67,1.84L276.24,249.48Z"/><path class="cls-5" d="M351.73,325l-267,151c-11,9.21-25.78,9.21-36.83,0h0l-1.84,1.84h0l1.84,1.84h0c11,9.21,25.78,9.21,36.83,0Z"/><path class="cls-6" d="M46.08,476c-5.52-7.37-7.37-16.57-7.37-25.78V452c0,9.21,3.68,18.41,9.21,25.78V476Z"/><path class="cls-6" d="M443.8,273.42,351.73,325l1.84,1.84,90.22-53.4c11-3.68,18.41-12.89,18.41-23.94h0C462.21,258.69,454.84,266.05,443.8,273.42Z"/><path class="cls-7" d="M84.74,21.16,443.8,225.55c11,7.37,18.41,14.73,18.41,23.94h0c0-11-7.37-22.1-18.41-25.78L84.74,19.32c-25.78-14.73-46-1.84-46,27.62v1.84C38.71,19.32,59,6.43,84.74,21.16Z"/></svg>