<svg id="Ñëîé_1" data-name="Ñëîé 1" xmlns="http://www.w3.org/2000/svg" viewBox="0 0 500 500"><defs><style>.cls-1,.cls-3{fill:#fff;}.cls-1{opacity:0.6;}.cls-2{opacity:0.1;}</style></defs><title>Headphones</title><path class="cls-1" d="M492.91,250C492.91,63.66,432,7.09,250,7.09S7.09,63.66,7.09,250,68,492.91,250,492.91,492.91,436.34,492.91,250Z"/><path class="cls-2" d="M358.49,156.77c-63.16-27.69-35.62-49.55-116.11-49.55-39.76,0-76,44-106.4,76.76,0,0-3.56,113-34,145.75L227.33,492.59c3,.09,6,.15,9.09.2l3.38.05,3.09,0c2.34,0,4.68,0,7.06,0H250c146,0,214.06-36.45,235.27-147.08Z"/><path class="cls-3" d="M168.6,218.28H145a105.34,105.34,0,0,1,203.85-28.79,12,12,0,1,0,22.44-8.32,129.3,129.3,0,0,0-250.53,43.51,47.94,47.94,0,0,0-23.94,41.48v40.7a47.94,47.94,0,0,0,47.88,47.88H168.6a12,12,0,0,0,12-12V230.25A12,12,0,0,0,168.6,218.28Z"/><path class="cls-3" d="M355.33,218.28H331.4a12,12,0,0,0-12,12V355.33a12,12,0,0,1-12,12H270.95v.36a23.94,23.94,0,1,0,0,23.22v.36h36.51a35.94,35.94,0,0,0,35.91-35.91v-.6h12a47.94,47.94,0,0,0,47.88-47.88v-40.7A47.94,47.94,0,0,0,355.33,218.28Z"/></svg>