<?xml version="1.0" encoding="utf-8"?>
<!-- Generator: Adobe Illustrator 24.0.1, SVG Export Plug-In . SVG Version: 6.00 Build 0)  -->
<svg version="1.1" id="katman_1" xmlns="http://www.w3.org/2000/svg" xmlns:xlink="http://www.w3.org/1999/xlink" x="0px" y="0px"
	 viewBox="0 0 576 102" style="enable-background:new 0 0 576 102;" xml:space="preserve">
<style type="text/css">
	.st0{fill-rule:evenodd;clip-rule:evenodd;fill:#00703D;}
	.st1{fill-rule:evenodd;clip-rule:evenodd;fill:#7BC144;}
</style>
<path class="st0" d="M348.17,85.51h26.05L385,70.22l2.92,3.85l7.82,11.44h26.61c-0.98-1.86-1.53-2.34-2.72-4.08L401.4,56.06
	c-3.22-4.53-6.41-9-9.63-13.57L386,34.7c-0.75-0.8-0.18-0.36-1.02-0.91L348.17,85.51z"/>
<path class="st0" d="M96.2,32.9v-14.2H82.61c-4.03,2.43-3.99,1.02-7.72,4.74l-18.64,18.8l16.88,0.27l0.01,15.7
	c2.22-1.3,14.61-14.2,18.19-17.76C94.74,37.03,93.76,36.89,96.2,32.9"/>
<path class="st1" d="M229.83,19.83v63.98c0,1.3,0.39,1.7,1.7,1.7h19.82c1.3,0,1.7-0.39,1.7-1.7V67.39h3.96l8.49,18.12h23.22
	c-0.6-2.55-3.83-8.23-5.1-10.76c-1.34-2.69-4.46-8.6-5.1-11.32c10.63-5.63,13-19.17,9.57-29.95c-3.33-10.48-13.74-15.34-27.69-15.34
	h-28.88C230.23,18.13,229.83,18.52,229.83,19.83 M258.71,49.84h-5.66V35.68c7.64,0,13.02-0.68,13.02,7.93
	C266.07,47.57,262.8,49.84,258.71,49.84z"/>
<path class="st1" d="M485.2,19.83v63.98c0,1.3,0.39,1.7,1.7,1.7h19.82c1.3,0,1.7-0.39,1.7-1.7V67.39h3.96l8.49,18.12h23.22
	c-0.6-2.55-3.83-8.22-5.1-10.76c-1.52-3.05-4.3-7.89-5.1-11.32c13.82-7.31,14.61-31.12,2.12-40.06c-5.06-3.62-11.81-5.24-20.24-5.24
	H486.9C485.6,18.13,485.2,18.52,485.2,19.83 M514.08,49.84h-5.66V35.68c7.62,0,13.02-0.55,13.02,7.93
	C521.44,47.57,518.17,49.84,514.08,49.84z"/>
<path class="st1" d="M155.66,51.54c0,19.08,15.81,33.41,32.27,33.41c10.91,0,18.95-1.21,27.61-9.19c8.1-7.47,9.76-15.48,9.76-26.48
	c0-33.12-51.49-44.01-66.64-11.71C157.3,40.48,155.66,47.5,155.66,51.54 M192.46,63.99c-20.82,0-17.02-24.91-1.7-24.91
	C207.51,39.08,206.21,63.99,192.46,63.99z"/>
<path class="st1" d="M293.82,19.83v65.68h49.83V65.69h-26.61v-5.1h18.69V43.04h-18.69v-5.1h26.61V18.13h-48.13
	C294.21,18.13,293.82,18.52,293.82,19.83"/>
<path class="st1" d="M96.2,32.9c-2.45,4-1.46,4.13-4.88,7.53C87.74,44,75.36,56.89,73.13,58.19l-0.01-15.7l-16.88-0.27l18.64-18.8
	c3.73-3.72,3.69-2.3,7.72-4.74l-38.51,0c-5.11-0.03-7.45,0.14-10.46,2.56c-6.19,4.97-7.3,21.35,8.75,21.24
	c4.35-0.03,8.69-0.01,13.04-0.01L40,58.19c-2.4,2.4-5.91,5.29-6.9,8.95c-2.65,9.84,6.55,17.56,14.87,14.88
	c6.93-2.23,19.01-18.54,25.01-22.56c0,8.45-1.29,18.06,2.94,22.54c5.84,6.17,20.39,6.14,20.28-10.07L96.2,32.9z"/>
<path class="st1" d="M104.7,19.83v63.98c0,1.3,0.39,1.7,1.7,1.7h21.52V60.59h17.55c1.3,0,1.7-0.39,1.7-1.7V44.74
	c0-1.3-0.39-1.7-1.7-1.7h-17.55v-5.1h25.48c1.3,0,1.7-0.39,1.7-1.7V19.83c0-1.3-0.39-1.7-1.7-1.7h-47
	C105.09,18.13,104.7,18.52,104.7,19.83"/>
<path class="st1" d="M424.05,19.83v16.42c0,1.3,0.39,1.7,1.7,1.7h15.85v47.56h22.65V37.95h15.85c1.3,0,1.7-0.39,1.7-1.7V19.83
	c0-1.3-0.39-1.7-1.7-1.7h-54.36C424.44,18.13,424.05,18.52,424.05,19.83"/>
<path class="st1" d="M372.31,51.59l12.67-17.81c0.84,0.56,0.27,0.11,1.02,0.91l5.77,7.79l6.63,9.11l21.49-30.31
	c2.63-3.61,2.67-3.25-3.18-3.18c-6.98,0.08-13.99,0.02-20.97,0.02l-8.01,11.24l-2.75,4.42c-0.98-1.63-1.91-3.48-2.92-4.82
	c-5.25-6.99-5.69-10.67-8.9-10.69l-24.42-0.16c0.53,2.3,3.96,6.59,5.5,8.65c2.13,2.85,3.83,5.43,5.91,8.25l8.73,12.3
	C370.08,49.01,371,50.35,372.31,51.59"/>
<path class="st1" d="M398.09,51.62l-12.67-17.81c-0.84,0.56-0.27,0.11-1.02,0.91l-5.77,7.79L372,51.63l-21.49-30.31
	c-2.63-3.61-2.67-3.25,3.18-3.18l20.97,0.02l8.01,11.24l2.75,4.42c0.98-1.63,1.91-3.48,2.92-4.82l33.32-10.84
	c-0.53,2.3-3.96,6.59-5.5,8.65c-2.13,2.85-3.83,5.43-5.91,8.25l-8.73,12.3C400.33,49.04,399.4,50.39,398.09,51.62"/>
</svg>
