<?xml version="1.0" encoding="utf-8"?>
<!-- Generator: Adobe Illustrator 21.0.0, SVG Export Plug-In . SVG Version: 6.00 Build 0)  -->
<svg version="1.1" id="Capa_1" xmlns="http://www.w3.org/2000/svg" xmlns:xlink="http://www.w3.org/1999/xlink" x="0px" y="0px"
	 viewBox="0 0 512 512" style="enable-background:new 0 0 512 512;" xml:space="preserve">
<style type="text/css">
	.st0{fill:#87E8D8;}
	.st1{fill:#E3E7F2;}
	.st2{fill:#FFFFFF;}
	.st3{fill:#3DB2A3;}
</style>
<title>hizli-euro</title>
<circle class="st0" cx="256" cy="256" r="246.1"/>
<ellipse class="st1" cx="256" cy="256" rx="216.6" ry="246.1"/>
<path class="st2" d="M39.4,256c0-135.9,97-246.1,216.6-246.1C120.1,9.9,9.9,120.1,9.9,256S120.1,502.1,256,502.1
	C136.4,502.1,39.4,392,39.4,256z"/>
<path class="st3" d="M256,512C114.6,512,0,397.4,0,256S114.6,0,256,0s256,114.6,256,256C511.8,397.3,397.3,511.8,256,512z M256,19.7
	C125.5,19.7,19.7,125.5,19.7,256S125.5,492.3,256,492.3S492.3,386.5,492.3,256C492.2,125.6,386.5,19.8,256,19.7z"/>
<path class="st3" d="M360.9,345.3c-25.3,29.7-57.5,44.6-96.5,44.6c-28.1,0.3-55.5-9-77.6-26.4c-22.6-17.5-37.5-40.5-45.3-69.1H98.8
	l12.3-26.7h27.8c-0.4-3.8-0.5-7.7-0.4-11.5c0-3.3,0.4-8.5,0.7-15.6h-33l11.9-26.7H143c8.5-27.5,23.8-49.8,45.7-66.5
	c21.7-16.6,48.4-25.5,75.7-25.3c37.5,0,69.1,14.5,94.7,43.8l-31.9,27.5c-16.3-19.7-37.2-29.3-62.8-29.3c-32.3,0-59.8,19.7-73.1,49.8
	h94.3l-11.9,26.7h-88c-1.1,5.1-1.6,10.4-1.5,15.6c-0.1,3.9,0.2,7.7,1.1,11.5h77.2l-12.3,26.7H189c12.3,32.7,41.2,53.8,75.4,53.8
	c26.4,0,47.9-10,64.6-30.1L360.9,345.3z"/>
</svg>
