<svg id="Capa_1" data-name="Capa 1" xmlns="http://www.w3.org/2000/svg" viewBox="0 0 512 512"><defs><style>.cls-1{fill:#7bc144;opacity:0.8;}.cls-2{fill:#20713d;}</style></defs><title>3b</title><circle class="cls-1" cx="195.2" cy="316.8" r="145.2"/><path class="cls-2" d="M178.24,162c-1.23-17.15-17.09-22.08-26.13-24.37V110.32a24.81,24.81,0,0,1,10.35,6.18c6.22,6.9,17-2.67,10.79-9.66a39.76,39.76,0,0,0-21.14-11.38c.78-11.2-14.9-11.25-14.48.12a35.74,35.74,0,0,0-13.09,5,25.07,25.07,0,0,0-11.65,21.71c0,17.44,15.17,23.71,24.75,26.54V176.7a32.09,32.09,0,0,1-16-10.09c-5.68-7.39-17.2,1.39-11.48,8.83.46.6,10.36,13.2,27.49,16-.42,11.25,15.33,11.25,14.48,0,8.13-1.2,14.77-4.38,19.44-9.4C176.49,176.81,178.8,169.86,178.24,162Zm-40.61-28.52c-6.59-2.5-10.26-5.68-10.26-11.26,0-7.26,5.3-10.45,10.26-11.84ZM161,172.24a17,17,0,0,1-8.84,4.55v-24.1c7.42,2.27,11.3,4.95,11.69,10.36C164.07,166.83,163.11,169.92,161,172.24Z"/><path class="cls-2" d="M325.1,387.76H333a49.48,49.48,0,0,0,7.25,16c12.2,17.18,35.72,19.71,54.15,11.82a7.24,7.24,0,0,0-5.7-13.31c-8.45,3.62-19.13,4.63-27.65.63-6.31-3-10.54-8.68-12.91-15.11h20.64c9.32,0,9.38-14.48,0-14.48H345.28a75.29,75.29,0,0,1,0-10.56h23.54c9.32,0,9.38-14.48,0-14.48H348.17c2.33-6.32,6.45-12,12.6-15,8.07-3.94,18.21-3.24,26.42-.14,8.73,3.3,13.86-10.24,5.13-13.54-12-4.53-26.33-5-38,.66-11.2,5.47-18.15,16.2-21.3,28H325.1c-9.32,0-9.38,14.48,0,14.48h5.66a89.62,89.62,0,0,0,0,10.56H325.1C315.78,373.28,315.72,387.76,325.1,387.76Z"/><path class="cls-2" d="M143.48,278.13c74.24,0,134.65-60.4,134.65-134.65S217.73,8.84,143.48,8.84,8.84,69.24,8.84,143.48,69.24,278.13,143.48,278.13Zm0-254.81A120.17,120.17,0,1,1,23.32,143.48,120.3,120.3,0,0,1,143.48,23.32Z"/><path class="cls-2" d="M143.48,236.68A93.2,93.2,0,0,0,218,87.52c-5.61-7.46-17.19,1.24-11.57,8.7A78.72,78.72,0,1,1,64.77,143.48,78.74,78.74,0,0,1,182.86,75.31c8.08,4.68,15.34-7.85,7.26-12.53a93.21,93.21,0,1,0-46.63,173.91Z"/><path class="cls-2" d="M368.52,233.87a134.47,134.47,0,0,0-89.32,33.89c-7,6.2,2.63,17,9.61,10.83a120,120,0,1,1-21.28,24.78c5.07-7.84-7.09-15.7-12.16-7.86a134.16,134.16,0,0,0-21.49,73c0,74.24,60.4,134.65,134.65,134.65s134.65-60.4,134.65-134.65S442.76,233.87,368.52,233.87Z"/><path class="cls-2" d="M368.52,461.71a93.2,93.2,0,1,0-93.2-93.2A93.3,93.3,0,0,0,368.52,461.71Zm0-171.92a78.72,78.72,0,1,1-78.72,78.72A78.81,78.81,0,0,1,368.52,289.8Z"/><path class="cls-2" d="M213.29,452.25c-78.18,0-142.9-58.74-152.35-134.41l7,8.4c6,7.16,17.1-2.13,11.11-9.29L58.44,292.3a7.32,7.32,0,0,0-11.9,1.17L30.35,323c-4.47,8.16,8.2,15.18,12.7,7L47,322.76c11.71,81.29,81.82,144,166.3,144C222.63,466.73,222.63,452.25,213.29,452.25Z"/><path class="cls-2" d="M298.71,59.75c77.91,0,142.45,58.33,152.25,133.62l-8.18-8.69c-6.4-6.8-16.95,3.13-10.54,9.93l21,22.28a7.3,7.3,0,0,0,13.13-1.26l14.18-29.9c4-8.44-9.08-14.64-13.09-6.21l-3,6.26C451.3,106.17,382,45.26,298.7,45.26,289.37,45.27,289.37,59.75,298.71,59.75Z"/></svg>