<svg id="Ñëîé_1" data-name="Ñëîé 1" xmlns="http://www.w3.org/2000/svg" viewBox="0 0 500 500"><defs><style>.cls-1{fill:#00b17c;}.cls-2{opacity:0.1;}.cls-3{fill:#fff;}</style></defs><title>Advantages 3</title><path class="cls-1" d="M491.49,250C491.49,64.75,430.9,8.51,250,8.51S8.51,64.75,8.51,250,69.1,491.49,250,491.49,491.49,435.25,491.49,250Z"/><path class="cls-2" d="M489.37,304.63,277.93,120.18l-39,81.14L359.71,307.58,376.87,344l-7.74-6.51L337,306.86,328.12,352,183.91,210,166.2,251.23,151.06,361.67l10.26,8.57-15.57.61-48.06,6.76L225.79,491.12q11.73.37,24.21.37C411.73,491.49,477.29,446.52,489.37,304.63Z"/><path class="cls-3" d="M393.67,361.57H381.62V290a14.79,14.79,0,0,0-14.77-14.77H326.58A14.79,14.79,0,0,0,311.8,290v71.52H284.91V132.68a14.79,14.79,0,0,0-14.77-14.77H229.87a14.79,14.79,0,0,0-14.77,14.77V361.57H189.82V221.63A14.79,14.79,0,0,0,175,206.86H134.78A14.79,14.79,0,0,0,120,221.63V361.57H106.33a10.26,10.26,0,1,0,0,20.52H393.67a10.26,10.26,0,1,0,0-20.52Z"/></svg>