<svg id="Capa_1" data-name="Capa 1" xmlns="http://www.w3.org/2000/svg" viewBox="0 0 512 512"><defs><style>.cls-1{fill:#7bc144;opacity:0.8;}.cls-2{fill:#20713d;}</style></defs><title>2b</title><circle class="cls-1" cx="195.2" cy="316.8" r="145.2"/><path class="cls-2" d="M337,444.93a7.24,7.24,0,0,0-7.24,7.24V496a7.24,7.24,0,1,0,14.48,0V452.18A7.24,7.24,0,0,0,337,444.93Z"/><path class="cls-2" d="M420.49,270.56A31.33,31.33,0,0,0,404,261.19a31.6,31.6,0,0,0-18.91-53.43,31.86,31.86,0,0,0-5.77-33.8,31.31,31.31,0,0,0-19.23-9.84A31.65,31.65,0,0,0,323,121.27L215.2,13.5a16.09,16.09,0,0,0-22.74,0L169.75,36.22A7.24,7.24,0,0,0,180,46.46l22.72-22.72a1.59,1.59,0,0,1,2.25,0L309.74,128.51c-.35.32-.7.65-1,1L301.22,137,209,44.73a7.24,7.24,0,0,0-10.24,0l-79.5,79.5a7.24,7.24,0,0,0,0,10.24l38.09,38.09a7.24,7.24,0,0,0,10.24-10.24l-33-33,69.26-69.26L291,147.23l-12.88,12.88a39.56,39.56,0,0,0-11.5-24.39h0a39.87,39.87,0,1,0-32,67.86l-12.9,12.9-29.64-29.64a7.24,7.24,0,1,0-10.24,10.24l29.64,29.64-8.5,8.5L98.22,130.47a1.59,1.59,0,0,1,0-2.25L155.46,71a7.24,7.24,0,0,0-10.24-10.24L88,118a16.08,16.08,0,0,0,0,22.74L147.26,200V247.3a84.55,84.55,0,0,0,7.84,35.42l50,107.55L202.71,495.8a7.24,7.24,0,0,0,7.07,7.41H210a7.24,7.24,0,0,0,7.24-7.08l2.46-107.22a7.25,7.25,0,0,0-.67-3.22L168.23,276.61a70,70,0,0,1-6.49-29.31V214.47l31,31-11.87,11.87a7.24,7.24,0,0,0,10.24,10.24L318.94,139.75a17,17,0,0,1,12.1-5h0a17.1,17.1,0,0,1,12.06,29.19l-35.68,35.68a7.24,7.24,0,0,0,10.24,10.24l26.46-26.46a17.1,17.1,0,0,1,24.62.45c6.19,6.65,5.81,17.48-.85,24.14l-37.87,37.87A7.24,7.24,0,0,0,340.3,256.1l29-29h0a17.1,17.1,0,0,1,24.19,24.19l-37.59,37.59a7.24,7.24,0,0,0,10.24,10.24L385.26,280a17.1,17.1,0,0,1,24.62.45c6.19,6.65,5.81,17.48-.85,24.14l-77.16,77.16a7.24,7.24,0,0,0-2.12,5.12v30.63a7.24,7.24,0,1,0,14.48,0V389.85l75-75c12.11-12.11,12.66-32,1.21-44.25Zm-200-88.7a25.38,25.38,0,0,1,35.9-35.9h0a25.37,25.37,0,0,1,.18,35.7l-.37.37a25.41,25.41,0,0,1-35.71-.18Z"/></svg>