<svg id="Ñëîé_1" data-name="Ñëîé 1" xmlns="http://www.w3.org/2000/svg" viewBox="0 0 500 500"><defs><style>.cls-1{fill:#00b17c;}.cls-2{opacity:0.1;}.cls-3{fill:#fff;}</style></defs><title>Advantages 2</title><path class="cls-1" d="M494.46,250C494.46,62.48,433.13,5.54,250,5.54S5.54,62.48,5.54,250,66.87,494.46,250,494.46,494.46,437.52,494.46,250Z"/><path class="cls-2" d="M334.11,159,269.55,97S249.72,145.53,234,184.8l-3.6-1.25L227,189.29l-50.83-55.13-34.71,23-9.85,17.37,62.59,64.89c-35.35,9-100.16,25.3-100.16,25.3l67.81,72-34.07,27.73L252,494.45C433.56,494,494.46,436.84,494.46,250c0-1.47,0-2.92,0-4.37l-126.19-114Z"/><path class="cls-3" d="M368.33,368.24h0Z"/><path class="cls-3" d="M379.62,219.66h-.06a29.82,29.82,0,0,0-21.32,9,30.25,30.25,0,0,0-7.28,12h-15.1a86.88,86.88,0,0,0-18.39-44.87l15.87-15.87a30.23,30.23,0,0,0,13.77,3.35h.1a30,30,0,0,0,30-30.24,30.23,30.23,0,1,0-57.11,13.64l-15.79,15.79a85.49,85.49,0,0,0-45-18.87V149a30.24,30.24,0,0,0,12.1-7.37A30,30,0,0,0,271.37,99,30.25,30.25,0,0,0,250,90.26h-.07a30.09,30.09,0,0,0-9.3,58.78V163.6a85.5,85.5,0,0,0-44.86,18.95l-15.89-15.89a30.1,30.1,0,0,0-48.22-34.9h0a30.27,30.27,0,0,0-.06,42.76,29.92,29.92,0,0,0,21.19,8.72,30.43,30.43,0,0,0,13.86-3.34l16,16a86.87,86.87,0,0,0-18.29,44.74H149a30.2,30.2,0,0,0-28.65-21h-.06a30.39,30.39,0,0,0-21.23,51.81,29.81,29.81,0,0,0,21.29,8.88h.06a30.2,30.2,0,0,0,28.59-21h15.34a86.87,86.87,0,0,0,18.29,44.74l-16,16a30.35,30.35,0,1,0,13.24,13.24l15.89-15.89a85.51,85.51,0,0,0,44.86,18.95V351A30.09,30.09,0,0,0,250,409.74h.07a30.26,30.26,0,0,0,21.4-8.83,30,30,0,0,0-.09-42.67,30.23,30.23,0,0,0-12-7.28V336.42a85.5,85.5,0,0,0,45-18.87l15.78,15.78a30.2,30.2,0,0,0,5.47,35.14,29.81,29.81,0,0,0,21.19,8.73H347a30.5,30.5,0,0,0,30.23-30.36,29.81,29.81,0,0,0-8.82-21.38,30.2,30.2,0,0,0-35-5.38l-15.88-15.88a86.87,86.87,0,0,0,18.39-44.87H351a30.23,30.23,0,0,0,7.37,12.1,29.81,29.81,0,0,0,21.29,8.88h.06a30.27,30.27,0,0,0,30.06-30.4h0a30.27,30.27,0,0,0-30.13-30.28ZM277.29,269.4a28.56,28.56,0,0,1-18.35,21.94v2.11a9.36,9.36,0,0,1-18.72,0v-1.1c-4.46-.76-8.51-2.4-13.63-5.75a9.36,9.36,0,0,1,10.25-15.67c4.72,3.09,6.25,3.33,12.68,3.28a9.38,9.38,0,0,0,9.31-7.91c.44-2.64-.05-6.15-4.94-7.88-7.93-2.8-16.07-6-21.82-10.53-6.08-4.77-8.88-13-7.29-21.36a24.11,24.11,0,0,1,15.45-18.46v-1.54a9.36,9.36,0,1,1,18.72,0v1a30,30,0,0,1,9.42,4.59,9.36,9.36,0,1,1-11.21,15,11.52,11.52,0,0,0-10.45-1.47c-2.67.8-3.38,3.55-3.54,4.37-.33,1.73.13,2.92.45,3.17,3.64,2.85,10.39,5.45,16.51,7.61,12.41,4.39,19.31,15.89,17.16,28.64Z"/></svg>