<svg id="Capa_1" data-name="Capa 1" xmlns="http://www.w3.org/2000/svg" viewBox="0 0 512 512"><defs><style>.cls-1{fill:#7bc144;opacity:0.8;isolation:isolate;}.cls-2{fill:#20713d;}</style></defs><title>2</title><circle class="cls-1" cx="195.2" cy="316.8" r="145.2"/><path class="cls-2" d="M470.22,115.93a32.88,32.88,0,0,0-30.88,21.86l-101-9.19a49.09,49.09,0,0,0-3.86-15.74L406.89,66a34,34,0,1,0-8.95-13.84L325.49,99.08a49.29,49.29,0,0,0-81.79,14l-87-20.92A74.1,74.1,0,1,0,74,156.43q3.35.42,6.73.54l7.1,92.21a49.34,49.34,0,0,0-11.26,91.46L44.32,437.24c-.75,0-1.46-.22-2.22-.22A33.09,33.09,0,1,0,60,442.37l32.18-96.55a45,45,0,0,0,15.15,0l32.19,96.55A32.84,32.84,0,1,0,157.36,437c-.77,0-1.47.17-2.22.22l-32.21-96.6a49.4,49.4,0,0,0-18.73-92.76l-7.08-92.14a74.26,74.26,0,0,0,55.75-47.59l87,20.88c-.08,1.11-.17,2.22-.17,3.35A49.4,49.4,0,0,0,336.79,145l101,9.19a32.88,32.88,0,1,0,32.4-38.26ZM429.05,25.36a16.47,16.47,0,1,1-16.47,16.47A16.47,16.47,0,0,1,429.05,25.36Zm-387,461.06A16.47,16.47,0,1,1,58.56,470,16.47,16.47,0,0,1,42.09,486.42ZM173.82,470a16.47,16.47,0,1,1-16.47-16.47A16.47,16.47,0,0,1,173.82,470Zm-41.17-172.9a32.93,32.93,0,1,1-32.93-32.93A32.93,32.93,0,0,1,132.66,297.06ZM83.26,140.63A57.63,57.63,0,1,1,140.89,83,57.63,57.63,0,0,1,83.26,140.63Zm205.83,24.7A32.93,32.93,0,1,1,322,132.39,32.93,32.93,0,0,1,289.09,165.33Zm181.13,0a16.47,16.47,0,1,1,16.47-16.47A16.47,16.47,0,0,1,470.22,165.33Z"/><path class="cls-2" d="M429.05,354.69A74.16,74.16,0,0,0,360,402.25l-71.09-18.54c.13-1.43.22-2.87.22-4.32a49.15,49.15,0,0,0-11.47-31.6l46.46-54.2a32.47,32.47,0,0,0,14.41,3.47,33.09,33.09,0,1,0-27-14.13L265.1,337.1A49,49,0,0,0,239.69,330c-.82,0-1.65.08-2.47.12l-15.5-69.73A32.83,32.83,0,1,0,205.65,264l15.48,69.64a49.4,49.4,0,1,0,63.61,66l71,18.55a74,74,0,1,0,73.28-63.49ZM190.29,231.19a16.47,16.47,0,1,1,16.47,16.47A16.47,16.47,0,0,1,190.29,231.19Zm148.2,16.47A16.47,16.47,0,1,1,322,264.13,16.47,16.47,0,0,1,338.49,247.66Zm-98.8,164.66a32.93,32.93,0,1,1,32.93-32.93A32.93,32.93,0,0,1,239.69,412.32Zm189.36,74.1a57.63,57.63,0,1,1,57.63-57.63A57.63,57.63,0,0,1,429.05,486.42Z"/><path class="cls-2" d="M60,94.6h4.62A28.64,28.64,0,0,0,68.92,104c7.13,10.06,20.87,11.52,31.69,6.9a4.23,4.23,0,0,0-3.33-7.78c-5,2.1-11.17,2.69-16.14.35A15.42,15.42,0,0,1,73.6,94.6h12c5.44,0,5.5-8.48,0-8.48H71.9a54.78,54.78,0,0,1,0-6.2H85.64c5.44,0,5.5-8.48,0-8.48h-12A15.2,15.2,0,0,1,81,62.68c4.74-2.28,10.64-1.87,15.43-.06,5.09,1.93,8.13-6,3-7.89-7-2.63-15.38-2.92-22.22.41-6.55,3.22-10.64,9.47-12.45,16.37H60.09c-5.44,0-5.5,8.48,0,8.48h3.33a54.78,54.78,0,0,0,0,6.2H60.09C54.6,86.12,54.54,94.6,60,94.6Z"/><path class="cls-2" d="M450.14,440c-.75-10.76-10.7-13.83-16.33-15.27V407.68a14.84,14.84,0,0,1,6.44,3.88c3.88,4.32,10.64-1.69,6.76-6.07a25.32,25.32,0,0,0-13.2-7.13c.5-7-9.32-7.07-9.07.06a22.61,22.61,0,0,0-8.2,3.13,15.7,15.7,0,0,0-7.26,13.58c0,10.89,9.51,14.83,15.45,16.58v17.46a19.82,19.82,0,0,1-10-6.32c-3.57-4.63-10.76.88-7.2,5.51a29.38,29.38,0,0,0,17.21,10c-.25,7.07,9.57,7.07,9.07,0,5.07-.75,9.26-2.75,12.14-5.88A15.54,15.54,0,0,0,450.14,440Zm-25.4-17.83c-4.13-1.56-6.44-3.57-6.44-7.07,0-4.57,3.32-6.51,6.44-7.38Zm14.64,24.21a10.53,10.53,0,0,1-5.51,2.88V434.21c4.63,1.44,7.07,3.07,7.32,6.51A7.56,7.56,0,0,1,439.38,446.41Z"/></svg>