<svg id="Ñëîé_1" data-name="Ñëîé 1" xmlns="http://www.w3.org/2000/svg" viewBox="0 0 500 500"><defs><style>.cls-1{fill:#00b17c;}.cls-2{fill:#fff;}.cls-3{opacity:0.1;}</style></defs><title>Advantages 1</title><path class="cls-1" d="M494.35,250C494.35,62.56,433,5.65,250,5.65S5.65,62.56,5.65,250,67,494.35,250,494.35,494.35,437.44,494.35,250Z"/><path class="cls-2" d="M171.21,164.62a13.44,13.44,0,0,1,0-26.89h3.43v26.89Zm30.95,27.52h1.59a13.44,13.44,0,0,1,0,26.89h-1.59V192.14ZM171.21,219a13.37,13.37,0,0,1-13.36-13.36H130.33a40.92,40.92,0,0,0,40.88,40.87h3.43v6.82h27.52v-6.82h1.59a41,41,0,0,0,0-81.92h-1.59V137.73h1.59a13.37,13.37,0,0,1,13.36,13.36h27.52a40.92,40.92,0,0,0-40.87-40.88h-1.59v-6.82H174.64v6.82h-3.43a41,41,0,0,0,0,81.92h3.43V219Z"/><path class="cls-2" d="M141.39,289.92c7.46,9.7,24.62,21.64,40.29,26.86s50,.75,50,.75A111.59,111.59,0,0,0,216,292.16c-10.45-12.68,7.46-23.13,14.17-17.91s23.13,19.4,32.83,24.62,43.27,14.92,43.27,14.92v54.46s-95.5-6.71-118.62-14.18-53.72-40.29-64.16-52.22,10.44-21.64,17.9-11.94Z"/><path class="cls-2" d="M364.46,376.46A10.44,10.44,0,1,1,354,366a10.45,10.45,0,0,1,10.44,10.44Zm14.92-73.11H316.71v93.26h62.67V303.35Z"/><polygon class="cls-3" points="141.42 179.15 141.43 179.16 141.42 179.15 141.42 179.15 141.42 179.15"/><path class="cls-3" d="M157.85,151.09a13.46,13.46,0,0,0,13.36,13.53h3.43V137.73h-3.43a13.37,13.37,0,0,0-13.36,13.36Z"/><path class="cls-3" d="M203.75,110.21a41.1,41.1,0,0,1,5.62.4l-7.22-7.22v6.82Z"/><path class="cls-3" d="M217.11,205.67a13.46,13.46,0,0,0-13.36-13.53h-1.59V219h1.59a13.37,13.37,0,0,0,13.36-13.36Z"/><path class="cls-3" d="M174.64,212.37V192.14h-3.43a40.62,40.62,0,0,1-27.77-11l31.2,31.2Z"/><path class="cls-3" d="M379.38,396.61H316.71V303.35h62.67v93.26Zm39.53-88.12-186-186h0a40.73,40.73,0,0,1,11.75,28.64H217.11a13.37,13.37,0,0,0-13.36-13.36h-1.59v26.89h1.59a41,41,0,0,1,0,81.92h-1.59v6.82H174.64v-6.82h-3.43A40.73,40.73,0,0,1,142.82,235l83.12,83.12c3.53-.34,5.72-.63,5.72-.63A111.59,111.59,0,0,0,216,292.16c-10.45-12.68,7.46-23.13,14.17-17.91s23.13,19.4,32.83,24.62,43.27,14.92,43.27,14.92v54.46s-95.5-6.71-118.62-14.18c-14.86-4.79-32.78-20-46.48-33.51h0l171,171c95.16-9.36,146.66-43.93,168.76-121.07l-62.05-62.05Z"/><path class="cls-3" d="M171.21,219h0l-13.36-13.36A13.37,13.37,0,0,0,171.21,219Z"/><path class="cls-3" d="M354,386.91a10.44,10.44,0,1,0-10.44-10.45A10.45,10.45,0,0,0,354,386.91Z"/></svg>