<svg id="Capa_1" data-name="Capa 1" xmlns="http://www.w3.org/2000/svg" viewBox="0 0 512 512"><defs><style>.cls-1{fill:#00b17c;}</style></defs><title>Desktop </title><path class="cls-1" d="M376,451a44.93,44.93,0,0,1-42.24-30H178.24A44.93,44.93,0,0,1,136,451v30H376Z"/><path class="cls-1" d="M181,211h30v60H181Z"/><path class="cls-1" d="M301,151h30V271H301Z"/><path class="cls-1" d="M512,31H0V391H512ZM241,301H211v30H181V301H151V181h30V151h30v30h30Zm120,0H331v30H301V301H271V121h30V91h30v30h30Z"/></svg>