<svg xmlns="http://www.w3.org/2000/svg" viewBox="0 0 26.16 26.16"><defs><style>.cls-1{fill:#7cc144;}.cls-2{fill:#22723f;}</style></defs><title>Ресурс 1</title><g id="Слой_2" data-name="Слой 2"><g id="katman_1" data-name="katman 1"><circle class="cls-1" cx="9.17" cy="17" r="7.17"/><path class="cls-2" d="M26,.15A.49.49,0,0,0,25.66,0H13.08a.51.51,0,0,0-.51.51h0V2L7.73,3.27a.51.51,0,0,0-.36.62h0l2.51,9.37L7.71,15.44a1.54,1.54,0,0,0-1.27-.67H1.53A1.54,1.54,0,0,0,0,16.3H0v8.33a1.54,1.54,0,0,0,1.53,1.53H6.44A1.54,1.54,0,0,0,7.93,25l.61.53a2.57,2.57,0,0,0,1.69.63H25.65a.51.51,0,0,0,.51-.51V.51A.54.54,0,0,0,26,.15ZM7,24.63a.51.51,0,0,1-.51.51H1.53A.51.51,0,0,1,1,24.63H1V16.3a.51.51,0,0,1,.51-.51H3.47v5.89a.5.5,0,0,0,.6.4.51.51,0,0,0,.4-.4V15.79H6.41a.51.51,0,0,1,.51.51h0v8.33ZM8.49,4.12,12.58,3V4.92l-.4.09a.51.51,0,0,0-.36.62h0a1.39,1.39,0,0,1-1,1.69h0a.51.51,0,0,0-.36.62h0l2,7.38h-1l-.53-2.07a.51.51,0,0,0-.09-.18Zm4.09,3.14v4.32l-.93-3.45a2.38,2.38,0,0,0,.92-.86Zm7.34,17.88H10.18a1.54,1.54,0,0,1-1-.38L8,23.68v-7.1l2.21-2.2.4,1.58a.51.51,0,0,0,.5.38h10.1a.72.72,0,1,1,.17,1.43.49.49,0,0,1-.17,0H16a.51.51,0,1,0-.2,1,.67.67,0,0,0,.2,0h6.75a.72.72,0,1,1,.17,1.43.49.49,0,0,1-.17,0H16a.51.51,0,1,0-.2,1,.67.67,0,0,0,.2,0h5.65a.72.72,0,1,1,.17,1.43.49.49,0,0,1-.17,0H16a.51.51,0,1,0-.2,1,.67.67,0,0,0,.2,0h3.91a.72.72,0,0,1,.17,1.43.49.49,0,0,1-.17,0Zm5.23,0H21.5a1.7,1.7,0,0,0,0-1.43h.16a1.74,1.74,0,0,0,1.7-1.78,1.87,1.87,0,0,0-.18-.73,1.75,1.75,0,0,0,1.29-2.1,1.85,1.85,0,0,0-.29-.62V12a.5.5,0,0,0-.6-.4.51.51,0,0,0-.4.4v5.82h-.37A1.75,1.75,0,0,0,22,15.5a1.82,1.82,0,0,0-.83-.17h-.82a2.45,2.45,0,1,0-1.92,0H15.61V5.58a2.4,2.4,0,0,0,1.84-1.8h3.84a2.4,2.4,0,0,0,1.83,1.8V7.17a.5.5,0,0,0,.6.4.51.51,0,0,0,.4-.4v-2a.51.51,0,0,0-.51-.51,1.38,1.38,0,0,1-1.38-1.38.51.51,0,0,0-.51-.51H17a.51.51,0,0,0-.51.51h0A1.38,1.38,0,0,1,15.1,4.66a.51.51,0,0,0-.51.51h0V15.33h-1V1H25.18ZM19.37,14.5a1.42,1.42,0,1,1,1.42-1.42A1.43,1.43,0,0,1,19.37,14.5Z"/></g></g></svg>