<svg id="Ñëîé_1" data-name="Ñëîé 1" xmlns="http://www.w3.org/2000/svg" viewBox="0 0 500 500"><defs><style>.cls-1{fill:#00b17c;}.cls-2{opacity:0.1;}.cls-3{fill:#fff;}</style></defs><title>money 2</title><path class="cls-1" d="M495.7,250C495.7,61.52,434.06,4.3,250,4.3S4.3,61.52,4.3,250,65.94,495.7,250,495.7,495.7,438.47,495.7,250Z"/><path class="cls-2" d="M489.88,336.18,286.07,81.94l-83.54,2-40.29,6.88-13.76,57-3.93,166.09L278.77,495.17C411,490.22,472,448.65,489.88,336.18Z"/><path class="cls-3" d="M220.3,147a12.93,12.93,0,1,1,.25,0Zm-2.3,8.37a47,47,0,0,1,46.82,46.91,46.36,46.36,0,0,1-15,34.15,35.07,35.07,0,0,0-16.74-4.18,13.06,13.06,0,0,0-3.85.38A28.41,28.41,0,0,0,209.67,245a15.57,15.57,0,0,0-1.92,3.47,47,47,0,0,1,10.38-92.9Zm-32.26,46.36v1.92c0,1.92.38,2.3,2.3,2.3h2.68c2.68,0,2.3,0,3.47,2.3a13.89,13.89,0,0,0,12.3,10.21,12.55,12.55,0,0,0,12.3-7.28c1.55-2.68,2.68-6.15,4.18-8.83a15.57,15.57,0,0,1,1.92-3.47A4.6,4.6,0,0,1,233,200.1a10,10,0,0,1,.75,5.86,23.6,23.6,0,0,1-2.68,8.83c-.75,1.55-.75,1.92,1.17,2.68l4.6,1.17c1.92.38,2.68.38,3.47-1.55a31.84,31.84,0,0,0,2.09-8.24c.38-2.3.38-2.3,2.68-2.3h3.05a1.8,1.8,0,0,0,1.92-1.92V200a1.8,1.8,0,0,0-1.66-1.92h-4.44c-1.55,0-2.3-.38-2.3-1.92a14.94,14.94,0,0,0-5-7.66,14.14,14.14,0,0,0-21.51,4.6c-1.55,2.68-2.3,5.36-3.47,7.66a41.84,41.84,0,0,1-2.3,4.18,3.68,3.68,0,0,1-6.53-.75,6.53,6.53,0,0,1-.38-2.68,22.09,22.09,0,0,1,2.26-10c.75-1.55.38-1.92-1.17-2.68a22.85,22.85,0,0,0-5.36-1.55,1.59,1.59,0,0,0-2.3,1.17,37.66,37.66,0,0,0-1.92,6.15c-.38,2.68-.38,2.68-3.47,2.68C185.73,198.09,185.73,198.09,185.73,201.77ZM272.9,77.58H163.1A21.47,21.47,0,0,0,141.59,99s0,0,0,0V302.87A21.47,21.47,0,0,0,163,324.38h48.08l-1.92-16.74c0-.38-.38-1.17-.38-1.55H186.15a22.51,22.51,0,0,0,.38-8.83,21.63,21.63,0,0,0-17.28-17.66A18.75,18.75,0,0,0,160,280V120.55a13.06,13.06,0,0,0,3.85.38A21.47,21.47,0,0,0,185.4,99.51s0-.06,0-.08a13.06,13.06,0,0,0-.38-3.85h65.74a13.06,13.06,0,0,0-.38,3.85,21.47,21.47,0,0,0,21.3,21.51,11.84,11.84,0,0,0,3.85-.38V275.63h0v44.52c-7.66-5.36-15.73-22.64-15.73-22.64S255.61,252,232.56,252h-1.88s-17.66,1.55-3.05,51.8l6.9,55.28s7.28,30.34,27.24,51.05v6.15a6.07,6.07,0,0,0,6,6.15h65.4a6.19,6.19,0,0,0,6.15-5.36c2.3-23,13.31-110.47,17.16-115,0,0,7.32-19.88-6.4-32.76-3.6-3.35-44.15-48-55.28-54.11V98.67A21.72,21.72,0,0,0,272.9,77.58Z"/></svg>