<svg id="Ñëîé_1" data-name="Ñëîé 1" xmlns="http://www.w3.org/2000/svg" viewBox="0 0 500 500"><defs><style>.cls-1{fill:#064a5f;}.cls-2{fill:#fff;}.cls-3{fill:#04303a;}.cls-4{fill:#108485;}</style></defs><title>Dollar account</title><path class="cls-1" d="M495.45,250C495.45,61.72,433.87,4.55,250,4.55S4.55,61.72,4.55,250,66.13,495.45,250,495.45,495.45,438.28,495.45,250Z"/><path class="cls-2" d="M282,329.83h-5.83V277H282a26.4,26.4,0,0,1,0,52.8ZM222.08,223h-4a26.4,26.4,0,0,1,0-52.8h4V223ZM282,223h-5.83v-52.8H282a26.26,26.26,0,0,1,26.23,26.23h54A80.37,80.37,0,0,0,282,116.13h-5.83v-13.4h-54v13.4h-4a80.37,80.37,0,0,0-80.28,80.28c0,44.45,36,80.61,80.28,80.61h4v52.8h-4a26.26,26.26,0,0,1-26.23-26.23h-54A80.37,80.37,0,0,0,218,383.87h4v13.4h54v-13.4H282a80.37,80.37,0,0,0,80.28-80.28c0-44.45-36-80.61-80.28-80.61Z"/><path class="cls-3" d="M308.19,303.59A26.43,26.43,0,0,0,282,277h-5.83v52.8H282a26.26,26.26,0,0,0,26.23-26.23Z"/><path class="cls-3" d="M191.81,196.41A26.43,26.43,0,0,0,218,223h4v-52.8h-4a26.26,26.26,0,0,0-26.23,26.23Z"/><path class="cls-4" d="M282,116.13c2.69,0,5.34.14,8,.4l-13.8-13.8v13.4Z"/><path class="cls-3" d="M218,329.83h0l-26.23-26.23A26.26,26.26,0,0,0,218,329.83Z"/><path class="cls-3" d="M162.08,254.14l60,60V277h-4a79.82,79.82,0,0,1-56-22.9v0Z"/><path class="cls-3" d="M338.71,139.69h0a80,80,0,0,1,23.52,56.72h-54A26.26,26.26,0,0,0,282,170.17h-5.83V223H282c44.26,0,80.28,36.16,80.28,80.61A80.37,80.37,0,0,1,282,383.87h-5.83v13.4h-54v-13.4h-4a79.92,79.92,0,0,1-53-20v0L295.3,494.08c135-8.72,189.77-61.07,198.77-199L338.71,139.69Z"/></svg>