<svg id="Layer_1" data-name="Layer 1" xmlns="http://www.w3.org/2000/svg" viewBox="0 0 290.6 290.6"><defs><style>.cls-1{fill:#00b17c;}.cls-2{fill:#064a5f;}</style></defs><title>Pay credit card</title><path class="cls-1" d="M107.8,271.9H42.2v-4.7a18.84,18.84,0,0,0-18.8-18.8H18.7V121.9H131.2V248.5h-4.7a18.82,18.82,0,0,0-18.8,18.7l.1,4.7Z"/><path class="cls-2" d="M182.8,131.3a14.08,14.08,0,0,0,14.1-14.1V14.1A14.08,14.08,0,0,0,182.8,0H14.1A14.08,14.08,0,0,0,0,14.1V290.6H150V131.3Zm4.7-84.4H9.4V32.8H187.5ZM14.1,9.4H182.9a4.69,4.69,0,0,1,4.7,4.7v9.4H9.4V14.1A4.69,4.69,0,0,1,14.1,9.4ZM9.4,56.3H187.5v60.9a4.69,4.69,0,0,1-4.7,4.7H14.1a4.69,4.69,0,0,1-4.7-4.7V56.3Zm98.4,103.1a32.8,32.8,0,1,1-49.6-28.1H91.8A32.65,32.65,0,0,1,107.8,159.4Zm32.8,121.9H9.4V130.4a14.53,14.53,0,0,0,4.7.9H43.7a42.14,42.14,0,1,0,73.5,28.1,41.69,41.69,0,0,0-10.9-28.1h34.3v150Z"/><path class="cls-2" d="M140.6,112.5a18.5,18.5,0,0,0,9.4-2.6A18.73,18.73,0,1,0,159.4,75a19,19,0,0,0-9.4,2.6,18.5,18.5,0,0,0-9.4-2.6,18.75,18.75,0,1,0,0,37.5Zm28.2-18.7a9.4,9.4,0,1,1-9.4-9.4A9.39,9.39,0,0,1,168.8,93.8Zm-28.2-9.4a10,10,0,0,1,2.4.4,18.08,18.08,0,0,0,0,18,10,10,0,0,1-2.4.4,9.4,9.4,0,0,1,0-18.8Z"/><path class="cls-2" d="M225,159.4A65.6,65.6,0,1,0,290.6,225,65.64,65.64,0,0,0,225,159.4Zm0,121.9A56.3,56.3,0,1,1,281.3,225,56.36,56.36,0,0,1,225,281.3Z"/><path class="cls-2" d="M232,187.5h-2.3v-9.4h-9.4v9.4H218a21.1,21.1,0,0,0,0,42.2h14a11.7,11.7,0,0,1,0,23.4H218a11.71,11.71,0,0,1-11.7-11.7v-2.3h-9.4v2.3A21.17,21.17,0,0,0,218,262.5h2.3v9.4h9.4v-9.4H232a21.1,21.1,0,0,0,0-42.2H218a11.7,11.7,0,0,1,0-23.4h14a11.71,11.71,0,0,1,11.7,11.7v2.3h9.4v-2.3A21.1,21.1,0,0,0,232,187.5Z"/><polygon class="cls-2" points="220.3 23.4 220.3 121.9 229.7 121.9 229.7 23.4 235.3 30.9 242.8 25.3 225 1.6 207.2 25.3 214.7 30.9 220.3 23.4"/><rect class="cls-2" x="220.3" y="131.3" width="9.4" height="14.1"/><polygon class="cls-2" points="267.2 51.6 267.2 135.9 276.6 135.9 276.6 51.6 282.2 59.1 289.7 53.4 271.9 29.7 254.1 53.4 261.6 59.1 267.2 51.6"/><rect class="cls-2" x="267.2" y="145.3" width="9.4" height="14.1"/></svg>