<svg id="katman_1" data-name="katman 1" xmlns="http://www.w3.org/2000/svg" viewBox="0 0 54 42"><defs><style>.cls-1{fill:#e8edfc;}.cls-2{fill:#c1e5df;}.cls-3{fill:#79c6b9;}.cls-4{fill:#fff;}.cls-5{fill:#3db2a3;}</style></defs><title>posta</title><g id="Page-1"><g id="_092---Mail-Note" data-name="092---Mail-Note"><path id="Shape" class="cls-1" d="M50.7,4.1,31.9,21l-2.5,2.3a3.52,3.52,0,0,1-4.7,0l-1.3-1.2L22.1,21,3.3,4.1A5.54,5.54,0,0,1,6.9,2.6H47A6.13,6.13,0,0,1,50.7,4.1Z"/><path id="Shape-2" data-name="Shape" class="cls-2" d="M47.1,2.7H44.5a5.07,5.07,0,0,1,3.6,1.5L29.3,21l-2.5,2.3a2.07,2.07,0,0,1-1,.6,3.41,3.41,0,0,0,3.6-.6L31.9,21,50.7,4.1A5.43,5.43,0,0,0,47.1,2.7Z"/><path id="Shape-3" data-name="Shape" class="cls-2" d="M52.3,7.9V34.1a5.46,5.46,0,0,1-1.6,3.8L31.9,21,50.7,4.1A5.46,5.46,0,0,1,52.3,7.9Z"/><path id="Shape-4" data-name="Shape" class="cls-3" d="M50.7,4.1,49.1,5.5a4.75,4.75,0,0,1,.6,2.4V34.1a5.33,5.33,0,0,1-.6,2.4l1.6,1.4a5.29,5.29,0,0,0,1.6-3.8V7.9A5.46,5.46,0,0,0,50.7,4.1Z"/><path id="Shape-5" data-name="Shape" class="cls-1" d="M50.7,37.9a5.54,5.54,0,0,1-3.6,1.5H6.9a5.08,5.08,0,0,1-3.6-1.5L22.1,21l1.2,1.1,1.3,1.2a3.52,3.52,0,0,0,4.7,0L31.8,21Z"/><path id="Shape-6" data-name="Shape" class="cls-2" d="M31.9,21l-1.3,1.2L48.1,37.9a5.54,5.54,0,0,1-3.6,1.5h2.6a5.07,5.07,0,0,0,3.6-1.5Z"/><path id="Shape-7" data-name="Shape" class="cls-2" d="M22.1,21,3.3,37.9a5.29,5.29,0,0,1-1.6-3.8V7.9A5.46,5.46,0,0,1,3.3,4.1Z"/><path id="Shape-8" data-name="Shape" class="cls-4" d="M6.9,39.3H9.5a5.16,5.16,0,0,1-5.2-5.2V7.9A5.16,5.16,0,0,1,9.5,2.7H6.9A5.23,5.23,0,0,0,1.7,7.9V34.1A5.23,5.23,0,0,0,6.9,39.3Z"/><path id="Rectangle-path" class="cls-4" d="M.8,27.1H2.5v7H.8Z"/><circle id="Oval" class="cls-5" cx="1.7" cy="30.6" r="0.9"/><path id="Shape-9" data-name="Shape" class="cls-5" d="M20.9,1.8H6.9A6.06,6.06,0,0,0,.8,7.9V27.1a.9.9,0,0,0,1.8,0V7.9a4.38,4.38,0,0,1,.8-2.5L18,18.5a1,1,0,0,0,.9.2.88.88,0,0,0,.6-.7.67.67,0,0,0-.3-.8L4.7,4.2a4.28,4.28,0,0,1,2.2-.6h14a.9.9,0,0,0,0-1.8Z"/><path id="Shape-10" data-name="Shape" class="cls-5" d="M47.1,1.8h-22a.9.9,0,0,0,0,1.8H47a4,4,0,0,1,2.2.6L28.7,22.6a2.61,2.61,0,0,1-3.5,0l-2.5-2.3a.91.91,0,0,0-1.2,0L3.4,36.6a4.38,4.38,0,0,1-.8-2.5.9.9,0,1,0-1.8,0,6.06,6.06,0,0,0,6.1,6.1H47a6.06,6.06,0,0,0,6.1-6.1V7.9a6,6,0,0,0-6-6.1Zm4.3,32.3a4.38,4.38,0,0,1-.8,2.5L33.2,21,50.6,5.4a4.38,4.38,0,0,1,.8,2.5ZM6.9,38.4a4,4,0,0,1-2.2-.6L22.1,22.2l2,1.8a4.3,4.3,0,0,0,5.8,0l2-1.8L49.3,37.8a4.56,4.56,0,0,1-2.2.6Z"/></g></g></svg>