<svg id="Ñëîé_1" data-name="Ñëîé 1" xmlns="http://www.w3.org/2000/svg" viewBox="0 0 500 500"><defs><style>.cls-1{fill:#064a5f;}.cls-2{fill:#04303a;}.cls-3{fill:#fff;}</style></defs><title>Pound account</title><path class="cls-1" d="M495.45,250C495.45,61.72,433.87,4.55,250,4.55S4.55,61.72,4.55,250,66.13,495.45,250,495.45,495.45,438.28,495.45,250Z"/><path class="cls-2" d="M495.45,250c0-6.51-.08-12.85-.23-19.05L314.45,115.09l-79,10-40,78,4,82-1,67-37,45-3.17.11,120.13,97.74C440.25,489,495.45,428.22,495.45,250Z"/><path class="cls-3" d="M358.19,344.67v52.53H158.27l-9.41-32.93q18.42-16.46,27-34.89t8.62-45.47v-.78H141.81V238h31.75q-7.45-26.65-7.45-49,0-26.65,12-46.25A76.65,76.65,0,0,1,211.59,113q21.55-10.19,49.39-10.19,45.47,0,69.77,24.7t25.87,64.29H295.08q-.79-15.67-8.62-24.89t-23.91-9.21q-15.68,0-24.3,9.6t-8.62,28.42a82.18,82.18,0,0,0,2.16,18.42q2.15,9.41,6.47,23.91h70.95v45.08H248v1.18a89.1,89.1,0,0,1-6.27,31.75,73.91,73.91,0,0,1-19.6,28.62Z"/></svg>