<svg id="Capa_1" data-name="Capa 1" xmlns="http://www.w3.org/2000/svg" viewBox="0 0 512 512"><defs><style>.cls-1{fill:#7bc144;}.cls-1,.cls-2{isolation:isolate;}.cls-3{fill:#00703d;}.cls-4{fill:#fff;}</style></defs><title>gbp</title><circle class="cls-1" cx="256" cy="256" r="252.84"/><circle class="cls-1" cx="255.94" cy="256" r="185.71"/><g class="cls-2"><path class="cls-3" d="M256,2.67C116.31,2.67,2.67,116.31,2.67,256A253.92,253.92,0,0,0,59,415.25,10.13,10.13,0,1,0,74.72,402.5,233.59,233.59,0,0,1,22.93,256C22.93,127.49,127.49,22.93,256,22.93S489.07,127.49,489.07,256,384.51,489.07,256,489.07a233.59,233.59,0,0,1-146.5-51.79A10.13,10.13,0,0,0,96.76,453,253.92,253.92,0,0,0,256,509.33c139.69,0,253.33-113.64,253.33-253.33S395.69,2.67,256,2.67Z"/></g><g class="cls-2"><path class="cls-3" d="M398.9,137.27a10.13,10.13,0,1,0-15.58,13A165.71,165.71,0,0,1,421.51,256c0,91.26-74.25,165.51-165.51,165.51S90.49,347.26,90.49,256,164.74,90.49,256,90.49a164.93,164.93,0,0,1,89.11,26A10.13,10.13,0,0,0,356,99.44,185.17,185.17,0,0,0,256,70.22C153.56,70.22,70.22,153.56,70.22,256S153.56,441.78,256,441.78,441.78,358.44,441.78,256A186,186,0,0,0,398.9,137.27Z"/></g><path class="cls-4" d="M236.45,316.39h88.62v26.76H178.76V316.39h25.78v-49.1H178.76V247.16h25.78V235.87q0-20.37,9-35.47t26.14-23.32q17.18-8.22,41.24-8.22,29.21,0,48.36,11.54l-10.06,26q-15-9.57-40-9.57-20.87,0-31.79,9.94t-10.92,28.84v11.54h62.11v20.13H236.45Z"/></svg>