<svg id="Ñëîé_1" data-name="Ñëîé 1" xmlns="http://www.w3.org/2000/svg" viewBox="0 0 500 500"><defs><style>.cls-1,.cls-3{fill:#fff;}.cls-1{opacity:0.6;}.cls-2{opacity:0.1;}</style></defs><title>Profile (on header)</title><path class="cls-1" d="M490.45,250C490.45,65.55,430.12,9.55,250,9.55S9.55,65.55,9.55,250,69.88,490.45,250,490.45s240.45-56,240.45-240.45Z"/><path class="cls-2" d="M484.7,334.67,307.41,143.18c-87.2,20.52,57.07,46-22.6,46-39.35,0-66.36,21.32-96.5,53.7L305.77,358.31c-5.54,21.23-26-31.31-90.21-31.31-39.35,0-66.36,21.32-96.5,53.7l108.5,109.42c7.27.21,14.74.32,22.44.32C398.92,490.45,465.94,452.16,484.7,334.67Z"/><path class="cls-3" d="M250,272.09a77.31,77.31,0,1,0-77.31-77.31A77.4,77.4,0,0,0,250,272.09Zm55.22,11H194.78a77.4,77.4,0,0,0-77.31,77.31V377a5.52,5.52,0,0,0,5.52,5.52H377a5.52,5.52,0,0,0,5.52-5.52V360.45A77.4,77.4,0,0,0,305.22,283.13Z"/></svg>