<svg id="Layer_1" data-name="Layer 1" xmlns="http://www.w3.org/2000/svg" viewBox="0 0 290.6 290.6"><defs><style>.cls-1{fill:#00b17c;}.cls-2{fill:#064a5f;}</style></defs><title>QR code</title><rect class="cls-1" x="18.8" y="18.8" width="46.9" height="46.9"/><rect class="cls-1" x="225" y="18.8" width="46.9" height="46.9"/><rect class="cls-1" x="18.8" y="225" width="46.9" height="46.9"/><path class="cls-2" d="M0,0V290.6H290.6V0ZM281.3,281.3H9.4V9.4H281.3Z"/><rect class="cls-2" x="37.5" y="37.5" width="9.4" height="9.4"/><rect class="cls-2" x="243.8" y="37.5" width="9.4" height="9.4"/><rect class="cls-2" x="37.5" y="243.8" width="9.4" height="9.4"/><polygon class="cls-2" points="37.5 103.1 56.3 103.1 56.3 93.8 37.5 93.8 37.5 84.4 84.4 84.4 84.4 103.1 93.8 103.1 93.8 84.4 159.4 84.4 159.4 103.1 168.8 103.1 168.8 84.4 196.9 84.4 196.9 75 18.8 75 18.8 84.4 28.1 84.4 28.1 112.5 37.5 112.5 37.5 103.1"/><rect class="cls-2" x="18.8" y="112.5" width="9.4" height="103.1"/><rect class="cls-2" x="37.5" y="206.3" width="9.4" height="9.4"/><polygon class="cls-2" points="56.3 215.6 103.1 215.6 103.1 234.4 112.5 234.4 112.5 215.6 150 215.6 150 206.3 121.9 206.3 121.9 187.5 112.5 187.5 112.5 206.3 56.3 206.3 56.3 215.6"/><polygon class="cls-2" points="37.5 196.9 46.9 196.9 46.9 150 65.6 150 65.6 140.6 46.9 140.6 46.9 121.9 37.5 121.9 37.5 196.9"/><rect class="cls-2" x="46.9" y="112.5" width="9.4" height="9.4"/><rect class="cls-2" x="56.3" y="103.1" width="9.4" height="9.4"/><rect class="cls-2" x="65.6" y="93.8" width="9.4" height="9.4"/><polygon class="cls-2" points="84.4 37.5 112.5 37.5 112.5 28.1 84.4 28.1 84.4 18.8 75 18.8 75 65.6 84.4 65.6 84.4 37.5"/><rect class="cls-2" x="93.8" y="46.9" width="9.4" height="9.4"/><rect class="cls-2" x="103.1" y="56.3" width="9.4" height="9.4"/><rect class="cls-2" x="112.5" y="37.5" width="9.4" height="9.4"/><rect class="cls-2" x="121.9" y="28.1" width="9.4" height="9.4"/><rect class="cls-2" x="131.3" y="18.8" width="9.4" height="9.4"/><rect class="cls-2" x="187.5" y="18.8" width="28.1" height="9.4"/><rect class="cls-2" x="206.3" y="37.5" width="9.4" height="28.1"/><rect class="cls-2" x="178.1" y="37.5" width="18.8" height="9.4"/><rect class="cls-2" x="187.5" y="56.3" width="9.4" height="9.4"/><rect class="cls-2" x="168.8" y="56.3" width="9.4" height="9.4"/><polygon class="cls-2" points="168.8 56.3 168.8 46.9 150 46.9 150 37.5 140.6 37.5 140.6 46.9 121.9 46.9 121.9 56.3 168.8 56.3"/><polygon class="cls-2" points="159.4 37.5 168.8 37.5 168.8 28.1 178.1 28.1 178.1 18.8 150 18.8 150 28.1 159.4 28.1 159.4 37.5"/><rect class="cls-2" x="75" y="112.5" width="18.8" height="9.4"/><rect class="cls-2" x="103.1" y="103.1" width="18.8" height="9.4"/><rect class="cls-2" x="121.9" y="93.8" width="28.1" height="9.4"/><rect class="cls-2" x="178.1" y="93.8" width="46.9" height="9.4"/><rect class="cls-2" x="215.6" y="75" width="9.4" height="9.4"/><rect class="cls-2" x="234.4" y="75" width="37.5" height="9.4"/><rect class="cls-2" x="262.5" y="93.8" width="9.4" height="28.1"/><rect class="cls-2" x="253.1" y="121.9" width="9.4" height="18.8"/><rect class="cls-2" x="262.5" y="140.6" width="9.4" height="28.1"/><rect class="cls-2" x="262.5" y="178.1" width="9.4" height="18.8"/><polygon class="cls-2" points="234.4 178.1 253.1 178.1 253.1 173.4 253.1 168.8 253.1 159.4 243.8 159.4 243.8 168.8 234.4 168.8 234.4 178.1"/><rect class="cls-2" x="243.8" y="187.5" width="9.4" height="18.8"/><polygon class="cls-2" points="253.1 206.3 253.1 215.6 234.4 215.6 234.4 225 253.1 225 262.5 225 262.5 206.3 253.1 206.3"/><polygon class="cls-2" points="253.1 271.9 262.5 271.9 262.5 262.5 271.9 262.5 271.9 253.1 262.5 253.1 262.5 234.4 253.1 234.4 253.1 271.9"/><rect class="cls-2" x="262.5" y="225" width="9.4" height="9.4"/><rect class="cls-2" x="215.6" y="262.5" width="28.1" height="9.4"/><rect class="cls-2" x="215.6" y="243.8" width="28.1" height="9.4"/><rect class="cls-2" x="196.9" y="253.1" width="18.8" height="9.4"/><rect class="cls-2" x="75" y="225" width="9.4" height="37.5"/><rect class="cls-2" x="56.3" y="187.5" width="18.8" height="9.4"/><rect class="cls-2" x="84.4" y="187.5" width="18.8" height="9.4"/><rect class="cls-2" x="56.3" y="159.4" width="9.4" height="18.8"/><rect class="cls-2" x="65.6" y="121.9" width="9.4" height="18.8"/><rect class="cls-2" x="84.4" y="131.3" width="37.5" height="9.4"/><rect class="cls-2" x="75" y="150" width="18.8" height="9.4"/><rect class="cls-2" x="103.1" y="150" width="28.1" height="9.4"/><rect class="cls-2" x="93.8" y="159.4" width="9.4" height="18.8"/><rect class="cls-2" x="112.5" y="168.8" width="18.8" height="9.4"/><polygon class="cls-2" points="150 112.5 140.6 112.5 140.6 178.1 150 178.1 150 140.6 178.1 140.6 178.1 131.3 150 131.3 150 112.5"/><rect class="cls-2" x="121.9" y="121.9" width="9.4" height="9.4"/><polygon class="cls-2" points="159.4 112.5 159.4 121.9 253.1 121.9 253.1 112.5 243.8 112.5 243.8 93.8 234.4 93.8 234.4 112.5 159.4 112.5"/><rect class="cls-2" x="159.4" y="150" width="9.4" height="37.5"/><rect class="cls-2" x="150" y="196.9" width="28.1" height="9.4"/><polygon class="cls-2" points="178.1 187.5 225 187.5 225 178.1 215.6 178.1 215.6 159.4 234.4 159.4 234.4 150 206.3 150 206.3 154.7 206.3 159.4 206.3 178.1 178.1 178.1 178.1 187.5"/><rect class="cls-2" x="187.5" y="140.6" width="9.4" height="28.1"/><rect class="cls-2" x="196.9" y="131.3" width="28.1" height="9.4"/><rect class="cls-2" x="187.5" y="201.6" width="9.4" height="42.2"/><rect class="cls-2" x="206.3" y="225" width="28.1" height="9.4"/><rect class="cls-2" x="215.6" y="196.9" width="9.4" height="18.8"/><polygon class="cls-2" points="178.1 215.6 168.8 215.6 168.8 262.5 159.4 262.5 159.4 243.8 150 243.8 150 262.5 84.4 262.5 84.4 271.9 196.9 271.9 196.9 262.5 178.1 262.5 178.1 215.6"/><rect class="cls-2" x="93.8" y="243.8" width="28.1" height="9.4"/><rect class="cls-2" x="121.9" y="234.4" width="18.8" height="9.4"/><rect class="cls-2" x="140.6" y="225" width="9.4" height="9.4"/></svg>