<svg id="Ñëîé_1" data-name="Ñëîé 1" xmlns="http://www.w3.org/2000/svg" viewBox="0 0 500 500"><defs><style>.cls-1{fill:#064a5f;}.cls-2{fill:#04303a;}.cls-3{fill:#fff;}</style></defs><title>Secure click</title><path class="cls-1" d="M496,250C496,61.29,434.28,4,250,4S4,61.29,4,250,65.72,496,250,496s246-57.29,246-246Z"/><path class="cls-2" d="M305.23,493.92C445.42,482.28,495,419.67,496,255L382.51,131.59,268.7,178.17,160.46,354Z"/><path class="cls-3" d="M385.91,137.32a10.23,10.23,0,0,0-7.39-8.45l-125.78-35a10.22,10.22,0,0,0-5.48,0l-125.78,35a10.23,10.23,0,0,0-7.39,8.45c-.73,5.25-17.37,129.2,25.32,190.86s105.54,77.37,108.2,78a10.26,10.26,0,0,0,4.8,0c2.66-.64,65.56-16.43,108.2-78S386.64,142.57,385.91,137.32Z"/><g id="Page-1"><g id="_023---Pointer" data-name="023---Pointer"><path id="Shape" class="cls-1" d="M358,188.15H344.59a3.36,3.36,0,0,0,0,6.71H358a3.36,3.36,0,1,0,0-6.71Z"/><path id="Shape-2" data-name="Shape" class="cls-1" d="M270.77,188.15a3.36,3.36,0,1,0,0,6.71H284.2a3.36,3.36,0,0,0,0-6.71Z"/><path id="Shape-3" data-name="Shape" class="cls-1" d="M338.12,210.49a3.36,3.36,0,0,0-4.74,4.74l9.49,9.49a3.36,3.36,0,1,0,4.75-4.75Z"/><path id="Shape-4" data-name="Shape" class="cls-1" d="M293,173.51a3.36,3.36,0,0,0,2.37-5.73l-9.49-9.49a3.36,3.36,0,1,0-4.75,4.75l9.49,9.49A3.36,3.36,0,0,0,293,173.51Z"/><path id="Shape-5" data-name="Shape" class="cls-1" d="M314.39,218.35a3.36,3.36,0,0,0-3.36,3.36v13.42a3.36,3.36,0,0,0,6.71,0V221.71A3.36,3.36,0,0,0,314.39,218.35Z"/><path id="Shape-6" data-name="Shape" class="cls-1" d="M311,147.89v13.42a3.36,3.36,0,1,0,6.71,0V147.89a3.36,3.36,0,1,0-6.71,0Z"/><path id="Shape-7" data-name="Shape" class="cls-1" d="M347.61,158.29a3.36,3.36,0,0,0-4.74,0l-9.49,9.49a3.36,3.36,0,1,0,4.74,4.74l9.49-9.49a3.36,3.36,0,0,0,0-4.75Z"/><path id="Shape-8" data-name="Shape" class="cls-1" d="M303.91,191.51a3.36,3.36,0,0,0,4.07-2.45,10.07,10.07,0,1,1,12.21,12.21,3.36,3.36,0,1,0,1.62,6.51,16.78,16.78,0,1,0-20.35-20.35,3.36,3.36,0,0,0,2.45,4.07Z"/><path id="Shape-9" data-name="Shape" class="cls-1" d="M188.07,336.77a3.36,3.36,0,0,0,4.74,0L235,294.54a6.71,6.71,0,0,1,10.15.78L253.72,307l7.3,10a3.36,3.36,0,0,0,5.91-1L299.11,211a3.36,3.36,0,0,0-4.18-4.19L190,239a3.36,3.36,0,0,0-1,5.92l21.6,15.83a6.71,6.71,0,0,1,.78,10.15L169.14,313.1a3.36,3.36,0,0,0,0,4.74Zm51.53-106,5.81-1.78a3.36,3.36,0,0,1,2,6.42l-5.81,1.78a3.36,3.36,0,1,1-2-6.42Zm-32.88,17.11a3.36,3.36,0,1,1-2-6.42l18.07-5.55a3.36,3.36,0,1,1,2,6.42Z"/></g></g></svg>