<svg id="katman_1" data-name="katman 1" xmlns="http://www.w3.org/2000/svg" viewBox="0 0 60 75"><defs><style>.cls-1{fill:#7bc144;}</style></defs><title>mobile</title><path class="cls-1" d="M43,5H17a3,3,0,0,0-3,3V52a3,3,0,0,0,3,3H43a3,3,0,0,0,3-3V8A3,3,0,0,0,43,5ZM37.73,9.27a1,1,0,0,1,1.41,0l.13.15.09.18.06.18a1.5,1.5,0,0,1,0,.2,1.35,1.35,0,0,1,0,.2l-.06.18-.09.17a1,1,0,0,1-.83.45A1,1,0,0,1,38,10.9a1,1,0,0,1-.32-.21,1,1,0,0,1-.13-.16l-.09-.17-.06-.18a1.34,1.34,0,0,1,0-.2A1,1,0,0,1,37.73,9.27ZM25.74,9h8.52a1,1,0,1,1,0,2H25.74a1,1,0,0,1,0-2ZM30,50.7a2,2,0,1,1,2-2A2,2,0,0,1,30,50.7Zm0-9.64a11.06,11.06,0,0,1,0-22.12,1,1,0,0,1,1,1V29h9.06a1,1,0,0,1,1,1A11.08,11.08,0,0,1,30,41.06ZM40.06,26.74h-5.8a1,1,0,0,1-1-1v-5.8a1,1,0,0,1,1-1,6.81,6.81,0,0,1,6.8,6.8A1,1,0,0,1,40.06,26.74Z"/></svg>