<svg id="Capa_1" data-name="Capa 1" xmlns="http://www.w3.org/2000/svg" viewBox="0 0 512 512"><defs><style>.cls-1{fill:#00b17c;}</style></defs><title>Web Trader</title><path class="cls-1" d="M379.3,227.54a60,60,0,0,1-52.8-44.63H271V329.09H373.79A415.14,415.14,0,0,0,379.3,227.54Z"/><path class="cls-1" d="M384.47,138a29.87,29.87,0,1,0,29.87,29.87A29.9,29.9,0,0,0,384.47,138Z"/><circle class="cls-1" cx="126.09" cy="345.08" r="45.11"/><path class="cls-1" d="M241,0c-34.24,23.53-62.08,63.2-81.3,109.13a339.13,339.13,0,0,0-14.79,43.78H241Z"/><path class="cls-1" d="M132,270.22a75.25,75.25,0,0,1,67.5,58.88H241V182.91H138.24A414.69,414.69,0,0,0,132,270.22Z"/><path class="cls-1" d="M241,512V359.09H199.87a75.31,75.31,0,0,1-37,51.43C181.62,453.25,207.8,489.61,241,512Z"/><path class="cls-1" d="M271,512c35.89-24.64,64.65-66.52,83.93-115.61a343.85,343.85,0,0,0,12.19-37.29H271Z"/><path class="cls-1" d="M382.85,407.35c-14.9,37.92-35.07,70.15-59.62,95.71a256.59,256.59,0,0,0,167.14-144H398.06a377.2,377.2,0,0,1-15.2,48.26Z"/><path class="cls-1" d="M126.09,420.19a75.22,75.22,0,0,1-73.78-61.1H21.63A256.61,256.61,0,0,0,187.9,502.82Q155.24,469,134.18,419.75a75.53,75.53,0,0,1-8.09.44Z"/><path class="cls-1" d="M409,222.49a446.64,446.64,0,0,1-4.8,106.61h97.17a257.15,257.15,0,0,0,0-146.19h-59A60.12,60.12,0,0,1,409,222.49Z"/><path class="cls-1" d="M102.09,273.92a446.14,446.14,0,0,1,5.72-91H10.61a257.15,257.15,0,0,0,0,146.19h42.1A75.37,75.37,0,0,1,102.09,273.92Z"/><path class="cls-1" d="M384.16,108h.31a60,60,0,0,1,58,44.87h47.94a256.59,256.59,0,0,0-167.16-144A251.44,251.44,0,0,1,339.8,28.07c18,23,32.88,49.84,44.35,80Z"/><path class="cls-1" d="M271,0V152.91h55.5A60.11,60.11,0,0,1,355,115.82C340.2,78,314.57,29.77,271,0Z"/><path class="cls-1" d="M132,97.55C146.6,62.72,165.79,32.88,188.8,8.93a256.6,256.6,0,0,0-167.17,144H114A372.73,372.73,0,0,1,132,97.55Z"/></svg>