<svg id="Ñëîé_1" data-name="Ñëîé 1" xmlns="http://www.w3.org/2000/svg" viewBox="0 0 500 500"><defs><style>.cls-1{fill:#00b17c;}.cls-2{opacity:0.1;}.cls-3{fill:#fff;}</style></defs><title>money</title><path class="cls-1" d="M489.87,250C489.87,66,429.69,10.13,250,10.13S10.13,66,10.13,250,70.31,489.87,250,489.87,489.87,434,489.87,250Z"/><path class="cls-2" d="M488.46,295,338.81,123.62l-138,29.48L100,253.84,113.47,368l33,42.58L135.53,416l53.54,71.21c18.58,1.82,38.85,2.67,60.93,2.67C414.11,489.87,478.52,443.25,488.46,295Z"/><path class="cls-3" d="M119.63,375.2c-28.42-42.68-51.62-87-37.52-140.8,8-30.36,27.83-52.37,52.53-70.51a252.06,252.06,0,0,1,71.91-36.44c7.59-2.48,9-6.14,7.1-13.35-2.75-10-4.63-20.13-7.27-31.86l132.41,41.39L236.54,217.38c-2.69-11.84-5.38-22.12-7.32-32.29-.86-4.25-2.15-5.38-6.51-3.66-31.33,11.3-60.88,25.94-83.05,52.32a89.62,89.62,0,0,0-21.53,74.44C122.22,330.41,120.12,352.64,119.63,375.2Z"/><path class="cls-3" d="M406,313.94V290.15c0-6.08-.7-11.73-8.18-13.13a4.09,4.09,0,0,1-3.62-4.51v-.12c.43-9-2.8-13-12.76-13.46A20.94,20.94,0,0,1,364,244.46c-1.94-4.9-3.93-6.51-9.37-5.71-50.22,7.32-100.44,14.37-150.71,21.53-6.62.92-12.81,1.45-11.9,10.76.38,3.88-3.07,4.09-8.67,4.63-8.61.81-13.51,1.08-24.49,1.29-9.1,0-10.12-8.5-10.76-15.12s.54-12.11,8.4-13.29c18.84-2.8,37.68-5.38,56.62-8.29q88-12.27,176.33-24.71c12.54-1.78,15.56,0,17.28,12.49q7.16,50.76,14.53,101.51a60,60,0,0,1,.86,10.76c0,5-5.38,6.62-10.23,6.24-5.87-.48-5.38-5.65-5.76-8.67C405.76,329.82,406,321.86,406,313.94Z"/><path class="cls-3" d="M318.89,276.21c-10-1.51-19.05,3.55-27.18-3.5a5.38,5.38,0,0,0-6.89.38c-6.67,6.51-13.83,1.24-22.5,3.66C278.25,257.37,303.44,257.43,318.89,276.21Z"/><path class="cls-3" d="M394.57,299c0-9.63-3.5-13.51-13.35-13.51q-116.75.32-233.49,0c-10.33,0-14,3.88-13.94,14,.38,34.61,0,69.16,0,103.77,0,12.7,1.72,14.48,14.32,14.48H380.68c10.44,0,14-4,13.89-14.1Q394.14,351.41,394.57,299Zm-30.84,76.43c-7.7,1.18-12.7,9.31-14.16,17.65-.92,5.38-3.39,6.78-8.61,6.73q-77.35-.27-154.75,0c-4.63,0-8,0-9-6.3A24.22,24.22,0,0,0,157.47,373c-4.63-1.13-5.76-3-5.38-7.27a152.7,152.7,0,0,0,0-16.15c-.75-10.71-1.67-21.48,13.08-24.17A16.15,16.15,0,0,0,176.36,312c1.18-8.18,5.76-8.29,12.06-8.24H339.88c6,0,8.93,1.4,10.76,7.54a23.25,23.25,0,0,0,19.7,17.76c5.38.86,6.51,2.91,6.3,7.64-.32,5.76,0,11.52,0,17.33C376.48,363.35,379.28,373.58,363.73,375.41Z"/><path class="cls-3" d="M253.66,342.74c0,2.31,1.45,4.14,4.58,5.38l1.4.48V337C256.24,337.46,253.66,339.4,253.66,342.74Z"/><path class="cls-3" d="M264.42,355.07h-1v12.33c3.93-.32,6.62-2.53,6.62-6.14S268.83,356.52,264.42,355.07Z"/><path class="cls-3" d="M261,315.29a36.87,36.87,0,0,0-37.4,36.33q0,.19,0,.38a37.11,37.11,0,1,0,37.62-36.71Zm2.42,56.84v3.66h-4.09v-3.66c-8.61-.65-12.43-5.76-12.49-11.14h5.81a6.94,6.94,0,0,0,6.89,6.24V354.15l-2.26-.59a10.76,10.76,0,0,1-9.42-10.39c0-6.73,5.11-10.33,11.63-10.76v-4.25h3.93v3.77a11.63,11.63,0,0,1,11.68,10.76h-5.38a6.41,6.41,0,0,0-6.3-5.65v12.65l2.31.54c6,1.45,10.07,4.31,10.07,10.76S270.83,371.48,263.45,372.13Z"/></svg>