<svg id="katman_1" data-name="katman 1" xmlns="http://www.w3.org/2000/svg" viewBox="0 0 64 80"><defs><style>.cls-1{fill:#00703d;}</style></defs><title>webtrader</title><rect class="cls-1" x="25" y="32" width="2" height="6"/><rect class="cls-1" x="17" y="26" width="2" height="6"/><rect class="cls-1" x="34" y="22" width="2" height="6"/><path class="cls-1" d="M28.58,49h6.84a.58.58,0,0,0,.58-.58V47H28v1.42A.58.58,0,0,0,28.58,49Z"/><path class="cls-1" d="M27,45H37a1,1,0,0,1,1,1H57V15.24a.23.23,0,0,0-.22-.24H7.24a.23.23,0,0,0-.24.22s0,0,0,0V46H26A1,1,0,0,1,27,45Zm-2-3V40H24a1,1,0,0,1-1-1V34l-2-1.5V33a1,1,0,0,1-1,1H19v2a1,1,0,0,1-2,0V34H16a1,1,0,0,1-.71-.3l-2.53,3a1,1,0,0,1-1.52-1.3L15,31V25a1,1,0,0,1,1-1h1V22a1,1,0,0,1,2,0v2h1a1,1,0,0,1,1,1v5l2,1.5V31a1,1,0,0,1,1-1h1V28a1,1,0,0,1,2,0v2h1a1,1,0,0,1,.79.41L32,26.84V21a1,1,0,0,1,1-1h1V18a1,1,0,0,1,2,0v2h1a1,1,0,0,1,1,1v4l5,1.81V25a1,1,0,0,1,1-1h1V22a1,1,0,0,1,2,0v2h1a1,1,0,0,1,1,1v.8l2.44-1.63a1,1,0,0,1,1.17,1.63l-.06,0L49,28.2V33a1,1,0,0,1-1,1H47v2a1,1,0,0,1-2,0V34H44a1,1,0,0,1-1-1V29l-5-1.81V29a1,1,0,0,1-1,1H36v2a1,1,0,0,1-2,0V30H33a1,1,0,0,1-.79-.41L29,33.16V39a1,1,0,0,1-1,1H27v2a1,1,0,0,1-2,0Z"/><path class="cls-1" d="M58,48H38v.42A2.59,2.59,0,0,1,35.42,51H28.58A2.59,2.59,0,0,1,26,48.42V48H4v3.27A1.73,1.73,0,0,0,5.73,53H58.27A1.73,1.73,0,0,0,60,51.27V48Z"/><rect class="cls-1" x="45" y="26" width="2" height="6"/></svg>