<svg id="Capa_1" data-name="Capa 1" xmlns="http://www.w3.org/2000/svg" viewBox="0 0 512 512"><defs><style>.cls-1{fill:#fff;}.cls-2{fill:none;stroke:#fff;stroke-miterlimit:10;stroke-width:35px;}.cls-3{fill:#4cc14c;}</style></defs><title>whatsapp</title><rect class="cls-1" x="111" y="128" width="278" height="265"/><path class="cls-2" d="M256,56H256C145.67,56,56,145.7,56,256A198.52,198.52,0,0,0,94.08,373.22l-24.92,74.3L146,423a198.27,198.27,0,0,0,110,33c110.28,0,200-89.72,200-200S366.33,56,256,56Z"/><path class="cls-3" d="M256,56H256C145.67,56,56,145.7,56,256A198.52,198.52,0,0,0,94.08,373.22l-24.92,74.3L146,423a198.27,198.27,0,0,0,110,33c110.28,0,200-89.72,200-200S366.33,56,256,56ZM372.42,338.42c-4.82,13.63-24,24.92-39.25,28.22-10.45,2.23-24.1,4-70-15-58.77-24.35-96.62-84.07-99.58-88S139.8,232,139.8,203.33s14.58-42.67,20.45-48.68c4.83-4.92,12.8-7.17,20.45-7.17,2.47,0,4.7.13,6.7.23,5.88.25,8.83.6,12.7,9.88,4.82,11.63,16.57,40.32,18,43.27s2.85,7,.85,10.83-3.52,5.78-6.47,9.17-5.75,6-8.7,9.65c-2.7,3.17-5.75,6.58-2.35,12.45s15.15,24.92,32.45,40.33c22.32,19.88,40.42,26.22,46.9,28.92,4.83,2,10.58,1.52,14.1-2.22,4.47-4.83,10-12.83,15.63-20.7,4-5.65,9-6.35,14.35-4.35s34,16,39.85,18.93,9.75,4.35,11.18,6.82S377.25,324.78,372.42,338.42Z"/></svg>