<svg xmlns="http://www.w3.org/2000/svg" viewBox="0 0 306.5 64.02"><defs><style>.cls-1{fill:#f7931a;}.cls-2{fill:#fff;}.cls-3{fill:#4d4d4d;}</style></defs><title>Ресурс 1</title><g id="Слой_2" data-name="Слой 2"><g id="Layer_1" data-name="Layer 1"><g id="layer1"><g id="g97"><g id="g99"><g id="g101"><path id="path103" class="cls-1" d="M63.06,39.74A32,32,0,1,1,39.74,1h0A32,32,0,0,1,63.06,39.74Z"/><g id="g105"><g id="g107"><path id="path109" class="cls-2" d="M46.13,27.44c.64-4.26-2.6-6.55-7-8.07l1.44-5.77-3.51-.87-1.4,5.62c-.92-.23-1.87-.45-2.81-.66L34.26,12l-3.51-.87-1.44,5.77-2.24-.53h0L22.23,15.2,21.3,19s2.61.6,2.55.63a1.87,1.87,0,0,1,1.64,2l-1.64,6.57a2.65,2.65,0,0,1,.37.12l-.37-.09-2.3,9.21a1.28,1.28,0,0,1-1.61.83h0c0,.05-2.55-.64-2.55-.64l-1.74,4,4.57,1.14,2.5.65L21.27,49.2l3.51.88,1.44-5.77L29,45l-1.43,5.74,3.51.88,1.45-5.82c6,1.13,10.49.68,12.38-4.74,1.53-4.36-.08-6.87-3.23-8.52,2.29-.53,4-2,4.48-5.16Zm-8,11.25c-1.08,4.36-8.43,2-10.81,1.41l1.91-7.74c2.38.61,10,1.78,8.87,6.33Zm1.06-11.33c-1,4-7.1,2-9.08,1.46l1.75-7C33.84,22.36,40.22,23.24,39.19,27.36Z"/></g></g></g></g><g id="g111"><path id="path113" class="cls-3" d="M93.8,19.36a15.43,15.43,0,0,1,6.72,1.38,13.59,13.59,0,0,1,4.71,3.73A15.85,15.85,0,0,1,108,30a25.6,25.6,0,0,1,.89,6.8A27.73,27.73,0,0,1,101.18,56a26.56,26.56,0,0,1-8.42,5.83A25.73,25.73,0,0,1,82.24,64H79.68a36.29,36.29,0,0,1-4.16-.36,50.25,50.25,0,0,1-5-1,24.6,24.6,0,0,1-5-1.78L79.52,2,92.07,0l-5,20.89a19.42,19.42,0,0,1,3.24-1.13,14.09,14.09,0,0,1,3.48-.41ZM83.27,54a11,11,0,0,0,5.34-1.38A14.1,14.1,0,0,0,93,49a18.65,18.65,0,0,0,2.87-5.23,17.76,17.76,0,0,0,1.05-6.08,11.94,11.94,0,0,0-1.3-6.07q-1.29-2.18-4.78-2.19a15.14,15.14,0,0,0-3,.4,7.35,7.35,0,0,0-3.28,1.71L79.17,53.7l.85.16a4.81,4.81,0,0,0,.76.12,8.34,8.34,0,0,0,1,0h1.45Z"/><path id="path115" class="cls-3" d="M121.88,62.86h-12L120,20.26h12.07Zm5.83-47.79a7.43,7.43,0,0,1-4.54-1.5,5.3,5.3,0,0,1-2-4.58,7.52,7.52,0,0,1,.69-3.2,8.41,8.41,0,0,1,1.83-2.59,9.06,9.06,0,0,1,2.63-1.74,8,8,0,0,1,3.2-.65,7.49,7.49,0,0,1,4.53,1.5,5.36,5.36,0,0,1,2,4.58,7.52,7.52,0,0,1-.69,3.2,8.55,8.55,0,0,1-1.82,2.59,9.06,9.06,0,0,1-2.63,1.74,8,8,0,0,1-3.2.64Z"/><path id="path117" class="cls-3" d="M142.59,9.65,155.15,7.7l-3.08,12.56h13.44l-2.43,9.88H149.71L146.15,45a17.08,17.08,0,0,0-.57,3.48,6.36,6.36,0,0,0,.4,2.8,3.47,3.47,0,0,0,1.74,1.82,8.08,8.08,0,0,0,3.6.65,19.12,19.12,0,0,0,3.77-.37,26,26,0,0,0,3.68-1l.89,9.24a44,44,0,0,1-5.26,1.54,30.33,30.33,0,0,1-6.72.65q-5.6,0-8.67-1.65a9.58,9.58,0,0,1-4.37-4.54,14.36,14.36,0,0,1-1.13-6.6,42.56,42.56,0,0,1,1.13-7.86Z"/><path id="path119" class="cls-3" d="M165,45.86a30,30,0,0,1,1.78-10.37A25.51,25.51,0,0,1,171.87,27a23.86,23.86,0,0,1,8.06-5.75,25.72,25.72,0,0,1,10.56-2.11,28.06,28.06,0,0,1,6.52.69,26.36,26.36,0,0,1,5.23,1.82L198.11,31c-1.08-.44-2.2-.82-3.36-1.17a14.88,14.88,0,0,0-4.25-.53A11.9,11.9,0,0,0,181,33.46q-3.53,4.13-3.53,11.1a11.43,11.43,0,0,0,1.79,6.68q1.78,2.55,6.56,2.55a21,21,0,0,0,4.54-.48,22.18,22.18,0,0,0,3.89-1.21l.9,9.64a41.45,41.45,0,0,1-5,1.58,27.8,27.8,0,0,1-6.56.68,22,22,0,0,1-8.5-1.45,16.25,16.25,0,0,1-5.75-3.93,14.81,14.81,0,0,1-3.28-5.8,23.7,23.7,0,0,1-1-7Z"/><path id="path121" class="cls-3" d="M218.22,64a19.51,19.51,0,0,1-7.45-1.3,13.82,13.82,0,0,1-5.22-3.64,15.72,15.72,0,0,1-3.12-5.55,22.34,22.34,0,0,1-1-7.08A31.49,31.49,0,0,1,203,36.7,27.5,27.5,0,0,1,207.66,28a25,25,0,0,1,7.53-6.37,20.71,20.71,0,0,1,10.2-2.47,19.62,19.62,0,0,1,7.42,1.3,13.92,13.92,0,0,1,5.26,3.64,15.86,15.86,0,0,1,3.11,5.55,22.38,22.38,0,0,1,1,7.08,32.37,32.37,0,0,1-1.53,9.72,28,28,0,0,1-4.54,8.74,23.72,23.72,0,0,1-7.49,6.35A21.21,21.21,0,0,1,218.26,64Zm6-34.66a7.63,7.63,0,0,0-4.69,1.54,13.21,13.21,0,0,0-3.4,3.89,19.11,19.11,0,0,0-2.07,5.14,22,22,0,0,0-.68,5.3,12.9,12.9,0,0,0,1.29,6.32c.87,1.51,2.43,2.26,4.7,2.26a7.53,7.53,0,0,0,4.7-1.54,13.21,13.21,0,0,0,3.4-3.89,19.44,19.44,0,0,0,2.07-5.14,22.51,22.51,0,0,0,.68-5.3,12.91,12.91,0,0,0-1.3-6.32q-1.3-2.23-4.71-2.23Z"/><path id="path123" class="cls-3" d="M255.26,62.86h-12l10.12-42.6h12.08Zm5.82-47.79a7.41,7.41,0,0,1-4.53-1.5,5.3,5.3,0,0,1-2-4.58,7.52,7.52,0,0,1,.69-3.2,8.38,8.38,0,0,1,1.82-2.59,9.06,9.06,0,0,1,2.63-1.74,8.12,8.12,0,0,1,3.19-.65,7.43,7.43,0,0,1,4.54,1.5,5.36,5.36,0,0,1,2,4.58,7.68,7.68,0,0,1-.69,3.2,8.55,8.55,0,0,1-1.82,2.59,9.06,9.06,0,0,1-2.63,1.74A7.83,7.83,0,0,1,261.08,15.07Z"/><path id="path125" class="cls-3" d="M274.09,22.2c.91-.27,1.93-.59,3-.93s2.35-.67,3.73-1a44.66,44.66,0,0,1,4.61-.73,53.33,53.33,0,0,1,5.79-.29q9.48,0,13.09,5.51t1.26,15.06l-5.51,23H288l5.31-22.46c.33-1.41.58-2.77.77-4.09a9.69,9.69,0,0,0,0-3.48,4.17,4.17,0,0,0-1.49-2.43,5.77,5.77,0,0,0-3.61-.93,24.69,24.69,0,0,0-4.78.49l-7.86,33h-12l9.8-40.66Z"/></g></g></g></g></g></svg>