<svg id="katman_1" data-name="katman 1" xmlns="http://www.w3.org/2000/svg" viewBox="0 0 95 35"><defs><style>.cls-1{fill:#7cc144;}.cls-2{fill:#22723f;}</style></defs><title>eft renkli</title><circle class="cls-1" cx="24.2" cy="21.42" r="7.17"/><path class="cls-2" d="M58,13.8v2.75h3.7v1.75H58v2.91h4.17V23H55.79V12h6.37V13.8Z"/><path class="cls-2" d="M70.94,12V13.8H66.36v2.82h3.51v1.75H66.36V23h-2.2V12Z"/><path class="cls-2" d="M80,12V13.8H77V23h-2.2V13.8H71.92V12Z"/><g id="_005---Fast-Cash" data-name="005---Fast-Cash"><path id="Shape" class="cls-2" d="M27.68,25.89a.58.58,0,0,0,.7.43,1.16,1.16,0,0,1,1.4.85.58.58,0,0,0,.7.43L45.13,24a.58.58,0,0,0,.43-.7,1.16,1.16,0,0,1,.85-1.4.58.58,0,0,0,.43-.7l-1.1-4.51a.58.58,0,0,0-.7-.43,1.16,1.16,0,0,1-1.4-.85.58.58,0,0,0-.7-.43L28.28,18.58a.58.58,0,0,0-.43.7,1.16,1.16,0,0,1-.85,1.4.58.58,0,0,0-.43.7Zm10.4-1.43-.15-.6a1.74,1.74,0,0,0-1.37-3.14A.58.58,0,1,1,37,20a.58.58,0,0,0,.7.43c.93-.23.26-1.87-1.09-2l-.15-.6a3.4,3.4,0,0,1,3.06,2.76A3.39,3.39,0,0,1,38.08,24.46Zm-3.93-5.11a2.77,2.77,0,0,1,1.18-1.23l.15.6a1.74,1.74,0,0,0,1.37,3.14.58.58,0,1,1-.43.7.58.58,0,0,0-.7-.43c-.93.23-.26,1.87,1.09,2l.15.6C34.6,24.73,33,21.63,34.15,19.35Zm10.57-1.89L45.59,21a2.33,2.33,0,0,0-1.22,2l-4.23,1a5.07,5.07,0,0,0-1.65-6.76l4.23-1a2.33,2.33,0,0,0,2,1.22ZM29,19.58l4.23-1a5.06,5.06,0,0,0,1.66,6.76l-4.23,1a2.32,2.32,0,0,0-2-1.22l-.86-3.52a2.33,2.33,0,0,0,1.22-2Z"/><path id="Shape-2" data-name="Shape" class="cls-2" d="M17,17.05l5,9.14a1.74,1.74,0,0,0,1.53.91c.59,0,.88-.24,1.86-.78l.72,2.93a1.74,1.74,0,0,0,1.69,1.32c.31,0-1,.29,20.69-5a1.74,1.74,0,0,0,1.28-2.1L47.29,13.32A1.74,1.74,0,0,0,45.19,12l-2.78.68-4.07-7.4A1.74,1.74,0,0,0,36,4.63l-1.84,1H24.89a.58.58,0,1,0,0,1.16H32L29.9,8H18.51a.58.58,0,0,0,0,1.16h9.28l-4.22,2.32H19.09a.58.58,0,1,0,0,1.16h2.38l-3.8,2.09A1.75,1.75,0,0,0,17,17.05Zm5.35-1L26.13,14a4.76,4.76,0,0,0,.06,2.69L24.91,17a1.74,1.74,0,0,0-1.28,2.1l.58,2.38a2.3,2.3,0,0,0-.79,0l-1.75-3.18A2.33,2.33,0,0,0,22.34,16.1Zm15.9-2.35-4.11,1a5,5,0,0,0-3.27-3.34l3.81-2.09a2.32,2.32,0,0,0,2.26.66l1.75,3.18a2.32,2.32,0,0,0-.44.59ZM27.33,16.42a3.24,3.24,0,0,1,.7-3.36l.29.53a1.73,1.73,0,0,0,.24,2.53Zm4.39-1.08a1.74,1.74,0,0,0-1.82-.09.58.58,0,1,1,.23-.79.58.58,0,1,0,1-.56,1.72,1.72,0,0,0-1.8-.87L29,12.5A3.5,3.5,0,0,1,33,15Zm13.75-2.18a.58.58,0,0,1,.7.43l2.49,10.14a.58.58,0,0,1-.43.7l-20.28,5a.58.58,0,0,1-.7-.43L24.76,18.84a.58.58,0,0,1,.43-.7ZM18.23,15.7,36.52,5.65a.58.58,0,0,1,.79.23L41.23,13l-1.24.3c0-.23.14.11-2.3-4.34a.58.58,0,0,0-.35-.28c-.45-.13-.62.35-1.32.15a1.16,1.16,0,0,1-.7-.56.58.58,0,0,0-.79-.23L21.33,15.32a.58.58,0,0,0-.23.79,1.16,1.16,0,0,1-.46,1.57.58.58,0,0,0-.23.79l2.24,4.06a.58.58,0,0,0,.79.23,1.14,1.14,0,0,1,1.09,0l.58,2.38-1.29.71a.58.58,0,0,1-.79-.23l-5-9.14a.58.58,0,0,1,.23-.79Z"/><path id="Shape-3" data-name="Shape" class="cls-2" d="M19.09,30.58h5.8a.58.58,0,1,0,0-1.16h-5.8a.58.58,0,1,0,0,1.16Z"/><path id="Shape-4" data-name="Shape" class="cls-2" d="M15.61,30.58h1.16a.58.58,0,0,0,0-1.16H15.61a.58.58,0,1,0,0,1.16Z"/><path id="Shape-5" data-name="Shape" class="cls-2" d="M15.61,12.6h1.16a.58.58,0,0,0,0-1.16H15.61a.58.58,0,1,0,0,1.16Z"/><path id="Shape-6" data-name="Shape" class="cls-2" d="M16.77,27.1h3.48a.58.58,0,1,0,0-1.16H16.77a.58.58,0,1,0,0,1.16Z"/><path id="Shape-7" data-name="Shape" class="cls-2" d="M19.09,23a.58.58,0,0,0-.58-.58H16.19a.58.58,0,0,0,0,1.16h2.32A.58.58,0,0,0,19.09,23Z"/><path id="Shape-8" data-name="Shape" class="cls-2" d="M15.61,20.14h1.16a.58.58,0,0,0,0-1.16H15.61a.58.58,0,1,0,0,1.16Z"/></g></svg>