<svg id="katman_1" data-name="katman 1" xmlns="http://www.w3.org/2000/svg" viewBox="0 0 95 35"><defs><style>.cls-1{fill:#7cc144;}.cls-2{fill:#22723f;}</style></defs><title>havale renkli</title><circle class="cls-1" cx="14.03" cy="21.42" r="7.17"/><path class="cls-2" d="M44.44,12V23h-2.2V18.33h-4.7V23h-2.2V12h2.2v4.52h4.7V12Z"/><path class="cls-2" d="M53.34,20.91H49L48.24,23H45.93l3.95-11h2.56l3.95,11H54.06Zm-.6-1.76-1.59-4.59-1.59,4.59Z"/><path class="cls-2" d="M65.85,12l-4,11H59.14l-4-11h2.36l3,8.73,3-8.73Z"/><path class="cls-2" d="M72,20.91H67.64L66.92,23H64.6l3.95-11h2.56l3.95,11H72.74Zm-.6-1.76-1.59-4.59-1.59,4.59Z"/><path class="cls-2" d="M78.75,21.25h3.62V23H76.54V12h2.2Z"/><path class="cls-2" d="M86,13.8v2.75h3.7v1.75H86V21.2h4.17V23H83.76V12h6.37V13.8Z"/><g id="Money_Transfer-3" data-name="Money Transfer-3"><path class="cls-2" d="M17.95,13a4.49,4.49,0,1,0,4.49,4.49A4.49,4.49,0,0,0,17.95,13Zm3.36,4.49a3.36,3.36,0,1,1-3.36-3.36A3.37,3.37,0,0,1,21.31,17.5Z"/><path class="cls-2" d="M17.95,18.81a.44.44,0,0,1-.44-.44h-.87a1.31,1.31,0,0,0,.87,1.23v.52h.87V19.6a1.31,1.31,0,0,0-.44-2.54.44.44,0,1,1,.44-.44h.87a1.31,1.31,0,0,0-.87-1.23v-.52h-.87v.52a1.31,1.31,0,0,0,.44,2.54.44.44,0,1,1,0,.87Z"/><path class="cls-2" d="M25.36,28.4a1.31,1.31,0,0,1-1.31,1.31H11.84a1.31,1.31,0,0,1-1.31-1.31V19.68H9.66V28.4a2.18,2.18,0,0,0,2.18,2.18H24.05a2.18,2.18,0,0,0,2.18-2.18V22.73h-.87Z"/><rect class="cls-2" x="24.93" y="17.06" width="0.87" height="0.87"/><path class="cls-2" d="M10.53,6.6a1.31,1.31,0,0,1,1.31-1.31H24.05A1.31,1.31,0,0,1,25.36,6.6v5.67h.87V6.6a2.18,2.18,0,0,0-2.18-2.18H11.84A2.18,2.18,0,0,0,9.66,6.6v8.72h.87Z"/><path class="cls-2" d="M24.93,13.14V6.6a.87.87,0,0,0-.87-.87H21.67a.87.87,0,0,0-.69.34l-.59.53H15.5l-.59-.53a.87.87,0,0,0-.69-.34H11.84A.87.87,0,0,0,11,6.6v8.72h.87V6.6h2.38l.07.08.74.68a.44.44,0,0,0,.3.11h5.23a.44.44,0,0,0,.29-.11l.74-.68.07-.08h2.38v6.54Z"/><rect class="cls-2" x="23.18" y="17.06" width="0.87" height="0.87"/><path class="cls-2" d="M24.93,26.22V21.86h-.87v4.36H11.84V19.68H11v6.54a.87.87,0,0,0,.87.87H24.05A.87.87,0,0,0,24.93,26.22Z"/><rect class="cls-2" x="16.64" y="27.97" width="2.62" height="0.87"/><path class="cls-2" d="M10.66,18.5l.62.62,1.31-1.31a.44.44,0,0,0,0-.62l-1.31-1.31-.62.62.56.56H8.35v.87h2.87Z"/><path class="cls-2" d="M30.9,17.19,29.6,15.88,29,16.5l.56.56H26.67v.87h2.87L29,18.5l.62.62,1.31-1.31A.44.44,0,0,0,30.9,17.19Z"/><path class="cls-2" d="M24.05,14v.87h2.87l-.56.56.62.62,1.31-1.31a.44.44,0,0,0,0-.62L27,12.83l-.62.62.56.56Z"/><path class="cls-2" d="M27,18.94l-.62.62.56.56H24.05V21h2.87l-.56.56.62.62,1.31-1.31a.44.44,0,0,0,0-.62Z"/><rect class="cls-2" x="6.61" y="17.06" width="0.87" height="0.87"/><rect class="cls-2" x="4.86" y="17.06" width="0.87" height="0.87"/><rect class="cls-2" x="22.31" y="20.12" width="0.87" height="0.87"/><rect class="cls-2" x="22.31" y="14.01" width="0.87" height="0.87"/><rect class="cls-2" x="17.51" y="10.09" width="0.87" height="0.87"/><rect class="cls-2" x="19.26" y="10.09" width="0.87" height="0.87"/><rect class="cls-2" x="15.77" y="10.09" width="0.87" height="0.87"/></g></svg>