<svg xmlns="http://www.w3.org/2000/svg" viewBox="0 0 144 86.16"><defs><style>.cls-1{fill:#ed1b2e;}.cls-2{fill:#fcb131;}.cls-3{fill:#fff;}</style></defs><title>Ресурс 1</title><g id="Слой_2" data-name="Слой 2"><g id="Layer_1" data-name="Layer 1"><circle class="cls-1" cx="43.08" cy="43.08" r="43.08"/><path class="cls-2" d="M100.92,0A43,43,0,0,0,72,11.15a43.59,43.59,0,0,0-4.35,4.56h8.69a44.7,44.7,0,0,1,3.29,4.56H64.34a41.87,41.87,0,0,0-2.48,4.56H82.1a43.74,43.74,0,0,1,1.82,4.56H60.06A42.73,42.73,0,0,0,58.81,34H85.2A43.33,43.33,0,0,1,84,56.76H60.06a43.74,43.74,0,0,0,1.82,4.56H82.12a41.87,41.87,0,0,1-2.48,4.56H64.34a44.7,44.7,0,0,0,3.29,4.56h8.71A43.59,43.59,0,0,1,72,75,43.08,43.08,0,1,0,100.91,0Z"/><polygon class="cls-3" points="22.85 54.42 18.17 54.42 20.85 37.63 14.87 54.42 11.68 54.42 11.29 37.72 8.47 54.42 4.09 54.42 7.75 32.57 14.48 32.57 14.66 46.1 19.2 32.57 26.47 32.57 22.85 54.42"/><path class="cls-3" d="M34.34,46.51a8.4,8.4,0,0,0-1-.07c-2.65,0-4,.91-4,2.7a1.63,1.63,0,0,0,1.44,1.8H31C32.91,51,34.29,49.13,34.34,46.51Zm3.4,7.92H33.87L34,52.59a5.89,5.89,0,0,1-4.9,2.15c-2.54,0-4.27-2-4.27-4.86,0-4.33,3-6.85,8.21-6.85a15.2,15.2,0,0,1,1.91.14A4.6,4.6,0,0,0,35.09,42c0-1.18-.81-1.61-3-1.61a15.44,15.44,0,0,0-5,.8c0-.29.65-4,.65-4a18.73,18.73,0,0,1,5.6-.94c4,0,6.14,1.8,6.14,5.21A21.91,21.91,0,0,1,39.1,45c-.34,2.57-1.21,8.09-1.33,9.43Z"/><path class="cls-3" d="M100.5,33.16l-.77,4.74a8.89,8.89,0,0,0-4.18-1.18c-3.49,0-5.94,3.37-5.94,8.19,0,3.32,1.65,5.32,4.37,5.32a9.07,9.07,0,0,0,4-1.12l-.82,5a14.47,14.47,0,0,1-4.13.64c-5,0-8.17-3.62-8.17-9.43,0-7.81,4.34-13.27,10.53-13.27A16.3,16.3,0,0,1,100.5,33.16Z"/><path class="cls-3" d="M108,46.51a8.4,8.4,0,0,0-1-.07c-2.65,0-4,.91-4,2.7a1.63,1.63,0,0,0,1.44,1.8h.24C106.59,51,108,49.13,108,46.51Zm3.4,7.92h-3.87l.09-1.84a5.89,5.89,0,0,1-4.9,2.15c-2.54,0-4.27-2-4.27-4.86,0-4.33,3-6.85,8.21-6.85a15,15,0,0,1,1.9.14,4.6,4.6,0,0,0,.18-1.16c0-1.18-.81-1.61-3-1.61a15.44,15.44,0,0,0-5,.8l.65-4a18.73,18.73,0,0,1,5.6-.94c4,0,6.14,1.8,6.14,5.21a21.91,21.91,0,0,1-.38,3.52c-.35,2.57-1.22,8.09-1.34,9.43Z"/><path class="cls-3" d="M58.55,54.15a10.69,10.69,0,0,1-3.36.58c-2.39,0-3.7-1.37-3.7-3.9a40,40,0,0,1,.64-4.74c.27-1.66,2-12.13,2-12.13h4.65l-.54,2.69h2.39L60,40.92H57.61c-.54,3.38-1.31,7.59-1.32,8.15,0,.92.49,1.32,1.6,1.32a3.59,3.59,0,0,0,1.26-.17Z"/><path class="cls-3" d="M72.81,54a16,16,0,0,1-4.77.72c-5.21,0-7.92-2.72-7.92-7.93,0-6.08,3.45-10.55,8.13-10.55,3.84,0,6.28,2.5,6.28,6.43A19,19,0,0,1,74,47.05H64.7c-.31,2.58,1.34,3.65,4,3.65a11,11,0,0,0,4.84-1.12ZM70.2,43.47c0-.37.49-3.17-2.16-3.17-1.48,0-2.54,1.13-3,3.17Z"/><path class="cls-3" d="M40.57,42.27c0,2.25,1.09,3.8,3.56,5,1.89.89,2.19,1.15,2.19,2,0,1.11-.83,1.61-2.69,1.61a13.25,13.25,0,0,1-4.19-.7l-.64,4.1a21.56,21.56,0,0,0,4.87.53c4.94,0,7.21-1.88,7.21-5.94,0-2.44-1-3.87-3.3-5-2-.9-2.19-1.1-2.19-1.93s.78-1.46,2.29-1.46a27,27,0,0,1,3.36.27l.67-4.12a31.51,31.51,0,0,0-4.12-.35C42.34,36.25,40.56,39,40.57,42.27Z"/><path class="cls-3" d="M136.2,54.42h-4.42l.22-1.65a5.51,5.51,0,0,1-4.31,2c-3.4,0-5.65-2.93-5.65-7.37,0-5.91,3.49-10.89,7.61-10.89a5.27,5.27,0,0,1,4.47,2.42l1-6.32h4.61Zm-6.9-4.11c2.18,0,3.71-2.47,3.71-6,0-2.26-.87-3.48-2.48-3.48-2.12,0-3.63,2.48-3.63,6,0,2.31.81,3.49,2.44,3.49Z"/><path class="cls-3" d="M115.66,36.65c-.59,5.5-1.62,11.07-2.44,16.57l-.21,1.2h4.68c1.67-10.87,2.08-13,4.7-12.72a17.4,17.4,0,0,1,1.78-5.15c-2-.41-3,.7-4.49,2.8a16.27,16.27,0,0,0,.28-2.7Z"/><path class="cls-3" d="M77.16,36.65c-.59,5.5-1.63,11.07-2.44,16.57l-.21,1.2h4.68c1.67-10.87,2.08-13,4.7-12.72a17.4,17.4,0,0,1,1.78-5.15c-2-.41-3,.7-4.48,2.8a16.27,16.27,0,0,0,.28-2.7Z"/></g></g></svg>