<svg xmlns="http://www.w3.org/2000/svg" viewBox="0 0 119.28 38.66"><defs><style>.cls-1{fill:#0066b3;}.cls-2{fill:#faa634;}</style></defs><title>Ресурс 2</title><g id="Слой_2" data-name="Слой 2"><g id="Layer_1" data-name="Layer 1"><polygon class="cls-1" points="51.71 38.02 41.97 38.02 48.05 0.64 57.79 0.64 51.71 38.02"/><path class="cls-1" d="M33.77.64,24.5,26.35l-1.1-5.54h0L20.13,4S19.73.63,15.51.63H.18L0,1.26A36.6,36.6,0,0,1,10.18,5.53L18.64,38H28.77L44.26.64Z"/><path class="cls-1" d="M110.34,38h8.94L111.49.64h-7.83a4.46,4.46,0,0,0-4.49,2.81L84.65,38H94.77l2-5.55h12.37ZM99.63,24.8l5.11-14,2.88,14Z"/><path class="cls-1" d="M85.41,9.63l1.39-8A28.4,28.4,0,0,0,78.05,0c-4.83,0-16.3,2.11-16.3,12.38,0,9.66,13.46,9.78,13.46,14.85s-12.07,4.16-16.06,1L57.7,36.55a27.15,27.15,0,0,0,11,2.11c6.64,0,16.66-3.44,16.66-12.8,0-9.71-13.59-10.62-13.59-14.84S81.25,7.33,85.41,9.63Z"/><path class="cls-2" d="M23.41,20.81,20.13,4S19.73.63,15.51.63H.18L0,1.26A37.76,37.76,0,0,1,14.45,8.51,29.2,29.2,0,0,1,23.41,20.81Z"/></g></g></svg>