<svg id="Capa_1" data-name="Capa 1" xmlns="http://www.w3.org/2000/svg" xmlns:xlink="http://www.w3.org/1999/xlink" viewBox="0 0 512 512"><defs><style>.cls-1{fill:none;}.cls-2{fill:#87e8d8;}.cls-3{fill:#e3e7f2;}.cls-4{fill:#fff;}.cls-5{clip-path:url(#clip-path);}.cls-6{fill:#f9f9f9;}.cls-7{fill:#3db2a3;}</style><clipPath id="clip-path"><circle class="cls-1" cx="256" cy="264" r="240"/></clipPath></defs><title>user</title><circle class="cls-2" cx="256" cy="256" r="246.15"/><ellipse class="cls-3" cx="256" cy="256" rx="216.61" ry="246.15"/><path class="cls-4" d="M39.38,256c0-135.95,97-246.15,216.62-246.15C120.05,9.85,9.85,120.05,9.85,256S120.05,502.15,256,502.15C136.37,502.15,39.38,391.95,39.38,256Z"/><g class="cls-5"><path class="cls-2" d="M416.69,442.08a58.59,58.59,0,0,0-32.39-52.4l-69.77-34.89A26.61,26.61,0,0,1,299.83,331V303.61a104.82,104.82,0,0,0,6.6-8.49,160.52,160.52,0,0,0,21.69-43.71,21.92,21.92,0,0,0,15.54-20.85V201.35a21.79,21.79,0,0,0-7.3-16.19V142.91S345,77.17,256,77.17s-80.35,65.74-80.35,65.74v42.24a21.79,21.79,0,0,0-7.3,16.19v29.22a21.9,21.9,0,0,0,10.1,18.38,144.91,144.91,0,0,0,26.42,54.66v26.7A26.61,26.61,0,0,1,191,353.67l-65.16,35.54a58.59,58.59,0,0,0-30.53,51.43V464.3c0,20.17,71.95,36.52,160.69,36.52s160.69-16.35,160.69-36.52Z"/><path class="cls-6" d="M394.78,442.08a58.59,58.59,0,0,0-32.39-52.4l-69.77-34.89A26.61,26.61,0,0,1,277.91,331V303.61a104.82,104.82,0,0,0,6.6-8.49,160.52,160.52,0,0,0,21.69-43.71,21.92,21.92,0,0,0,15.54-20.85V201.35a21.79,21.79,0,0,0-7.3-16.19V142.91s8.67-65.74-80.35-65.74c-49.3,0-58.43,65.74-58.43,65.74v42.24a21.79,21.79,0,0,0-7.3,16.19v29.22a21.9,21.9,0,0,0,10.1,18.38,144.91,144.91,0,0,0,26.42,54.66v26.7A26.61,26.61,0,0,1,191,353.67l-50.56,35.54C121.62,399.48,88,419.21,88,440.65V464.3c0,20.17,154.73,36.52,146.09,36.52,88.75,0,160.69-16.35,160.69-36.52Z"/><path class="cls-7" d="M256,508.13c-58.11,0-168-9.16-168-43.83V440.65a65.86,65.86,0,0,1,34.34-57.85l65.16-35.54a19.3,19.3,0,0,0,10.06-16.95V306.14A153.42,153.42,0,0,1,172,253.28,29.05,29.05,0,0,1,161,230.57V201.35a29.12,29.12,0,0,1,7.3-19.17V143.32a65.48,65.48,0,0,1,15.28-47.66C198.63,78.54,223,69.87,256,69.87s57.37,8.67,72.37,25.79a65.48,65.48,0,0,1,15.28,47.66v38.85a29.12,29.12,0,0,1,7.3,19.17v29.22A29,29,0,0,1,334,257a167.07,167.07,0,0,1-21.57,42.36c-1.82,2.57-3.58,4.9-5.25,6.95V331a19.2,19.2,0,0,0,10.67,17.27l69.78,34.89A65.54,65.54,0,0,1,424,442.08V464.3C424,499,314.11,508.13,256,508.13Zm0-423.65c-28.63,0-49.28,7-61.38,20.81A50.68,50.68,0,0,0,182.89,142a7.14,7.14,0,0,1,.06,1v42.24a7.3,7.3,0,0,1-2.41,5.42,14.4,14.4,0,0,0-4.9,10.77v29.22a14.56,14.56,0,0,0,6.76,12.25,7.31,7.31,0,0,1,3.16,4.5,137.84,137.84,0,0,0,24.91,51.61,7.31,7.31,0,0,1,1.7,4.69v26.7a33.91,33.91,0,0,1-17.67,29.77l-65.16,35.54a51.25,51.25,0,0,0-26.73,45V464.3c0,9.91,54.14,29.22,153.39,29.22s153.39-19.3,153.39-29.22V442.08A51,51,0,0,0,381,396.21l-69.78-34.89A33.74,33.74,0,0,1,292.52,331V303.61a7.29,7.29,0,0,1,1.82-4.82,96.14,96.14,0,0,0,6.12-7.88,152.89,152.89,0,0,0,20.7-41.73,7.3,7.3,0,0,1,4.8-4.74,14.53,14.53,0,0,0,10.39-13.87V201.35a14.4,14.4,0,0,0-4.9-10.77,7.3,7.3,0,0,1-2.41-5.42V142.91a7.14,7.14,0,0,1,.06-1,51.37,51.37,0,0,0-11.85-36.82C305.13,91.43,284.52,84.48,256,84.48Z"/></g><path class="cls-7" d="M256,512C114.61,512,0,397.39,0,256S114.61,0,256,0,512,114.61,512,256C511.84,397.32,397.32,511.84,256,512Zm0-492.31C125.49,19.69,19.69,125.49,19.69,256S125.49,492.31,256,492.31,492.31,386.51,492.31,256C492.16,125.55,386.45,19.84,256,19.69Z"/></svg>