<svg id="Ñëîé_1" data-name="Ñëîé 1" xmlns="http://www.w3.org/2000/svg" viewBox="0 0 500 500"><defs><style>.cls-1{fill:#00b17c;}.cls-2{fill:#fff;}.cls-3{opacity:0.1;}</style></defs><title>lock</title><path class="cls-1" d="M494,250C494,62.83,432.78,6,250,6S6,62.83,6,250,67.22,494,250,494s244-56.83,244-244Z"/><path class="cls-2" d="M299.78,239.75H200.22v-57.1a49.78,49.78,0,0,1,99.55,0v57.1ZM250,339.3a21.23,21.23,0,1,1,21.23-21.23A21.23,21.23,0,0,1,250,339.3Zm79.06-98.48V182.66a79.06,79.06,0,1,0-158.11,0v58.16a36.61,36.61,0,0,0-27.82,35.53V359.8a36.6,36.6,0,0,0,36.6,36.6H320.27a36.6,36.6,0,0,0,36.6-36.6V276.35a36.61,36.61,0,0,0-27.82-35.53Z"/><path class="cls-3" d="M299.78,182.66a49.78,49.78,0,0,0-99.55,0v57.1h99.55v-57.1Z"/><path class="cls-3" d="M228.77,318.08A21.23,21.23,0,1,0,250,296.85a21.23,21.23,0,0,0-21.23,21.23Z"/><path class="cls-3" d="M306.14,127.06a78.79,78.79,0,0,1,22.92,55.6v58.16a36.61,36.61,0,0,1,27.82,35.53V359.8a36.6,36.6,0,0,1-36.6,36.6H179.73a36.43,36.43,0,0,1-21.5-7L262.71,493.89c151.55-2.33,215.12-47.56,228.51-181.76L306.14,127.06Z"/></svg>