<svg id="Capa_1" data-name="Capa 1" xmlns="http://www.w3.org/2000/svg" viewBox="0 0 512 512"><defs><style>.cls-1{fill:#87e8d8;}.cls-2{fill:#e3e7f2;}.cls-3{fill:#fff;}.cls-4{fill:#3db2a3;}</style></defs><title>add</title><circle class="cls-1" cx="256" cy="256" r="246.2"/><ellipse class="cls-2" cx="256" cy="256" rx="216.6" ry="246.2"/><path class="cls-3" d="M39.4,256C39.4,120.1,136.4,9.8,256,9.8,120.1,9.8,9.8,120.1,9.8,256S120.1,502.2,256,502.2C136.4,502.2,39.4,391.9,39.4,256Z"/><path class="cls-4" d="M256,512C114.6,512,0,397.4,0,256S114.6,0,256,0,512,114.6,512,256C511.8,397.3,397.3,511.8,256,512Zm0-492.3C125.5,19.7,19.7,125.5,19.7,256S125.5,492.3,256,492.3,492.3,386.5,492.3,256,386.4,19.8,256,19.7Z"/><path class="cls-4" d="M256,373.2a19.85,19.85,0,0,1-19.8-19.8V155.1a19.8,19.8,0,1,1,39.6,0V353.4A19.85,19.85,0,0,1,256,373.2Z"/><path class="cls-4" d="M355.1,274H156.9a19.8,19.8,0,1,1,0-39.6H355.2a19.8,19.8,0,1,1-.1,39.6Z"/></svg>