<svg id="Capa_1" data-name="Capa 1" xmlns="http://www.w3.org/2000/svg" viewBox="0 0 512 512"><defs><style>.cls-1{fill:#fff;opacity:0.8;}.cls-2{fill:#00703d;}</style></defs><title>add arrow 1</title><circle class="cls-1" cx="256" cy="256" r="252.8"/><circle class="cls-1" cx="255.9" cy="256" r="185.7"/><path class="cls-2" d="M256,2.7C116.3,2.7,2.7,116.3,2.7,256A253.64,253.64,0,0,0,59,415.3a10.15,10.15,0,1,0,16.3-12.1h0c-.2-.2-.4-.5-.6-.7A233.85,233.85,0,0,1,22.9,256C22.9,127.5,127.5,22.9,256,22.9S489.1,127.5,489.1,256,384.5,489.1,256,489.1a233.27,233.27,0,0,1-146.5-51.8,10.2,10.2,0,0,0-14.2,2.2A10,10,0,0,0,96.7,453a253.57,253.57,0,0,0,159.2,56.3c139.7,0,253.3-113.6,253.3-253.3S395.7,2.7,256,2.7Z"/><path class="cls-2" d="M398.9,137.3a10.18,10.18,0,0,0-16,12.6,1.76,1.76,0,0,0,.4.5A164.83,164.83,0,0,1,421.5,256c0,91.3-74.3,165.5-165.5,165.5S90.5,347.3,90.5,256,164.7,90.5,256,90.5a165.38,165.38,0,0,1,89.1,26,10.13,10.13,0,0,0,10.9-17A185.58,185.58,0,0,0,256,70.2C153.6,70.2,70.2,153.6,70.2,256S153.6,441.8,256,441.8,441.8,358.4,441.8,256A185.63,185.63,0,0,0,398.9,137.3Z"/><path class="cls-2" d="M327.84,245.6,226.61,144.37a14.46,14.46,0,0,0-20.45,20.45L297.33,256l-91.17,91.17a14.46,14.46,0,0,0,20.45,20.45L327.84,266.05A14.65,14.65,0,0,0,327.84,245.6Z"/></svg>