<svg id="Capa_1" data-name="Capa 1" xmlns="http://www.w3.org/2000/svg" viewBox="0 0 512 512"><defs><style>.cls-1{fill:#87e8d8;}.cls-2{fill:#e3e7f2;}.cls-3{fill:#fff;}.cls-4{fill:#3db2a3;}</style></defs><title>arrow button</title><circle class="cls-1" cx="256" cy="256" r="246.15"/><ellipse class="cls-2" cx="256" cy="256" rx="216.61" ry="246.15"/><path class="cls-3" d="M39.38,256c0-135.95,97-246.15,216.62-246.15C120.05,9.85,9.85,120.05,9.85,256S120.05,502.15,256,502.15C136.37,502.15,39.38,391.95,39.38,256Z"/><path class="cls-4" d="M256,512C114.61,512,0,397.39,0,256S114.61,0,256,0,512,114.61,512,256C511.84,397.32,397.32,511.84,256,512Zm0-492.31C125.49,19.69,19.69,125.49,19.69,256S125.49,492.31,256,492.31,492.31,386.51,492.31,256C492.16,125.55,386.45,19.84,256,19.69Z"/><polygon class="cls-4" points="171.35 151.31 276.04 256 171.35 360.69 203.65 393 340.65 256 203.65 119 171.35 151.31"/></svg>