<svg xmlns="http://www.w3.org/2000/svg" viewBox="0 0 25.62 29.86"><defs><style>.cls-1{fill:#7cc144;}.cls-2{fill:#20713d;}</style></defs><title>Ресурс 1</title><g id="Слой_2" data-name="Слой 2"><g id="katman_1" data-name="katman 1"><circle class="cls-1" cx="9.17" cy="20.69" r="7.17"/><path class="cls-2" d="M25.44,4.21A1.33,1.33,0,0,0,24.16,3,22.36,22.36,0,0,1,13.49.19a1.33,1.33,0,0,0-1.36,0,19.89,19.89,0,0,1-5,2,.42.42,0,0,0-.31.53.43.43,0,0,0,.53.31A20.53,20.53,0,0,0,12.57.94a.46.46,0,0,1,.48,0,23.18,23.18,0,0,0,11.08,3,.46.46,0,0,1,.44.41,35,35,0,0,1-.85,12,20.77,20.77,0,0,1-3.49,7.36A16.23,16.23,0,0,1,13,29a.44.44,0,0,1-.32,0,16.23,16.23,0,0,1-7.26-5.34A20.77,20.77,0,0,1,1.9,16.26,35.38,35.38,0,0,1,1,4.3a.48.48,0,0,1,.45-.41,25.62,25.62,0,0,0,3.83-.38A.44.44,0,0,0,5.67,3a.42.42,0,0,0-.5-.35A25.21,25.21,0,0,1,1.46,3,1.33,1.33,0,0,0,.18,4.21a36.09,36.09,0,0,0,.88,12.28,21.6,21.6,0,0,0,3.63,7.66,17.16,17.16,0,0,0,7.65,5.63,1.42,1.42,0,0,0,.94,0,17.08,17.08,0,0,0,7.64-5.63,21.44,21.44,0,0,0,3.64-7.66,36.09,36.09,0,0,0,.88-12.28Z"/><path class="cls-2" d="M2.68,6.14a30.42,30.42,0,0,0,.7,10.05,17.78,17.78,0,0,0,2.91,6.3,13.48,13.48,0,0,0,6.11,4.59,1.24,1.24,0,0,0,.82,0,13.48,13.48,0,0,0,6.11-4.59,17.78,17.78,0,0,0,2.91-6.3,30.42,30.42,0,0,0,.7-10,1.15,1.15,0,0,0-1.11-1A17.69,17.69,0,0,1,13.4,2.87a1.18,1.18,0,0,0-1.18,0A17.69,17.69,0,0,1,3.79,5.11a1.15,1.15,0,0,0-1.11,1Zm10-2.52a.27.27,0,0,1,.28,0A18.5,18.5,0,0,0,21.81,6a.28.28,0,0,1,.26.25A29.79,29.79,0,0,1,21.39,16c-1.34,5.21-4.19,8.67-8.48,10.29a.23.23,0,0,1-.2,0C8.42,24.64,5.57,21.18,4.23,16a29.79,29.79,0,0,1-.68-9.74A.28.28,0,0,1,3.81,6,18.5,18.5,0,0,0,12.67,3.62Z"/><path class="cls-2" d="M12.81,20.5a6.18,6.18,0,0,0,5-2.6.44.44,0,0,0-.1-.61.43.43,0,0,0-.61.1,5.28,5.28,0,1,1,1-3,5.08,5.08,0,0,1-.17,1.34.44.44,0,0,0,.85.22,6.3,6.3,0,0,0,.2-1.56,6.15,6.15,0,1,0-6.15,6.15Z"/><path class="cls-2" d="M15.1,11.28a1.39,1.39,0,0,0-.95.44L12,14.1l-.55-.53a1.37,1.37,0,1,0-1.89,2L11.06,17a1.37,1.37,0,0,0,.95.39h0A1.37,1.37,0,0,0,13,17l3.14-3.41a1.36,1.36,0,0,0-.08-1.93,1.42,1.42,0,0,0-1-.36Zm.42,1.7-3.14,3.4a.49.49,0,0,1-.71,0l-1.55-1.49a.5.5,0,0,1,.34-.85.52.52,0,0,1,.35.14l.86.83a.45.45,0,0,0,.63,0l2.49-2.71c.42-.45,1.16.2.73.67Z"/></g></g></svg>