<svg id="Ñëîé_1" data-name="Ñëîé 1" xmlns="http://www.w3.org/2000/svg" viewBox="0 0 500 500"><defs><style>.cls-1{fill:#064a5f;}.cls-2{opacity:0.1;}.cls-3{fill:#fff;}</style></defs><title>check</title><path class="cls-1" d="M494,250C494,62.83,432.78,6,250,6S6,62.83,6,250,67.22,494,250,494s244-56.83,244-244Z"/><path class="cls-2" d="M291.78,248.62,182,361.35,305.4,491.89C445.37,480.09,494,416.81,494,250c0-7.4-.11-14.58-.3-21.58l-92.47-82.82Z"/><path class="cls-3" d="M212.92,368.21a16.16,16.16,0,0,1-22.86,0L98.77,276.9a24.24,24.24,0,0,1,0-34.29l11.43-11.43a24.24,24.24,0,0,1,34.3,0l57,57,154-154a24.24,24.24,0,0,1,34.3,0l11.43,11.43a24.24,24.24,0,0,1,0,34.29Z"/></svg>