<svg id="Ñëîé_1" data-name="Ñëîé 1" xmlns="http://www.w3.org/2000/svg" viewBox="0 0 500 500"><defs><style>.cls-1{fill:#00b17c;}.cls-2{opacity:0.1;}.cls-3{fill:#fff;}</style></defs><title>building</title><path class="cls-1" d="M489.5,249c0-184.1-60.21-240-240-240S9.5,64.9,9.5,249s60.21,240,240,240,240-55.9,240-240Z"/><path class="cls-2" d="M403.4,180.48,353,192.89,308.22,116l-60.84,33.74L201.3,160.25l-2.88,51.84-1,22.08-24.71-53.69-13.69.89-15.87-41.45-10,30.89-12.48,29.76-15.36-7.68L95.6,382l77.86,102.53c22.56,3,47.83,4.41,76,4.41,166.71,0,230.6-48.08,239-201.86Z"/><path class="cls-3" d="M143.19,139.92h-18v40.56H95.6V382h77.15V180.48H143.19Zm4.89,197H120.27v-18h27.81v18Zm0-36.07H120.27v-18h27.81v18Zm0-36.07H120.27v-18h27.81v18Zm0-54.11v18H120.27v-18Z"/><path class="cls-3" d="M373.85,180.48V139.92h-18v40.56H326.25V382H403.4V180.48ZM378.73,337H350.92v-18h27.81Zm0-36.07H350.92v-18h27.81Zm0-36.07H350.92v-18h27.81Zm0-36.07H350.92v-18h27.81Z"/><path class="cls-3" d="M240.48,355h18V382h-18Z"/><path class="cls-3" d="M190.78,382h31.66V337h54.11V382h31.66V116L190.78,143.58Zm67.73-207.41h27.81v18H258.52Zm0,36.07h27.81v18H258.52Zm0,36.07h27.81v18H258.52Zm0,36.07h27.81v18H258.52ZM212.67,174.64h27.81v18H212.67Zm0,36.07h27.81v18H212.67Zm0,36.07h27.81v18H212.67Zm0,36.07h27.81v18H212.67Z"/></svg>