<svg id="katman_1" data-name="katman 1" xmlns="http://www.w3.org/2000/svg" viewBox="0 0 32 35"><defs><style>.cls-1{fill:#7cc144;}.cls-2{fill:#20713d;stroke:#20713d;stroke-miterlimit:10;stroke-width:0.25px;}.cls-3{fill:#22723f;}</style></defs><title>company</title><circle class="cls-1" cx="12.17" cy="19.27" r="7.17"/><path class="cls-2" d="M28.62,26.08V17a.89.89,0,0,0-.89-.89h-.67V15a2.76,2.76,0,0,0-2.37-2.73V8a1.4,1.4,0,0,0-1.4-1.4h-10A1.4,1.4,0,0,0,11.87,8v.93a8.52,8.52,0,0,0-5,1.87,7.19,7.19,0,0,0-2.54,5.73V20a.38.38,0,1,0,.77,0V16.49c0-4.71,3.8-6.85,7.33-6.85a8.91,8.91,0,0,1,1.85.19V25.92H5.14V21.79a.38.38,0,0,0-.38-.38h0a.38.38,0,0,0-.38.38v4.13H3.89a.89.89,0,0,0-.89.89v.74a.89.89,0,0,0,.89.89H28.11a.89.89,0,0,0,.89-.89v-.74A.89.89,0,0,0,28.62,26.08ZM26.29,15V16.1H25.16a.38.38,0,0,0,0,.77h2.56a.13.13,0,0,1,.12.12v8.93H26.2V23.45a.81.81,0,0,0-.81-.81h-2a.81.81,0,0,0-.81.81v2.47H20.73V16.87H23.4a.38.38,0,0,0,0-.77H22.31V15a2,2,0,1,1,4,0ZM23.34,25.92V23.45a0,0,0,0,1,0,0h2a0,0,0,0,1,0,0v2.47Zm-4.65,0V12.46a6.56,6.56,0,0,1,1.27,4v9.43Zm-.77-9.34H15.09v-1.7h2.83Zm0,.77V19H15.09v-1.7Zm0,2.46v1.7H15.09v-1.7Zm0-5.7H15.09v-1.7h2.83Zm-2.83,8.16h2.83V24H15.09Zm-1.82-15h10a.63.63,0,0,1,.63.63v4.3A2.76,2.76,0,0,0,21.54,15V16.1h-.83a7.09,7.09,0,0,0-2.14-4.92h0q-.21-.2-.44-.39a8.87,8.87,0,0,0-5.48-1.91V8A.63.63,0,0,1,13.27,7.32Zm4.37,4,.28.25v0H15.09V10A7.56,7.56,0,0,1,17.63,11.37ZM15.09,24.75h2.83v1.18H15.09Zm13.15,2.81a.13.13,0,0,1-.12.12H3.89a.12.12,0,0,1-.12-.12v-.74a.13.13,0,0,1,.12-.12H28.11a.13.13,0,0,1,.12.12Z"/><path class="cls-3" d="M12.6,19.59a2.11,2.11,0,0,0-.26-1h0l-.81-1.4h0l-.13-.21-.3-.51,0,0a.89.89,0,0,0-.73-.4.94.94,0,0,0-.78.45v0l-.41.67h0l-.82,1.4h0a2.09,2.09,0,0,0-.26,1,2.27,2.27,0,0,0,4.53,0Zm-3.77,0A1.34,1.34,0,0,1,9,18.94l.81-1.39.4-.66c.06-.08.11-.11.13-.11a.14.14,0,0,1,.09.06l.29.49.13.22.8,1.39a1.35,1.35,0,0,1,.17.65,1.5,1.5,0,0,1-3,0Z"/></svg>