<svg id="Ñëîé_1" data-name="Ñëîé 1" xmlns="http://www.w3.org/2000/svg" viewBox="0 0 500 500"><defs><style>.cls-1{fill:#81bda1;}.cls-2{fill:#70a38b;}.cls-3{fill:#fff;}</style></defs><title>Demo account</title><path class="cls-1" d="M492.91,250C492.91,63.66,432,7.09,250,7.09S7.09,63.66,7.09,250,68,492.91,250,492.91,492.91,436.34,492.91,250Z"/><polygon class="cls-2" points="352.68 105.92 421.33 206.28 200.77 368.87 136.78 284.65 300.2 146.03 352.68 105.92"/><polygon class="cls-3" points="297.64 115.02 352.68 105.92 329.34 156.59 320.28 144.72 136.78 284.65 123.19 266.83 306.7 126.9 297.64 115.02 297.64 115.02"/><path class="cls-2" d="M259.15,492.86q3.63,0,7.2-.11l1.17,0,6.42-.17,1.27,0q3.46-.11,6.85-.26l1.56-.07q3.28-.15,6.51-.33l.43,0c2.23-.13,4.42-.27,6.61-.42l1.61-.11q3.19-.23,6.33-.49l1.2-.11q2.74-.24,5.43-.5l1.44-.14q3-.3,5.94-.64l1.6-.19q2.66-.32,5.27-.66l.89-.12c1.9-.26,3.78-.53,5.65-.81l1.7-.26q2.74-.42,5.42-.88l1.31-.23q2.24-.39,4.44-.81l1.6-.3q2.55-.5,5-1l1.66-.36q2.09-.45,4.14-.93l1.26-.29c1.6-.38,3.18-.78,4.76-1.19l1.75-.46c1.54-.41,3.07-.83,4.58-1.26l1.39-.41q1.79-.52,3.54-1.07l1.68-.53q2.14-.68,4.23-1.4l1.68-.59q1.61-.57,3.19-1.16l1.55-.58q2-.75,3.87-1.53l1.73-.72q1.72-.72,3.4-1.46l1.86-.84q1.39-.64,2.76-1.29l1.68-.81q1.77-.87,3.5-1.78l1.64-.88,2.43-1.34,1.73-1q1.54-.89,3.05-1.82l1.66-1q1.24-.78,2.45-1.58l2.1-1.41q1.07-.73,2.13-1.48l1.6-1.15q1.45-1.07,2.87-2.16l1.53-1.21,1.84-1.5c.58-.48,1.15-1,1.72-1.44q1.22-1,2.4-2.11l1.51-1.38q.9-.84,1.78-1.69,1-1,2.07-2,.82-.83,1.63-1.67l1.43-1.51q1.18-1.27,2.32-2.57c.45-.52.9-1,1.34-1.56l1.41-1.68c.51-.61,1-1.23,1.51-1.85q1-1.23,1.93-2.49.65-.86,1.29-1.74t1.34-1.86q.92-1.3,1.81-2.63.64-1,1.28-1.92t1.2-1.87q.83-1.31,1.63-2.65.68-1.13,1.34-2.28.56-1,1.1-1.94c.36-.65.72-1.29,1.07-1.94,20.06-37.19,28.54-88.62,28.54-158.11,0-9.74-.18-19.11-.52-28.16L394.49,118l0,244.93v32.86h-289L201,491.29h.06l3.7.25,3,.19,3.75.21,3.23.16,3.56.17q3.18.14,6.41.24l2.63.07,4.76.12,2.86.06,5,.08,2.5,0c2.5,0,5,0,7.57,0s5,0,7.52,0Z"/><polygon class="cls-3" points="118.93 324.8 151.05 329.28 172.7 297.17 221.25 266.55 239.17 226.22 294.44 231.45 313.85 194.85 337 216.51 394.51 117.93 394.51 395.75 105.49 395.75 105.49 362.89 118.93 324.8 118.93 324.8"/></svg>