<?xml version="1.0" encoding="utf-8"?>
<!-- Generator: Adobe Illustrator 21.0.0, SVG Export Plug-In . SVG Version: 6.00 Build 0)  -->
<svg version="1.1" id="Capa_1" xmlns="http://www.w3.org/2000/svg" xmlns:xlink="http://www.w3.org/1999/xlink" x="0px" y="0px"
	 viewBox="0 0 512 512" style="enable-background:new 0 0 512 512;" xml:space="preserve">
<style type="text/css">
	.st0{fill:#7BC144;}
	.st1{fill:#00703D;}
	.st2{fill:#FFFFFF;}
</style>
<title>demo</title>
<circle class="st0" cx="256" cy="256" r="252.8"/>
<circle class="st0" cx="255.9" cy="256" r="185.7"/>
<path class="st1" d="M256,2.7C116.3,2.7,2.7,116.3,2.7,256C2.7,314,22.6,370.2,59,415.3c3.3,4.5,9.7,5.4,14.2,2.1
	c4.5-3.3,5.4-9.7,2.1-14.2l0,0c-0.2-0.2-0.4-0.5-0.6-0.7C41.2,361,23,309.3,22.9,256C22.9,127.5,127.5,22.9,256,22.9
	S489.1,127.5,489.1,256S384.5,489.1,256,489.1c-53.3,0-105-18.3-146.5-51.8c-4.5-3.3-10.9-2.3-14.2,2.2c-3.1,4.2-2.5,10,1.4,13.5
	c45.1,36.4,101.3,56.3,159.2,56.3c139.7,0,253.3-113.6,253.3-253.3S395.7,2.7,256,2.7z"/>
<path class="st1" d="M398.9,137.3c-3.5-4.4-9.8-5.2-14.3-1.7c-4.4,3.5-5.2,9.8-1.7,14.3c0.1,0.2,0.2,0.3,0.4,0.5
	C408,180,421.5,217.4,421.5,256c0,91.3-74.3,165.5-165.5,165.5S90.5,347.3,90.5,256S164.7,90.5,256,90.5c31.6,0,62.5,9,89.1,26
	c4.9,2.6,11.1,0.7,13.7-4.2c2.3-4.4,1.1-9.8-2.8-12.8c-29.8-19.1-64.6-29.3-100-29.3C153.6,70.2,70.2,153.6,70.2,256
	S153.6,441.8,256,441.8S441.8,358.4,441.8,256C441.8,212.6,426.6,170.6,398.9,137.3z"/>
<g>
	<path class="st2" d="M219.3,210.1v32.6h-18.4c-2.5,0-4.6,2.9-4.6,6.5v65.2c0,3.6,2.1,6.5,4.6,6.5h18.4v32.6h9.2v-32.6h18.4
		c2.5,0,4.6-2.9,4.6-6.5v-65.2c0-3.6-2.1-6.5-4.6-6.5h-18.4v-32.6H219.3z"/>
	<path class="st2" d="M329.5,320.9h18.4v32.6h9.2v-32.6h18.4c2.5,0,4.6-2.9,4.6-6.5v-65.2c0-3.6-2.1-6.5-4.6-6.5H357v-32.6h-9.2
		v32.6h-18.4c-2.5,0-4.6,2.9-4.6,6.5v65.2C324.9,318,326.9,320.9,329.5,320.9z"/>
	<path class="st2" d="M136.6,275.3H155v32.6h9.2v-32.6h18.4c2.5,0,4.6-2.9,4.6-6.5v-65.2c0-3.6-2.1-6.5-4.6-6.5h-18.4v-32.6H155
		v32.6h-18.4c-2.5,0-4.6,2.9-4.6,6.5v65.2C132,272.4,134.1,275.3,136.6,275.3z M141.2,210.1h36.7v52.2h-36.7L141.2,210.1z"/>
	<path class="st2" d="M283.6,171v32.6h-18.4c-2.5,0-4.6,2.9-4.6,6.5v65.2c0,3.6,2.1,6.5,4.6,6.5h18.4v32.6h9.2v-32.6h18.4
		c2.5,0,4.6-2.9,4.6-6.5v-65.2c0-3.6-2.1-6.5-4.6-6.5h-18.4V171H283.6z M306.5,216.6v52.2h-36.7v-52.2H306.5z"/>
</g>
</svg>
