<svg id="katman_1" data-name="katman 1" xmlns="http://www.w3.org/2000/svg" viewBox="0 0 100 125"><defs><style>.cls-1{fill:#7cc144;}.cls-2{fill:#22723f;}</style></defs><title>form</title><circle class="cls-1" cx="42.15" cy="67.84" r="23.16"/><path class="cls-2" d="M17,5a2.08,2.08,0,0,0-2,2V93a2.08,2.08,0,0,0,2,2H69a2,2,0,0,0,1.42-.6l14-14A2.25,2.25,0,0,0,85,79V7a2.08,2.08,0,0,0-2-2Zm2,4H81V77H69a2,2,0,0,0-2,2V91H19Zm6,6a2.17,2.17,0,0,0-2,2V31a2.08,2.08,0,0,0,2,2H43a2.08,2.08,0,0,0,2-2V17a2.09,2.09,0,0,0-2-2Zm2,4H41V29H27Zm24,3a2,2,0,0,0-2,2,2,2,0,0,0,2,2H75a2,2,0,0,0,2-2,2,2,0,0,0-2-2ZM46.81,37a2.12,2.12,0,0,0-1.49.89L37.46,49.22l-4.32-2.91a2.12,2.12,0,0,0-2.83.57,2.06,2.06,0,0,0,.57,2.76l6,4a2.07,2.07,0,0,0,2.8-.53l9-13A2.07,2.07,0,0,0,48.76,38,2.09,2.09,0,0,0,46.81,37ZM25,39a2.16,2.16,0,0,0-2,2V59a2.05,2.05,0,0,0,2,2H43a2.06,2.06,0,0,0,2-2V57A2.12,2.12,0,0,0,43,55,2.07,2.07,0,0,0,41,57H27V43H37a2,2,0,1,0,0-4Zm26,9a2,2,0,0,0,0,4H75a2,2,0,1,0,0-4ZM25,67a2.13,2.13,0,0,0-2,2V83a2.08,2.08,0,0,0,2,2H43a2.09,2.09,0,0,0,2-2V69a2.08,2.08,0,0,0-2-2Zm2,4H41V81H27Zm24,3a2,2,0,0,0-2,2,2,2,0,0,0,2,2H63a2,2,0,0,0,2-2,2,2,0,0,0-2-2Zm20,7h7.16L71,88.16Z"/></svg>