<svg id="katman_1" data-name="katman 1" xmlns="http://www.w3.org/2000/svg" viewBox="0 0 496 496"><defs><style>.cls-1{fill:#00b17c;}.cls-2{fill:#064a5f;}</style></defs><title>Form</title><path class="cls-1" d="M328,72V32H192V144H368V72Z"/><path class="cls-1" d="M160,464H32V352H160Z"/><path class="cls-2" d="M472,240H400V68.7L331.3,0H0V496H400V448h72a24.07,24.07,0,0,0,24-24V264A24.07,24.07,0,0,0,472,240ZM336,27.3,372.7,64H336ZM384,480H16V16H320V80h64V240H216a24.07,24.07,0,0,0-24,24V424a24.07,24.07,0,0,0,24,24H384Zm96-56a8,8,0,0,1-8,8H216a8,8,0,0,1-8-8V264a8,8,0,0,1,8-8H472a8,8,0,0,1,8,8Z"/><path class="cls-2" d="M368,288a16,16,0,0,0-16-16H240a16,16,0,0,0-16,16v48a16,16,0,0,0,16,16H352a16,16,0,0,0,16-16Zm-16,48H240V288H352Z"/><path class="cls-2" d="M384,272h80v16H384Z"/><path class="cls-2" d="M384,304h80v16H384Z"/><path class="cls-2" d="M224,368h32v16H224Z"/><path class="cls-2" d="M272,368h32v16H272Z"/><path class="cls-2" d="M320,368h32v16H320Z"/><path class="cls-2" d="M224,400H352v16H224Z"/><path class="cls-2" d="M432,352a26.66,26.66,0,0,0-5.6.6l-1.7.3a33.76,33.76,0,0,0-4.2,1.3,27.18,27.18,0,0,0-2.5,1.1,12.44,12.44,0,0,0-2,1,32,32,0,1,0-16,59.6,31.07,31.07,0,0,0,16-4.4c.7.4,1.4.7,2,1a18.89,18.89,0,0,0,2.5,1.1,33.75,33.75,0,0,0,4.2,1.3l1.7.3a34.28,34.28,0,0,0,5.6.6,31.9,31.9,0,1,0,0-63.8Zm-48,32a16,16,0,0,1,16-16,18.44,18.44,0,0,1,4.1.6,31,31,0,0,0,0,30.8,14,14,0,0,1-4.1.6A16,16,0,0,1,384,384Zm48,16a15.26,15.26,0,0,1-3-.3,21.72,21.72,0,0,1-2.4-.7c-.1,0-.2-.1-.4-.1a14.07,14.07,0,0,1-4.9-3.1l-.9-.8a16,16,0,0,1,0-22l.9-.8a17.39,17.39,0,0,1,5-3.1.6.6,0,0,1,.4-.1,20.16,20.16,0,0,1,2.3-.7,15.26,15.26,0,0,1,3-.3,16,16,0,0,1,0,32Z"/><path class="cls-2" d="M87.5,412.2,69.7,394.4,58.4,405.7l30.2,30.2,93.6-110.6L170,315Z"/><path class="cls-2" d="M208,200.1a40.17,40.17,0,0,0-29-38.5l-27-7.7v-4.1a55.86,55.86,0,0,0,24-45.9V88A56,56,0,0,0,64,88v16a55.86,55.86,0,0,0,24,45.9V154l-27,7.7a40.17,40.17,0,0,0-29,38.5V224H208ZM80,104V88a40,40,0,0,1,80,0v16a40,40,0,0,1-80,0Zm54.7,54L120,172.7,105.3,158a55,55,0,0,0,29.4,0ZM192,208H48v-7.9A24.12,24.12,0,0,1,65.4,177l28.3-8.1L120,195.2l26.3-26.3,28.3,8.1A24.12,24.12,0,0,1,192,200.1Z"/><path class="cls-2" d="M32,240H176v16H32Z"/><path class="cls-2" d="M32,272H176v16H32Z"/><path class="cls-2" d="M32,304h96v16H32Z"/><path class="cls-2" d="M224,208H368v16H224Z"/><path class="cls-2" d="M224,176H368v16H224Z"/></svg>