<svg id="Ñëîé_1" data-name="Ñëîé 1" xmlns="http://www.w3.org/2000/svg" viewBox="0 0 500 500"><defs><style>.cls-1{fill:#00b17c;}.cls-2{opacity:0.1;}.cls-3{fill:#fff;}</style></defs><title>gold</title><path class="cls-1" d="M491,250C491,65.13,430.54,9,250,9S9,65.13,9,250,69.46,491,250,491s241-56.13,241-241Z"/><path class="cls-2" d="M328.59,139.35l-20.14,23-51.91-53.2-15.42,46.91,55.64,61.37-27.71,8.11L210,164.09l-14.06,13.64,50.89,54.33-26.87,7.87-55.61,50,33.43,41.62L164,354.65,83,386.46l79.19,98.39C187.67,489.09,216.8,491,250,491c157.92,0,224-42.95,238-177.44Z"/><path class="cls-3" d="M250,161.07a9.81,9.81,0,0,0,9.81-9.81V116.6a9.81,9.81,0,1,0-19.62,0v34.66A9.81,9.81,0,0,0,250,161.07Z"/><path class="cls-3" d="M195.89,177.73a9.81,9.81,0,0,0,13.87-13.87l-24.51-24.51a9.81,9.81,0,0,0-13.87,13.87Z"/><path class="cls-3" d="M297.15,180.6a9.77,9.77,0,0,0,6.94-2.87l24.51-24.51a9.81,9.81,0,1,0-13.87-13.87l-24.51,24.51a9.82,9.82,0,0,0,6.94,16.74Z"/><path class="cls-3" d="M335.67,289.89l-24-76.82a9.81,9.81,0,0,0-9.36-6.88H197.68a9.81,9.81,0,0,0-9.36,6.88l-24,76.82Z"/><path class="cls-3" d="M394.76,309.51H283.36C257.93,390.88,259.8,384.4,259.8,386a7.21,7.21,0,0,0,7.21,7.21H407.35a9.81,9.81,0,0,0,9.59-12.73Z"/><path class="cls-3" d="M239.85,383.84l-23.23-74.34H105.21L83.1,380.26a9.81,9.81,0,0,0,9.3,12.95H233A7.21,7.21,0,0,0,239.85,383.84Z"/></svg>