<svg id="Ñëîé_1" data-name="Ñëîé 1" xmlns="http://www.w3.org/2000/svg" viewBox="0 0 500 500"><defs><style>.cls-1{fill:#00b17c;}.cls-2{opacity:0.1;}.cls-3{fill:#fff;}</style></defs><title>credit card 2</title><path class="cls-1" d="M497,250C497,60.53,435,3,250,3S3,60.53,3,250,65,497,250,497s247-57.53,247-247Z"/><path class="cls-2" d="M495.55,296.33,341.45,119.86,199.31,150.21,95.57,254l13.83,117.57,33.95,43.85-6-1.19,59.94,80.36A453,453,0,0,0,250,497C419,497,485.32,449,495.55,296.33Z"/><path class="cls-3" d="M115.76,378.92c-29.26-44-53.15-89.57-38.63-145,8.2-31.26,28.65-53.93,54.09-72.61a259.55,259.55,0,0,1,74-37.52c7.81-2.55,9.31-6.32,7.32-13.75-2.83-10.25-4.77-20.73-7.48-32.81l136.35,42.62L236.14,216.41c-2.77-12.19-5.54-22.78-7.54-33.25-.89-4.38-2.22-5.54-6.71-3.77-32.26,11.64-62.69,26.71-85.52,53.87a92.28,92.28,0,0,0-22.17,76.65C118.42,332.8,116.26,355.7,115.76,378.92Z"/><path class="cls-3" d="M375.66,387.54h-97V344.86h97v42.68Zm-107.6-97.06H162.42V277.54H268.06v12.93Zm-21.13,28.89H162.42V306.43h84.51v12.94Zm146.51-72.49H152.22A18.11,18.11,0,0,0,134.11,265v138.4a18.11,18.11,0,0,0,18.11,18.11H393.45a18.11,18.11,0,0,0,18.11-18.11V265a18.11,18.11,0,0,0-18.11-18.11Z"/></svg>