<svg id="Capa_1" data-name="Capa 1" xmlns="http://www.w3.org/2000/svg" viewBox="0 0 512 512"><defs><style>.cls-1{fill:#7bc144;opacity:0.8;isolation:isolate;}.cls-2{fill:#fff;}</style></defs><title>headset</title><circle class="cls-1" cx="195.2" cy="316.8" r="145.2"/><path class="cls-2" d="M480.1,247.7V226.8A220.26,220.26,0,0,0,415.2,70a7.49,7.49,0,0,0-1.11-.85C407,62.5,399.24,56,394.29,52A7.42,7.42,0,0,0,393,50.7C295.7-23.7,156.5-5.1,82.2,92.2A222.09,222.09,0,0,0,36.7,226.8v19.6a38.68,38.68,0,0,0-31.5,38V392.2a38.67,38.67,0,0,0,38.7,38.7H94.3A22,22,0,0,0,115,445.6h14.4a22.06,22.06,0,0,0,22-22V253.2a22.06,22.06,0,0,0-22-22H115a22.11,22.11,0,0,0-20.8,14.7H85.6v-19c0-95.2,77.5-172.7,172.7-172.7S431,131.7,431,226.9v19H417.7A22.21,22.21,0,0,0,397,231.1H382.6a22.06,22.06,0,0,0-22,22V423.6a22.06,22.06,0,0,0,20.9,22,27.42,27.42,0,0,1-26.4,20H304a34.22,34.22,0,0,0-33.3-26.5H238.2a33.81,33.81,0,0,0-1.2,67.6h33.6a34.13,34.13,0,0,0,33.3-26.4H355a42,42,0,0,0,41.4-34.7h.5a22,22,0,0,0,20.7-14.7H468a38.67,38.67,0,0,0,38.7-38.7V284.5A38.57,38.57,0,0,0,480.1,247.7Z"/></svg>