<svg id="katman_1" data-name="katman 1" xmlns="http://www.w3.org/2000/svg" viewBox="0 0 500 200"><defs><style>.cls-1{fill:#06855f;}.cls-2{fill:#96c2cc;}.cls-3{fill:#064a5f;}</style></defs><title>TrendFX logo</title><path class="cls-1" d="M102.14,69H76.6V139H68.3V69H42.76V61h59.38Z"/><path class="cls-1" d="M132.55,81.89v8.29h-1A17.72,17.72,0,0,0,117,97.38a25.94,25.94,0,0,0-5.31,16.37V139h-8.29V82.78h8.29v13.6q2.65-8.62,11.5-12.72A20.15,20.15,0,0,1,132,81.89Z"/><path class="cls-1" d="M164.73,131.43q11.17,0,16-9.29h9.07a26.69,26.69,0,0,1-9.12,12.16Q174.46,139,164.62,139q-12.5,0-20.35-8.29-7.63-8.07-7.63-20.24t7.3-20.24q7.74-8.29,20.13-8.29t20.13,8.29q7.3,8,7.3,20.24v3.32H145.16a20.07,20.07,0,0,0,6.08,12.61A18.7,18.7,0,0,0,164.73,131.43Zm-.66-42a18.3,18.3,0,0,0-12.83,4.76,19.63,19.63,0,0,0-6,11.83h37.6a19.65,19.65,0,0,0-6-11.83A18.3,18.3,0,0,0,164.07,89.41Z"/><path class="cls-1" d="M210,82.78V91.4a27.77,27.77,0,0,1,7.3-6.75,17.85,17.85,0,0,1,9.84-2.76,26.24,26.24,0,0,1,9.51,1.55,19.3,19.3,0,0,1,7,4.64q6.85,6.75,6.86,17.8V139h-8.29V106.11q0-7.63-4.31-12.17a14.73,14.73,0,0,0-11.17-4.53,16.5,16.5,0,0,0-11.83,4.65A16.27,16.27,0,0,0,210,106.22V139h-8.29V82.78Z"/><path class="cls-1" d="M307.38,129.22Q300.75,139,287.59,139q-11.94,0-19.46-8.29-7.3-8.18-7.3-20.24t7.3-20.24q7.52-8.29,20-8.29t19.24,9.84V61h8.29V139h-8.29Zm-18.69,2.21q9,0,14.15-6.19,5-5.86,5-14.82t-5-14.82q-5.2-6.19-14.15-6.19a18.37,18.37,0,0,0-14.38,6.19q-5.2,5.86-5.2,14.82t5.2,14.82A18.36,18.36,0,0,0,288.69,131.43Z"/><polygon class="cls-2" points="416.76 85.1 398.94 61.43 392.67 61.43 413.32 89.63 416.76 85.1"/><polygon class="cls-2" points="424.36 85.19 442.32 61.43 448.6 61.43 427.8 89.71 424.36 85.19"/><polygon class="cls-3" points="340.71 72.83 385.28 72.83 385.28 62.56 330.12 62.56 330.12 138.07 340.71 138.07 340.71 106.33 380.41 106.33 380.41 95.96 340.71 95.96 340.71 72.83"/><polygon class="cls-3" points="426.62 98.4 420.61 90.56 414.73 98.39 384.11 138.07 397.53 138.07 420.62 107.42 443.82 138.07 457.24 138.07 426.62 98.4"/></svg>