<svg id="Capa_1" data-name="Capa 1" xmlns="http://www.w3.org/2000/svg" viewBox="0 0 512 512"><defs><style>.cls-1{fill:#87e8d8;}.cls-2{fill:#e3e7f2;}.cls-3{fill:#fff;}.cls-4{fill:#3db2a3;}</style></defs><title>hizli-gbp</title><circle class="cls-1" cx="256" cy="256" r="246.15"/><ellipse class="cls-2" cx="256" cy="256" rx="216.61" ry="246.15"/><path class="cls-3" d="M39.38,256c0-135.95,97-246.15,216.62-246.15C120.05,9.85,9.85,120.05,9.85,256S120.05,502.15,256,502.15C136.37,502.15,39.38,391.95,39.38,256Z"/><path class="cls-4" d="M256,512C114.61,512,0,397.39,0,256S114.61,0,256,0,512,114.61,512,256C511.84,397.32,397.32,511.84,256,512Zm0-492.31C125.49,19.69,19.69,125.49,19.69,256S125.49,492.31,256,492.31,492.31,386.51,492.31,256C492.16,125.55,386.45,19.84,256,19.69Z"/><path class="cls-4" d="M158.56,388.15V354h3.34c22.64,0,38.23-4.83,47.51-14.11a46.57,46.57,0,0,0,14.11-33.78c0-6.31-2.6-14.85-7.79-25.24H175.26V247.46h21.9q-15.59-27.84-15.59-46.77c0-21.16,7.79-39.35,23.76-54.2,16-15.22,34.89-22.64,57.54-22.64,21.9,0,40.83,7.79,56.05,23,15.59,15.22,23.39,33.41,23.39,55.31H301.47c0-19.67-17.08-36.38-38.23-36.38a36.23,36.23,0,0,0-26.36,11.14,37.6,37.6,0,0,0-10.76,26.73c0,10.39,5.94,24.87,18.19,43.8H303.7v33.41H262.13c4.08,9.28,6.31,17.45,6.31,25.24,0,20.42-6.31,34.89-18.56,43.06H353.44v39Z"/></svg>