<svg id="Ñëîé_1" data-name="Ñëîé 1" xmlns="http://www.w3.org/2000/svg" viewBox="0 0 500 500"><defs><style>.cls-1{fill:#00b17c;}.cls-2{opacity:0.1;}.cls-3{fill:#fff;}</style></defs><title>Advantages 4</title><path class="cls-1" d="M491.49,250C491.49,64.75,430.9,8.51,250,8.51S8.51,64.75,8.51,250,69.1,491.49,250,491.49,491.49,435.25,491.49,250Z"/><path class="cls-2" d="M276.89,491c157.51-5.57,212.84-63.42,214.55-232.76l-126.52-131L294.4,133l29.06,29.33,5.25,18.53-43.19-44.34-39.93-7.73-25.17,19.37-21.09-20.8-38.11-9.52-31.55,12.88-.87,2.28,36,39-15.18-1.34,92.92,101.5-4.05,1.53-1.08-.16-58.16-60.37-33.49-1.93-1.13,11.18-14.33-21.49-22.21,14.88L136.76,253l7.09-22.79-4.51,44.68-9,14.17,88.42,109.33-11.95,6.82Z"/><g id="Glyph"><path class="cls-3" d="M247.41,120.64a56.92,56.92,0,0,0-5.17,113.58v17.65A46.36,46.36,0,0,0,206,234.48H180.14v10.35a46.64,46.64,0,0,0,46.57,46.57h15.52v20.7H185.32v31h11.13l10.35,62.1H288l10.35-62.1h11.13v-31H252.59V301.75h15.52a46.64,46.64,0,0,0,46.57-46.57V244.83H288.81a46.36,46.36,0,0,0-36.22,17.39v-28a56.92,56.92,0,0,0-5.17-113.58Zm10.35,82.79h-5.17v10.35H242.24V203.43H226.71V193.09h31a5.17,5.17,0,0,0,0-10.35h-20.7a15.52,15.52,0,1,1,0-31h5.17V141.34h10.35v10.35h15.52V162h-31a5.17,5.17,0,1,0,0,10.35h20.7a15.52,15.52,0,1,1,0,31Z"/><path class="cls-3" d="M333.88,96.27a5.22,5.22,0,0,0-7.35,0l-31,31A5.17,5.17,0,0,0,294.4,133a5.11,5.11,0,0,0,4.76,3.21h15.52v51.75a5.17,5.17,0,0,0,5.17,5.17h20.7a5.17,5.17,0,0,0,5.17-5.17V136.17h15.52A5.11,5.11,0,0,0,366,133a5.17,5.17,0,0,0-1.09-5.64Z"/><path class="cls-3" d="M108.11,215.75a5.11,5.11,0,0,0,4.76,3.21H128.4v67.27a5.17,5.17,0,0,0,5.17,5.17h20.7a5.17,5.17,0,0,0,5.17-5.17V219H175a5.11,5.11,0,0,0,4.76-3.21,5.17,5.17,0,0,0-1.09-5.64l-31-31a5.22,5.22,0,0,0-7.35,0l-31,31A5.17,5.17,0,0,0,108.11,215.75Z"/><path class="cls-3" d="M168.29,96.27a5.22,5.22,0,0,0-7.35,0l-31,31a5.17,5.17,0,0,0-1.09,5.64,5.11,5.11,0,0,0,4.76,3.21H149.1v31a5.17,5.17,0,0,0,5.17,5.17H175a5.17,5.17,0,0,0,5.17-5.17v-31h15.52a5.11,5.11,0,0,0,4.76-3.21,5.17,5.17,0,0,0-1.09-5.64Z"/><path class="cls-3" d="M371.6,270.7v-31h15.52a5.11,5.11,0,0,0,4.76-3.21,5.17,5.17,0,0,0-1.09-5.64l-31-31a5.22,5.22,0,0,0-7.35,0l-31,31a5.17,5.17,0,0,0-1.09,5.64,5.11,5.11,0,0,0,4.76,3.21h15.52v31a5.17,5.17,0,0,0,5.17,5.17h20.7A5.17,5.17,0,0,0,371.6,270.7Z"/></g></svg>