<svg id="Capa_1" data-name="Capa 1" xmlns="http://www.w3.org/2000/svg" viewBox="0 0 512 512"><defs><style>.cls-1{fill:#7bc144;opacity:0.8;}.cls-2{fill:#20713d;}</style></defs><title>3</title><circle class="cls-1" cx="195.2" cy="316.8" r="145.2"/><path class="cls-2" d="M405.33,95.45l-5-35.79a6.8,6.8,0,0,0-7.77-5.78l-39.43,6a6.8,6.8,0,0,0,2.06,13.45l23-3.52c-30.72,38-63.77,70.34-98.38,96.26-30.12,22.56-61.48,40.34-93.21,52.85-54,21.29-90.89,19.89-91.25,19.88a6.8,6.8,0,0,0-.65,13.59c.22,0,1.15.05,2.74.05,9.8,0,44.68-1.5,93.29-20.53,33-12.9,65.5-31.25,96.7-54.56,35.85-26.78,70-60.21,101.72-99.48l2.72,19.42a6.8,6.8,0,0,0,6.73,5.86,6.87,6.87,0,0,0,1-.07A6.8,6.8,0,0,0,405.33,95.45Z"/><path class="cls-2" d="M482.08,420.75h-55a82.8,82.8,0,0,0,12.72-10.42,82,82,0,0,0-18.15-129.67V253.2a6.8,6.8,0,1,0-13.61,0v21.42a81.8,81.8,0,0,0-57,1.68V192.74a1.6,1.6,0,0,1,1.6-1.6h53.83a1.6,1.6,0,0,1,1.6,1.6v16.89a6.8,6.8,0,1,0,13.61,0V192.74a15.22,15.22,0,0,0-15.2-15.2H352.63a15.22,15.22,0,0,0-15.2,15.2v90.64a82,82,0,0,0-13.6,127,82.85,82.85,0,0,0,12.72,10.42h-43V254.47a15.22,15.22,0,0,0-15.2-15.2H224.55a15.22,15.22,0,0,0-15.2,15.2V420.75H165.5V310.43a15.22,15.22,0,0,0-15.2-15.2H96.46a15.22,15.22,0,0,0-15.2,15.2V420.75h-28V70.88A12.57,12.57,0,0,0,40.69,58.33H29.92A12.57,12.57,0,0,0,17.37,70.88v48.3a6.8,6.8,0,0,0,13.61,0V71.94h8.66V421.8a12.57,12.57,0,0,0,12.55,12.55H481V444.6H31V162.17a6.8,6.8,0,0,0-13.61,0V445.65A12.57,12.57,0,0,0,29.92,458.2H482.08a12.57,12.57,0,0,0,12.55-12.55V433.3A12.57,12.57,0,0,0,482.08,420.75Zm-330.18,0h-57V310.43a1.6,1.6,0,0,1,1.6-1.6H150.3a1.6,1.6,0,0,1,1.6,1.6V420.75Zm71.06,0V254.47a1.6,1.6,0,0,1,1.6-1.6h53.83a1.6,1.6,0,0,1,1.6,1.6V420.75H223Zm188.92-7a68.82,68.82,0,0,1-22,6.47l-.38,0-1.56.16c-.8.07-1.59.13-2.39.18l-.76,0c-1,0-2,.07-2.95.07s-2,0-3-.07l-.93,0c-.74,0-1.48-.1-2.22-.16l-1.83-.19-1.31-.16-1.85-.28-.24,0a68.31,68.31,0,0,1-22.85-8.2l-.11-.06a68.75,68.75,0,0,1-14.07-10.83,68.42,68.42,0,0,1,16.36-108.83l.5-.26a68.69,68.69,0,0,1,57-2.76l.43.17c.85.34,1.69.71,2.52,1.09l1,.47a68.44,68.44,0,0,1,.88,123.11Z"/><path class="cls-2" d="M385,345.75V321.52c8.36.6,11.46,4.42,14.32,4.42,3.58,0,5.25-4.54,5.25-6.8,0-5.85-11.46-8.36-19.58-8.59v-3.22c0-1.43-1.79-2.75-3.58-2.75-2,0-3.46,1.31-3.46,2.75v3.46c-11.34,1.19-22.68,7.16-22.68,22.2,0,15.28,11.94,19.58,22.68,23.4v28.05c-12.18-1-15.4-9.31-19.34-9.31-3,0-5.49,3.94-5.49,6.8,0,5.85,10,13.85,24.83,14.09h0v3.7c0,1.43,1.43,2.75,3.46,2.75,1.79,0,3.58-1.31,3.58-2.75v-4.06c12.89-1.79,21.72-9.91,21.72-24.59C406.71,354.82,395.37,349.57,385,345.75Zm-6.32-2.27c-6.33-2.39-11.46-4.89-11.46-11.7,0-6.21,4.77-9.19,11.46-10Zm5.61,40.7V359c5.85,2.51,10.5,5.85,10.5,13.37C394.77,379.18,390.71,383,384.27,384.19Z"/></svg>