<svg id="Capa_1" data-name="Capa 1" xmlns="http://www.w3.org/2000/svg" viewBox="0 0 512 512"><defs><style>.cls-1{fill:#7bc144;opacity:0.8;}.cls-2{fill:#20713d;}</style></defs><title>1b</title><circle class="cls-1" cx="195.2" cy="316.8" r="145.2"/><path class="cls-2" d="M209,140.82A68.38,68.38,0,1,0,140.6,209.2,68.45,68.45,0,0,0,209,140.82ZM140.59,194.6a53.78,53.78,0,1,1,53.78-53.78,53.84,53.84,0,0,1-53.78,53.78Z"/><path class="cls-2" d="M488.78,286.69V45.17A36.42,36.42,0,0,0,452.41,8.79H59.59A36.42,36.42,0,0,0,23.22,45.17v79.22a7.3,7.3,0,0,0,14.59,0V45.17A21.81,21.81,0,0,1,59.59,23.39H190.53v8.17a23.72,23.72,0,0,0,23.69,23.69h83.56a23.72,23.72,0,0,0,23.69-23.69V23.39H452.41a21.81,21.81,0,0,1,21.78,21.78V286.35H37.81V158.27a7.3,7.3,0,0,0-14.59,0V286.69A19.88,19.88,0,0,0,6.94,306.2V326.7A19.88,19.88,0,0,0,26.8,346.56H160.32L131.15,480.68c-2.63,11.22,6.81,22.81,18.33,22.52H177a18.77,18.77,0,0,0,18.35-15l9.53-43.93a7.3,7.3,0,0,0-14.26-3.1l-9.55,44,0,.12a4.14,4.14,0,0,1-4.05,3.31H149.47c-3.15-.47-4.17-1.73-4.05-4.89l29.83-137.16h36L200,398.32l-7.65-3a7.3,7.3,0,0,0-5.39,13.56l47.89,19.05a57.09,57.09,0,0,0,42.37,0l24.24-9.64,15.18,70a18.77,18.77,0,0,0,18.35,15h27.57c11.52.29,21-11.3,18.33-22.52L357.28,372.27a7.3,7.3,0,1,0-14.26,3.1l23.56,108.34c.12,3.16-.9,4.42-4.05,4.89H335a4.14,4.14,0,0,1-4.05-3.31l0-.12-15.71-72.39,9.91-3.94a7.3,7.3,0,1,0-5.39-13.56l-7.65,3L300.8,346.55H485.2a19.88,19.88,0,0,0,19.86-19.86V306.2a19.87,19.87,0,0,0-16.27-19.52ZM306.88,31.56a9.11,9.11,0,0,1-9.1,9.1H214.22a9.11,9.11,0,0,1-9.1-9.1V23.39H306.88v8.17ZM298.29,403.8l-26.5,10.54a42.56,42.56,0,0,1-31.58,0l-26.5-10.54,12.42-57.24h59.73Zm192.18-77.1A5.27,5.27,0,0,1,485.2,332H26.8a5.27,5.27,0,0,1-5.26-5.26V306.21a5.27,5.27,0,0,1,5.26-5.26H485.2a5.27,5.27,0,0,1,5.26,5.26V326.7Z"/><path class="cls-2" d="M337.28,141.83l-7.7-7.7a17.84,17.84,0,0,0-25.2,0l-59,59a7.3,7.3,0,0,0,10.32,10.32l59-59a3.23,3.23,0,0,1,4.56,0l7.7,7.7a17.84,17.84,0,0,0,25.2,0L429,75.32v27.51a7.3,7.3,0,0,0,14.59,0V57.7a7.35,7.35,0,0,0-7.3-7.3H391.16a7.3,7.3,0,0,0,0,14.59h27.51l-76.83,76.83A3.23,3.23,0,0,1,337.28,141.83Z"/><path class="cls-2" d="M241.77,255.81a14.58,14.58,0,0,0,14.56,14.56h19.31a14.58,14.58,0,0,0,14.56-14.56V236.49a14.58,14.58,0,0,0-14.56-14.56H256.34a14.58,14.58,0,0,0-14.56,14.56Zm33.85-19.31,0,19.28-19.29,0,0-19.28Z"/><path class="cls-2" d="M333.85,221.93a14.58,14.58,0,0,0-14.56,14.56v19.31a14.58,14.58,0,0,0,14.56,14.56h19.31a14.58,14.58,0,0,0,14.56-14.56V236.49a14.58,14.58,0,0,0-14.56-14.56H333.85Zm0,33.88,0-19.28,19.28,0,0,19.28Z"/><path class="cls-2" d="M429.69,221.93H410.38a14.58,14.58,0,0,0-14.56,14.56v19.31a14.58,14.58,0,0,0,14.56,14.56h19.31a14.58,14.58,0,0,0,14.57-14.56V236.49a14.58,14.58,0,0,0-14.57-14.56Zm-19.28,33.88,0-19.28,19.28,0,0,19.28Z"/><path class="cls-2" d="M118.88,240.52a7.3,7.3,0,1,0,0,14.59h38.32a7.3,7.3,0,1,0,0-14.59Z"/><path class="cls-2" d="M122.89,169.3a26.76,26.76,0,0,0,10.59,4.47v.84a7.3,7.3,0,0,0,14.59,0V173a22.21,22.21,0,0,0,14.26-17c1.67-9.91-3.7-18.87-13.36-22.28-4.76-1.68-10-3.7-12.83-5.91a2.94,2.94,0,0,1-.34-2.44,4.28,4.28,0,0,1,2.74-3.38,8.89,8.89,0,0,1,8.2,1.22l2.73,1.3s6.88,3.09,9.26-3.23c1.91-5.05-2.22-8.91-2.22-8.91a21.54,21.54,0,0,0-8.44-4.5V107a7.3,7.3,0,0,0-14.59,0v1.18a18.76,18.76,0,0,0-12,14.36c-1.23,6.54.94,12.91,5.68,16.63,4.48,3.51,10.8,6,17,8.19,3.79,1.34,4.17,4.06,3.83,6.1a7.27,7.27,0,0,1-7.22,6.13c-5,0-6.18-.15-9.85-2.55a7.3,7.3,0,1,0-8,12.21Z"/></svg>