<svg id="Ñëîé_1" data-name="Ñëîé 1" xmlns="http://www.w3.org/2000/svg" viewBox="0 0 500 500"><defs><style>.cls-1{fill:#00b17c;}.cls-2{opacity:0.1;}.cls-3{fill:#fff;}</style></defs><title>Advantages 5</title><path class="cls-1" d="M492.46,250C492.46,64,431.63,7.54,250,7.54S7.54,64,7.54,250,68.37,492.46,250,492.46,492.46,436,492.46,250Z"/><path class="cls-2" d="M193.94,111.94l-65.22,17.94,54.71,62.49-11.31,6.85-26,24.8,19.61,18-21.23-.13-14.79,19,82.71,93H146.09l22.54,28.25-40.16,6.66,80.88,102.55q19.23,1.1,40.64,1.09C431.63,492.46,492.46,436,492.46,250c0-3.91,0-7.74-.09-11.53L370,109Z"/><path class="cls-3" d="M281.41,231.82a460.7,460.7,0,0,0-28.57-42.37c-1-1.39-2-2.64-2.83-3.74a474.76,474.76,0,0,0-31.42,46.11,118.44,118.44,0,0,0-14.73,33.52,27.45,27.45,0,0,0-.61,5.44,46.76,46.76,0,0,0,93.52,0c0-5.72-2.67-17.11-15.34-38.93ZM250,307.15a5.2,5.2,0,1,1,0-10.39,26,26,0,0,0,26-26s-.39-7.6-12.53-28.5a5.2,5.2,0,1,1,9-5.2c12.94,22.22,13.94,31.41,13.94,33.69A36.41,36.41,0,0,1,250,307.15Z"/><path class="cls-3" d="M359.1,364.3H140.9a15.59,15.59,0,0,0,0,31.17H359.1a15.59,15.59,0,1,0,0-31.17Z"/><path class="cls-3" d="M140.9,135.7H359.1a15.59,15.59,0,1,0,0-31.17H140.9a15.59,15.59,0,0,0,0,31.17Z"/><path class="cls-3" d="M293.22,308.06c-.64.74-1.29,1.46-2,2.17s-1.12,1.16-1.71,1.72-1.43,1.33-2.17,2-1.22,1-1.85,1.56-1.56,1.19-2.36,1.76-1.3.94-2,1.38l-2.54,1.56c-.69.41-1.38.82-2.08,1.19-.89.47-1.81.89-2.73,1.31-.72.33-1.43.68-2.16,1-1,.4-1.95.73-2.94,1.08-.73.26-1.45.52-2.2.76-1,.32-2.12.57-3.19.83-.72.17-1.42.38-2.14.52-1.21.24-2.44.4-3.67.56-.62.08-1.23.21-1.85.27-1.87.18-3.76.28-5.68.28s-3.81-.1-5.68-.28c-.63-.06-1.24-.19-1.86-.27-1.23-.16-2.46-.32-3.67-.56-.73-.14-1.43-.35-2.15-.52-1.07-.26-2.15-.52-3.19-.83-.75-.22-1.47-.52-2.2-.76-1-.34-2-.67-2.94-1.08-.73-.3-1.44-.64-2.16-1-.92-.42-1.83-.84-2.73-1.31-.71-.37-1.4-.78-2.08-1.19-.86-.52-1.71-1-2.54-1.56-.67-.44-1.32-.91-2-1.38s-1.59-1.15-2.36-1.76-1.24-1-1.85-1.56-1.47-1.29-2.17-2-1.15-1.13-1.71-1.72-1.33-1.42-2-2.17-1.05-1.23-1.56-1.86-1.19-1.56-1.76-2.35-.93-1.31-1.37-2-1-1.67-1.56-2.53c-.4-.7-.8-1.39-1.18-2.11-.47-.88-.89-1.79-1.3-2.71-.34-.73-.67-1.44-1-2.19-.38-1-.72-1.92-1-2.89-.26-.75-.52-1.48-.77-2.24-.3-1-.55-2.08-.8-3.12-.18-.75-.38-1.49-.52-2.25-.22-1.11-.36-2.23-.52-3.37-.1-.72-.23-1.43-.3-2.16,0-.11,0-.22,0-.34h-47v77.95H353.91V276h-47a3.09,3.09,0,0,1,0,.34c-.07.73-.2,1.44-.3,2.16-.15,1.13-.3,2.26-.52,3.37-.15.76-.35,1.5-.52,2.25-.25,1-.49,2.08-.8,3.12-.23.76-.52,1.5-.76,2.25-.33,1-.67,1.94-1,2.89-.31.74-.64,1.46-1,2.19-.42.92-.84,1.82-1.3,2.71-.38.72-.78,1.41-1.18,2.11-.52.86-1,1.7-1.56,2.53s-.91,1.34-1.37,2-1.15,1.56-1.76,2.35Q294,307.15,293.22,308.06Z"/><path class="cls-3" d="M140.9,265.59h52.36c0-.3.15-.65.21-1q.38-2.22,1-4.64c.14-.52.27-1,.42-1.59.61-2.08,1.32-4.26,2.2-6.57.1-.25.22-.52.33-.78.81-2.08,1.77-4.29,2.81-6.57q.49-1.07,1-2.16,1.56-3.29,3.44-6.83c.2-.37.34-.7.55-1.08H140.9a15.59,15.59,0,0,0,0,31.17Z"/><path class="cls-3" d="M359.1,234.41H294.76c.19.34.31.64.52,1,1.27,2.4,2.43,4.72,3.5,7,.34.71.67,1.42,1,2.11,1,2.29,2,4.5,2.83,6.6l.32.77c.88,2.31,1.6,4.48,2.2,6.57.16.52.28,1,.42,1.56.43,1.62.76,3.17,1,4.68.05.3.16.65.21,1H359.1a15.59,15.59,0,1,0,0-31.17Z"/><path class="cls-3" d="M353.91,146.09H146.09V224h65c.25-.43.52-.84.77-1.27l1.33-2.21,1.62-2.6,1.34-2.12c.56-.88,1.12-1.76,1.68-2.63l1.31-2c.57-.87,1.13-1.72,1.7-2.57q.65-1,1.31-2l1.67-2.47,1.3-1.9,1.65-2.39,1.25-1.78c.52-.77,1.07-1.51,1.59-2.25l1.23-1.74,1.47-2,1.21-1.67,1.33-1.82,1.18-1.6,1.18-1.56,1.12-1.51.93-1.23,1.17-1.56.65-.85,1.11-1.46.56-.72.92-1.18.25-.33c1.13-1.44,1.85-2.35,2-2.53a5.37,5.37,0,0,1,8.1,0c.15.18.88,1.09,2,2.53l.25.33.86,1.11.62.8,1.2,1.56.52.7,1.28,1.69.81,1.08c.4.52.81,1.08,1.22,1.64l1.09,1.45,1.28,1.74,1.22,1.67,1.36,1.87,1.3,1.81,1.4,2,1.41,2c.47.67,1,1.36,1.43,2.08s1,1.39,1.46,2.1l1.48,2.17,1.49,2.19,1.52,2.29,1.45,2.2q.78,1.2,1.56,2.42l1.42,2.22,1.56,2.51,1.35,2.19c.52.88,1,1.75,1.6,2.64l.64,1h65.08Z"/></svg>