<svg id="katman_1" data-name="katman 1" xmlns="http://www.w3.org/2000/svg" viewBox="0 0 32 35"><defs><style>.cls-1{fill:#7cc144;}.cls-2{fill:#20713d;stroke:#20713d;stroke-miterlimit:10;stroke-width:0.25px;}</style></defs><title>personal</title><circle class="cls-1" cx="15.06" cy="23.33" r="7.17"/><path class="cls-2" d="M25.67,26.81a.44.44,0,0,0-.44.44v4.13a.24.24,0,0,1-.24.24H22.63V23a.44.44,0,1,0-.88,0v8.65H17l1.38-1.52a.79.79,0,0,0,.19-.63h0L17.24,21.7l.35-.53a1,1,0,0,0,.63.27.77.77,0,0,0,.69-.43h0l1.39-2.78,3.16,1.22a3,3,0,0,1,1.77,2.77v3a.44.44,0,1,0,.88,0v-3a3.92,3.92,0,0,0-2.32-3.58h0l-5.25-2V15.37a4.12,4.12,0,0,0,1.56-2.71,1.9,1.9,0,0,0,1.12-.46,1.87,1.87,0,0,0,.19-2.63V7.95a5.45,5.45,0,1,0-10.89,0V9.62a1.76,1.76,0,0,0-.45,1.18,1.86,1.86,0,0,0,.65,1.41,1.9,1.9,0,0,0,1.12.46,4.07,4.07,0,0,0,1.65,2.77V16.6l-5.25,2h0a3.92,3.92,0,0,0-2.32,3.58v9.15A1.12,1.12,0,0,0,7,32.5H11.2a.44.44,0,1,0,0-.88h-.95V23a.44.44,0,1,0-.88,0v8.65H7a.24.24,0,0,1-.24-.24V22.22a3,3,0,0,1,1.77-2.77l3.15-1.22L13.08,21a.77.77,0,0,0,.69.43,1,1,0,0,0,.63-.27l.35.53-1.31,7.76h0a.79.79,0,0,0,.19.63L15,31.62H13.25a.44.44,0,0,0,0,.88H25a1.12,1.12,0,0,0,1.12-1.12V27.25A.44.44,0,0,0,25.67,26.81Zm-6.19-8.89L18.19,20.5l-1.55-1.1,1.6-2Zm-2.6,2.74-.34.5h-1.1l-.34-.5L16,20Zm-2.54-3.91v-.82a4.46,4.46,0,0,0,1.66.32,4.13,4.13,0,0,0,1.64-.34v.85l-1.65,2Zm6.63-6a1,1,0,0,1-.34.75,1,1,0,0,1-.51.23v-2A1,1,0,0,1,21,10.79Zm-9.19,1a1,1,0,0,1-.85-1,1,1,0,0,1,.85-1Zm0-2.83a2.17,2.17,0,0,0-.42.09V7.95a4.57,4.57,0,1,1,9.13,0V9a2,2,0,0,0-.4-.08c0-.42,0-.34-1.38-1.83a.78.78,0,0,0-1-.12,8.47,8.47,0,0,1-5.12,1.38A.78.78,0,0,0,11.81,8.94Zm.86,3.18V9.23a9.39,9.39,0,0,0,5.49-1.48c.64.68,1,1,1.09,1.18v3.19a3.29,3.29,0,0,1-6.58,0Zm1.15,8.38-1.29-2.59,1.25-.48,1.6,2Zm.5,9L15.59,22h.82l1.27,7.52L16,31.41Z"/></svg>