<svg id="Ñëîé_1" data-name="Ñëîé 1" xmlns="http://www.w3.org/2000/svg" viewBox="0 0 500 500"><defs><style>.cls-1{fill:#00b17c;}.cls-2{opacity:0.1;}.cls-3{fill:#fff;}</style></defs><title>person</title><path class="cls-1" d="M496.38,250C496.38,61,434.57,3.62,250,3.62S3.62,61,3.62,250,65.43,496.38,250,496.38,496.38,439,496.38,250Z"/><path class="cls-2" d="M490.49,336.76,308.83,140.55c-89.35,21,58.48,47.1-23.16,47.1-40.32,0-68,21.85-98.88,55L307.14,361c-5.68,21.75-26.66-32.08-92.43-32.08-40.32,0-68,21.85-98.88,55L227,496c7.45.22,15.1.33,23,.33C402.59,496.38,471.27,457.15,490.49,336.76Z"/><path class="cls-3" d="M250,272.63a79.22,79.22,0,1,0-79.22-79.22A79.31,79.31,0,0,0,250,272.63ZM306.59,284H193.41a79.31,79.31,0,0,0-79.22,79.22v17a5.66,5.66,0,0,0,5.66,5.66h260.3a5.66,5.66,0,0,0,5.66-5.66v-17A79.31,79.31,0,0,0,306.59,284Z"/></svg>