<svg id="katman_1" data-name="katman 1" xmlns="http://www.w3.org/2000/svg" viewBox="0 0 615.1 693.95"><defs><style>.cls-1{fill:#7cc144;}.cls-2{fill:#22723f;}.cls-3{fill:#fff;}</style></defs><title>credit card</title><circle class="cls-1" cx="175" cy="380.16" r="135"/><path class="cls-2" d="M33.42,167.21,482.49,65.36l-6.22-27.45a14.59,14.59,0,0,0-17.35-11L38.05,121.71a14.55,14.55,0,0,0-11,17.35c2.14,9.33,4.22,18.81,6.36,28.14ZM29.69,96.82,455.87.92A37.81,37.81,0,0,1,501,29.48l44.66,197.4H519l-20.26-89.4L49.67,239.32,77.46,361.91,80,372.76a8.12,8.12,0,0,0,9.75,6.15l3.32-.76v26.14l-.48.14A31.55,31.55,0,0,1,55,380.72L1,142A37.72,37.72,0,0,1,29.69,96.83h0ZM140.31,234a37.86,37.86,0,0,0-37.75,37.82V517.41a37.8,37.8,0,0,0,37.75,37.75h437a37.9,37.9,0,0,0,37.82-37.75V271.82A37.92,37.92,0,0,0,577.28,234h-437ZM568.09,343.93v-50a5.75,5.75,0,0,0-5.81-5.81H450.48a5.84,5.84,0,0,0-5.81,5.81v50a5.84,5.84,0,0,0,5.81,5.81h111.8a5.84,5.84,0,0,0,5.81-5.81ZM485.67,495.49a5.86,5.86,0,0,1-5.88-5.81V478.07a5.86,5.86,0,0,1,5.88-5.81h76.54a5.84,5.84,0,0,1,5.81,5.81v11.62a5.84,5.84,0,0,1-5.81,5.81H485.67Zm-106.82,0a5.84,5.84,0,0,1-5.81-5.81V478.13a5.8,5.8,0,0,1,5.81-5.81h76.61a5.84,5.84,0,0,1,5.81,5.81v11.55a5.84,5.84,0,0,1-5.81,5.81Zm-106.76,0a5.84,5.84,0,0,1-5.81-5.81V478.13a5.8,5.8,0,0,1,5.81-5.81H348.7a5.84,5.84,0,0,1,5.81,5.81v11.55a5.84,5.84,0,0,1-5.81,5.81Zm-106.75,0a5.84,5.84,0,0,1-5.81-5.81V478.13a5.8,5.8,0,0,1,5.81-5.81h76.61a5.84,5.84,0,0,1,5.81,5.81v11.55a5.84,5.84,0,0,1-5.81,5.81Z"/><rect class="cls-3" x="420" y="273" width="149" height="51" rx="12" ry="12"/></svg>