<svg id="Layer_5" data-name="Layer 5" xmlns="http://www.w3.org/2000/svg" viewBox="0 0 512 512"><defs><style>.cls-1{fill:#00b17c;}.cls-2{fill:#064a5f;}</style></defs><title>Pay havale</title><path class="cls-1" d="M256,208a80,80,0,1,1,80-80A80.11,80.11,0,0,1,256,208Z"/><path class="cls-2" d="M264,104a8,8,0,0,1,8,8h16a24.07,24.07,0,0,0-24-24V72H248V88H224v24a24.07,24.07,0,0,0,24,24h16a8,8,0,0,1,8,8v8H248a8,8,0,0,1-8-8H224a24.07,24.07,0,0,0,24,24v16h16V168h24V144a24.07,24.07,0,0,0-24-24H248a8,8,0,0,1-8-8v-8Z"/><path class="cls-2" d="M264,296a8,8,0,0,1,8,8h16a24.07,24.07,0,0,0-24-24V264H248v16H224v24a24.07,24.07,0,0,0,24,24h16a8,8,0,0,1,8,8v8H248a8,8,0,0,1-8-8H224a24.07,24.07,0,0,0,24,24v16h16V360h24V336a24.07,24.07,0,0,0-24-24H248a8,8,0,0,1-8-8v-8Z"/><path class="cls-2" d="M504,248V8H8V248H192V392H141.8l94.9,103.5a26.16,26.16,0,0,0,38.6,0L370.2,392H320V248ZM24,232V24H488V232H320V216H472V40H40V216H192v16ZM456,87.2A40.29,40.29,0,0,1,424.8,56H456ZM424.8,200A40.16,40.16,0,0,1,456,168.8V200ZM56,168.8A40.16,40.16,0,0,1,87.2,200H56ZM87.2,56A40.29,40.29,0,0,1,56,87.2V56ZM333.8,408l-70.3,76.7a10.5,10.5,0,0,1-15,0L178.2,408H208V191.8a83.61,83.61,0,0,1-16-16V200H103.4A56.11,56.11,0,0,0,56,152.6V103.3a56.11,56.11,0,0,0,47.4-47.4H408.7a56.11,56.11,0,0,0,47.4,47.4v49.3A56.11,56.11,0,0,0,408.7,200H320V175.8a78.27,78.27,0,0,1-16,16V408Z"/><path class="cls-1" d="M104,368V264H56V368H32l48,64,48-64Z"/><path class="cls-1" d="M456,368V264H408V368H384l48,64,48-64Z"/></svg>