<svg id="Ñëîé_1" data-name="Ñëîé 1" xmlns="http://www.w3.org/2000/svg" viewBox="0 0 500 500"><defs><style>.cls-1,.cls-2{fill:#fff;}.cls-1{opacity:0.6;}.cls-3{opacity:0.1;}</style></defs><title>Phone</title><path class="cls-1" d="M492.91,250C492.91,63.66,432,7.09,250,7.09S7.09,63.66,7.09,250,68,492.91,250,492.91,492.91,436.34,492.91,250Z"/><path class="cls-2" d="M390.7,312.52,349.58,271.4c-6.33-6.33-14.23-11.07-25.3,0a83.62,83.62,0,0,1-9,7.88L383,347.08l7.67-7.67c7.12-7.12,6.33-20.56,0-26.89Z"/><path class="cls-2" d="M236.36,263.64c-23.54-23.54-30.1-44.12-24.22-62.65l-71.62-71.62L121,148.85c-21.35,21.35-25.83,62.21,7.38,95.42l63.66,63.66,63.66,63.65c33.21,33.21,74.07,28.73,95.42,7.38l19.48-19.48L299,287.87c-18.53,5.88-39.12-.69-62.65-24.22Z"/><path class="cls-2" d="M228.6,175.72c11.07-11.07,6.33-19,0-25.3L187.48,109.3c-6.33-6.33-19.77-7.12-26.89,0L152.92,117l67.79,67.79a83.61,83.61,0,0,1,7.88-9Z"/><path class="cls-3" d="M390.71,312.53c6.32,6.33,7.11,19.76,0,26.88L383,347.08l-67.79-67.79a83.62,83.62,0,0,0,9-7.88c11.06-11.06,19-6.33,25.29,0l-121-121c6.33,6.33,11.07,14.23,0,25.3a83.61,83.61,0,0,0-7.88,9L152.92,117l-12.4,12.4L212.13,201c-5.88,18.53.69,39.12,24.22,62.65s44.13,30.1,62.65,24.22l71.62,71.62L351.15,379c-21.35,21.35-62.21,25.83-95.42-7.38L365.18,481c52.87-14,86.77-41.4,106.26-87.77l-80.74-80.74Z"/></svg>