<svg id="Capa_1" data-name="Capa 1" xmlns="http://www.w3.org/2000/svg" viewBox="0 0 512 512"><defs><style>.cls-1{fill:#00703d;opacity:0.8;isolation:isolate;}.cls-2{fill:#fff;}</style></defs><title>phone</title><circle class="cls-1" cx="195.2" cy="316.8" r="145.2"/><g id="Page-1"><g id="_012---Landline-Phone" data-name="012---Landline-Phone"><circle id="Oval" class="cls-2" cx="255.99" cy="359.72" r="8.65"/><path id="Shape" class="cls-2" d="M256,281.9a77.82,77.82,0,1,0,77.82,77.82A77.82,77.82,0,0,0,256,281.9Zm0,103.75a25.94,25.94,0,1,1,25.94-25.94A25.94,25.94,0,0,1,256,385.66Z"/><path id="Shape-2" data-name="Shape" class="cls-2" d="M391.09,298l-19.89-4.58a25.83,25.83,0,0,1-20.1-25.28V229.5a8.65,8.65,0,0,0-3.6-7,152.38,152.38,0,0,0-91.51-27,152.43,152.43,0,0,0-91.52,27,8.65,8.65,0,0,0-3.59,7v38.65a25.83,25.83,0,0,1-20.1,25.28L120.9,298,32.54,437.91a8.76,8.76,0,0,0-1.35,4.63v55.51a8.65,8.65,0,0,0,8.65,8.65H472.15a8.65,8.65,0,0,0,8.65-8.65V442.55a8.84,8.84,0,0,0-1.37-4.67ZM256,454.83a95.11,95.11,0,1,1,95.11-95.11A95.11,95.11,0,0,1,256,454.83Z"/><path id="Shape-3" data-name="Shape" class="cls-2" d="M494.91,203.22c-29-23.16-110.41-77-238.92-77s-209.89,53.79-238.92,77a8.58,8.58,0,0,0-2.72,9.42L43,290a8.65,8.65,0,0,0,10.24,6l83.68-19.32a8.65,8.65,0,0,0,6.7-8.46V229.5a26.15,26.15,0,0,1,10.61-20.93A169.7,169.7,0,0,1,256,178.15a169.72,169.72,0,0,1,101.78,30.41,26.15,26.15,0,0,1,10.62,20.94v38.65a8.65,8.65,0,0,0,6.7,8.42l83.68,19.32a8.65,8.65,0,0,0,10.14-5.7l28.81-77.82a8.49,8.49,0,0,0-2.81-9.15Z"/><path id="Shape-4" data-name="Shape" class="cls-2" d="M323.24,93.61a8.65,8.65,0,0,1-6.11-2.53,86.56,86.56,0,0,0-122.27,0,8.65,8.65,0,0,1-12.23-12.23,103.87,103.87,0,0,1,146.73,0,8.65,8.65,0,0,1-6.11,14.76Z"/><path id="Shape-5" data-name="Shape" class="cls-2" d="M359.93,65.57A8.65,8.65,0,0,1,353.82,63a138.51,138.51,0,0,0-195.65,0,8.65,8.65,0,0,1-12.23-12.23,155.81,155.81,0,0,1,220.1,0,8.65,8.65,0,0,1-6.11,14.76Z"/></g></g></svg>