<svg id="katman_1" data-name="katman 1" xmlns="http://www.w3.org/2000/svg" viewBox="0 0 500 625"><defs><style>.cls-1{fill:#7cc144;}.cls-2{fill:#22723f;}</style></defs><title>qr</title><circle class="cls-1" cx="193.74" cy="306.16" r="112.84"/><path class="cls-2" d="M444,273.9H394.8v-50a5,5,0,0,0-5-5H334.6a5,5,0,0,0-5,5v50H283.1v-50a5,5,0,0,0-5-5H222.9a5,5,0,0,0-5,5v55.2a5,5,0,0,0,5,5H273v50a5,5,0,0,0,5,5h50.3v43.7H220a5,5,0,0,0-5,5V443a5,5,0,0,0,5,5H333.1a5,5,0,0,0,5-5V393.6h44.6V443a5,5,0,0,0,5,5h55.2a5,5,0,0,0,5-5V387.8a5,5,0,0,0-5-5H393.5V339.1H444a5,5,0,0,0,5-5V278.9A5.08,5.08,0,0,0,444,273.9Z"/><path class="cls-2" d="M168.4,284.1a5,5,0,0,0,5-5V223.9a5,5,0,0,0-5-5H113.2a5,5,0,0,0-5,5v55.2a5,5,0,0,0,5,5Z"/><path class="cls-2" d="M222.9,175.3h55.2a5,5,0,0,0,5-5V115.1a5,5,0,0,0-5-5H222.9a5,5,0,0,0-5,5v55.2A5,5,0,0,0,222.9,175.3Z"/><path class="cls-2" d="M170.8,40.9H55.9a15,15,0,0,0-15,15V170.7a15,15,0,0,0,15,15H170.7a15,15,0,0,0,15-15V55.9A14.89,14.89,0,0,0,170.8,40.9Zm-15,114.9H70.9V70.9h84.8v84.9Z"/><path class="cls-2" d="M170.8,314.2H55.9a15,15,0,0,0-15,15V444a15,15,0,0,0,15,15H170.7a15,15,0,0,0,15-15V329.2A14.83,14.83,0,0,0,170.8,314.2Zm-15,114.9H70.9V344.3h84.8v84.8Z"/><path class="cls-2" d="M444.1,40.9H329.2a15,15,0,0,0-15,15V170.7a15,15,0,0,0,15,15H444a15,15,0,0,0,15-15V55.9A15,15,0,0,0,444.1,40.9Zm-15,114.9H344.3V70.9h84.8v84.9Z"/><rect class="cls-2" x="95.6" y="95.6" width="35.5" height="35.5"/><rect class="cls-2" x="370.7" y="95.6" width="35.5" height="35.5"/><rect class="cls-2" x="95.6" y="368" width="35.5" height="35.5"/></svg>