<svg id="Capa_1" data-name="Capa 1" xmlns="http://www.w3.org/2000/svg" viewBox="0 0 477.9 477.9"><defs><style>.cls-1{fill:#fff;}</style></defs><title>footer lock</title><path class="cls-1" d="M409.6,170.7H392.5V153.6a153.6,153.6,0,0,0-307.2,0v17.1h-17a17.09,17.09,0,0,0-17.1,17.1V460.9A17.09,17.09,0,0,0,68.3,478H409.6a17.09,17.09,0,0,0,17.1-17.1V187.7A17.07,17.07,0,0,0,409.6,170.7ZM287.2,324.1A51.31,51.31,0,0,1,256,355.3v37.3a17.1,17.1,0,0,1-34.2,0V355.3a51.17,51.17,0,1,1,65.4-31.2Zm71.2-153.4H119.5V153.6a119.5,119.5,0,0,1,239,0v17.1Z"/></svg>