<svg id="katman_1" data-name="katman 1" xmlns="http://www.w3.org/2000/svg" viewBox="0 0 52 69"><defs><style>.cls-1{fill:#fff;}.cls-2{fill:#3db2a3;}.cls-3{fill:#c1e5df;}.cls-4{fill:#e3e7f2;}.cls-5{fill:#e8edfc;}</style></defs><title>sifre</title><path class="cls-1" d="M23,7.2A31,31,0,0,0,11,9.6l-.7.4L9.4,8.2l.9-.4A32.78,32.78,0,0,1,23,5.2Z"/><path class="cls-2" d="M16.5,22.3a1,1,0,0,0-.6.8,1.09,1.09,0,0,0,.4.9,1.18,1.18,0,0,0,1,.1,15.08,15.08,0,0,1,4.6-1.3,1,1,0,1,0-.3-1.9A18.43,18.43,0,0,0,16.5,22.3Z"/><path class="cls-2" d="M9.7,55a.37.37,0,0,0,.3-.1.93.93,0,0,0,.6-1.2,10.59,10.59,0,0,1-.5-3.1V48.1a1,1,0,1,0-2,0v2.5a11.93,11.93,0,0,0,.6,3.7A1.09,1.09,0,0,0,9.7,55Z"/><path class="cls-2" d="M13,27.5a12.88,12.88,0,0,1,1.6-1.7,1.07,1.07,0,0,0,.1-1.4,1,1,0,0,0-1.4-.1,10.71,10.71,0,0,0-1.8,1.9A14.94,14.94,0,0,0,8.9,31a16.22,16.22,0,0,0-.8,4.9v8.2a1,1,0,0,0,2,0V36a12.91,12.91,0,0,1,.7-4.3A14.09,14.09,0,0,1,13,27.5Z"/><path class="cls-2" d="M37.4,35.5h.1a1,1,0,0,0,.8-1.1c-1-7-6.1-12.5-12.5-13.5a1,1,0,0,0-.3,1.9c5.6.8,10,5.7,10.9,11.9A1.08,1.08,0,0,0,37.4,35.5Z"/><path class="cls-2" d="M30.6,35.8a7.37,7.37,0,0,0-7.3-7.1,6.15,6.15,0,0,0-1.3.1,7.85,7.85,0,0,0-4.4,2.5,7.14,7.14,0,0,0-1.7,4.2V47a11.34,11.34,0,0,0,4.2,8.9l.9.8c7,5.8,7,5.8,7.1,5.8A.93.93,0,0,0,29.2,61c-.2-.1-3.5-2.9-7-5.7l-.9-.8A9.75,9.75,0,0,1,17.8,47V35.7A6,6,0,0,1,19,32.6a5.88,5.88,0,0,1,3.2-1.9,2.77,2.77,0,0,1,.9-.1,5.4,5.4,0,0,1,5.4,5.2v5.1A11.94,11.94,0,0,0,30,46.7a1.06,1.06,0,0,0,1.8,0,.91.91,0,0,0,0-1,10.15,10.15,0,0,1-1.3-4.8V36C30.6,35.9,30.6,35.9,30.6,35.8Z"/><path class="cls-2" d="M24.1,54c1.9,1.5,3.6,2.9,4.8,3.9l.1.1,1,.8c.8.7.8.7,1,.7s.2.1.3.1a1,1,0,0,0,.9-.7,1,1,0,0,0-.4-1.1,7.36,7.36,0,0,1-.6-.5l-.9-.7-.1-.1c-1.2-1-2.9-2.4-4.9-4a9.7,9.7,0,0,1-3.5-7.4V36a1.52,1.52,0,0,1,1.4-1.5,1.16,1.16,0,0,1,1,.4,1.85,1.85,0,0,1,.5,1.2v6.8a11.81,11.81,0,0,0,4.2,8.9c.4.3.8.7,1.2,1a1.16,1.16,0,0,0,1,.2.87.87,0,0,0,.6-.8,1,1,0,0,0-.3-.9c-.4-.3-.7-.6-1.1-.9A9.54,9.54,0,0,1,26.8,43V36.3a3.47,3.47,0,0,0-1.1-2.6A3.39,3.39,0,0,0,20,36.2v9.1A10.42,10.42,0,0,0,24.1,54Z"/><path class="cls-2" d="M23,7.2a26.46,26.46,0,0,1,6.3.7.81.81,0,0,0,.9-.3,1.16,1.16,0,0,0,.2-1,1.21,1.21,0,0,0-.7-.7,30.78,30.78,0,0,0-6.8-.7c-1.3,0-2.7.1-4,.2a1,1,0,0,0-.7.4,1,1,0,0,0-.2.7,1,1,0,0,0,1.1.8C20.5,7.3,21.8,7.2,23,7.2Z"/><path class="cls-2" d="M14.8,8a1,1,0,0,0,1.3-.3l.1-.2V6.9a.92.92,0,0,0-.4-.6c-.1-.1-.2-.1-.4-.1a.88.88,0,0,0-1,.5c-.1.1-.1.2-.1.4v.4C14.5,7.7,14.6,7.9,14.8,8Z"/><path class="cls-2" d="M9.4,8.2a2.51,2.51,0,0,1-.7.4,1,1,0,0,0-.5,1.1,1.06,1.06,0,0,0,.9.8.6.6,0,0,0,.4-.1c.2-.1.5-.2.7-.3l.8-.4a3.55,3.55,0,0,0,.9-.4,1,1,0,0,0,.6-1.2,2.65,2.65,0,0,0-.5-.6,1.1,1.1,0,0,0-.8,0c-.3.1-.6.3-.9.4l-.9.3Z"/><path class="cls-2" d="M36.9,10.9a1.18,1.18,0,0,0,1,.1,1,1,0,0,0,.5-.8,1.05,1.05,0,0,0-.5-.9,31.13,31.13,0,0,0-4-2.2.92.92,0,0,0-1,.1,1.09,1.09,0,0,0-.4.9.87.87,0,0,0,.6.8C34.4,9.5,35.7,10.2,36.9,10.9Z"/><path class="cls-2" d="M3.8,17.5a1.16,1.16,0,0,0-.2,1,1.21,1.21,0,0,0,.7.7.81.81,0,0,0,.9-.3A24.35,24.35,0,0,1,23,11.2a23,23,0,0,1,6.4.9,1,1,0,0,0,.9-.2,1.4,1.4,0,0,0,.3-.9,1,1,0,0,0-.7-.7A26.66,26.66,0,0,0,23,9.4,25.25,25.25,0,0,0,3.8,17.5Z"/><path class="cls-2" d="M16.6,14.1a24.43,24.43,0,0,0-7.1,3.4,1,1,0,0,0-.4.9.84.84,0,0,0,.6.8,1.18,1.18,0,0,0,1-.1A22.86,22.86,0,0,1,17.2,16a1.21,1.21,0,0,0,.7-.7.81.81,0,0,0-.3-.9.81.81,0,0,0-1-.3Z"/><path class="cls-2" d="M2,30.1a.9.9,0,0,0,1.2-.6,19.94,19.94,0,0,1,4.6-7.8,1,1,0,0,0-1.4-1.4,23.41,23.41,0,0,0-5.1,8.6.62.62,0,0,0,.1.7C1.6,29.9,1.8,30.1,2,30.1Z"/><path class="cls-2" d="M45.2,34.5h.1a1.09,1.09,0,0,0,.9-1.1A22.88,22.88,0,0,0,23.3,13.1a22.6,22.6,0,0,0-2.6.1.87.87,0,0,0-.8.6,1.18,1.18,0,0,0,.1,1,1.09,1.09,0,0,0,.9.4,18.48,18.48,0,0,1,2.3-.1,20.86,20.86,0,0,1,21,18.6A1,1,0,0,0,45.2,34.5Z"/><path class="cls-2" d="M41.3,35.4h0a1.14,1.14,0,0,0,.8-.3,1,1,0,0,0,.2-.7,19.49,19.49,0,0,0-5-11.2,1,1,0,0,0-1.4,1.4,17,17,0,0,1,4.5,10A.88.88,0,0,0,41.3,35.4Z"/><path class="cls-2" d="M7.7,29a16.88,16.88,0,0,1,16-10,1.19,1.19,0,0,0,.9-.5.91.91,0,0,0,0-1,1,1,0,0,0-.8-.5A18.86,18.86,0,0,0,6,28.2a18.44,18.44,0,0,0-1.7,6.9v4.5a1,1,0,0,0,1,.9h0a1,1,0,0,0,.9-1V35.2A16.15,16.15,0,0,1,7.7,29Z"/><path class="cls-2" d="M27.8,19.5A16.43,16.43,0,0,1,33,21.9a1.18,1.18,0,0,0,1,.1c.3-.1.5-.5.6-.8a1.09,1.09,0,0,0-.4-.9,20.47,20.47,0,0,0-5.8-2.7l-.4-.1a1,1,0,0,0-1,.3,1.16,1.16,0,0,0-.2,1,1.21,1.21,0,0,0,.7.7Z"/><path class="cls-2" d="M34.5,39.1V36.3a11.22,11.22,0,0,0-20.9-6,11.05,11.05,0,0,0-1.5,4.3c0,.4-.1.9-.1,1.4V48.8a11.34,11.34,0,0,0,4.2,8.9l2.1,1.8c1.9,1.5,3.6,2.9,4.9,4a1.16,1.16,0,0,0,1,.2.87.87,0,0,0,.6-.8,1,1,0,0,0-.3-.9c-1.3-1.1-3-2.5-4.9-4l-2.1-1.8A9.75,9.75,0,0,1,14,48.7V36a8.54,8.54,0,0,1,1.3-4.7,9.4,9.4,0,0,1,9-4.5,9.51,9.51,0,0,1,8.3,9.5v2.9a6.6,6.6,0,0,0,.1,1.4,1,1,0,1,0,1.9-.3A4.87,4.87,0,0,1,34.5,39.1Z"/><path class="cls-2" d="M33.1,13.2a25.69,25.69,0,0,1,9.7,7.6,1.09,1.09,0,0,0,.9.4c.3,0,.6-.3.8-.6a1.18,1.18,0,0,0-.1-1A28.75,28.75,0,0,0,34,11.4h-.1c-.1,0-.2-.1-.3-.1h-.3a.87.87,0,0,0-.6.9.68.68,0,0,0,.4,1Z"/><path class="cls-3" d="M41.9,44.9a3.9,3.9,0,0,0-7.8,0H30.2a7.8,7.8,0,0,1,15.6,0Z"/><path class="cls-3" d="M28.2,44.9H47.7a2,2,0,0,1,2,2V60.6a2,2,0,0,1-2,2H28.2a2,2,0,0,1-2-2V46.9A2.15,2.15,0,0,1,28.2,44.9Z"/><path class="cls-4" d="M28.2,44.9H44.8a2,2,0,0,1,2,2V60.6a2,2,0,0,1-2,2H28.2a2,2,0,0,1-2-2V46.9A2.15,2.15,0,0,1,28.2,44.9Z"/><path class="cls-5" d="M40,58.6H36a1,1,0,0,1-.8-.5.75.75,0,0,1,0-.9l1.1-2a1.06,1.06,0,0,0-.2-1.2,3,3,0,0,1-.8-3.2A2.93,2.93,0,0,1,38,48.9a3.08,3.08,0,0,1,2.8,1.8,2.93,2.93,0,0,1-.7,3.2.83.83,0,0,0-.2,1.2l1.1,2a.75.75,0,0,1,0,.9A2.07,2.07,0,0,1,40,58.6Z"/><path class="cls-1" d="M29.2,60.5V46.9a2,2,0,0,1,2-2h2a7.92,7.92,0,0,1,6.3-7.7,8.12,8.12,0,0,0-6.4,1.6,7.79,7.79,0,0,0-2.8,6h-2a2,2,0,0,0-2,2V60.5a2,2,0,0,0,2,2h2.9A2,2,0,0,1,29.2,60.5Z"/><path class="cls-2" d="M47.7,43.9h-1a8.75,8.75,0,0,0-17.4,0h-1a2.9,2.9,0,0,0-2.9,2.9V60.5a2.9,2.9,0,0,0,2.9,2.9H47.8a2.9,2.9,0,0,0,2.9-2.9V46.8A2.93,2.93,0,0,0,47.7,43.9ZM38,38a6.88,6.88,0,0,1,6.8,5.9h-2a4.9,4.9,0,0,0-9.6,0h-2A6.88,6.88,0,0,1,38,38Zm2.7,5.9H35.2a2.88,2.88,0,0,1,2.7-2A2.91,2.91,0,0,1,40.7,43.9Zm8,16.6a1,1,0,0,1-1,1H28.2a1,1,0,0,1-1-1V46.8a1,1,0,0,1,1-1H47.7a1,1,0,0,1,1,1Z"/><path class="cls-2" d="M40.5,48.7a3.86,3.86,0,0,0-5.5.5,4,4,0,0,0,.3,5.5l-1.1,2a2,2,0,0,0,.1,2,1.7,1.7,0,0,0,1.6.9H40a1.7,1.7,0,0,0,1.6-.9,2,2,0,0,0,.1-2l-1-2a4.16,4.16,0,0,0,1.3-3,4.81,4.81,0,0,0-1.5-3Zm-1.6,6.9,1.1,2H36.1l1.1-2a2,2,0,0,0-.4-2.4,1.92,1.92,0,0,1-.6-2,2,2,0,0,1,1.5-1.4h.4a2,2,0,0,1,2,2,1.82,1.82,0,0,1-.6,1.4A1.71,1.71,0,0,0,38.9,55.6Z"/></svg>