<svg id="bold" xmlns="http://www.w3.org/2000/svg" viewBox="0 0 512 512"><defs><style>.cls-1{fill:#00b17c;}</style></defs><title>Mobile</title><path class="cls-1" d="M362.67,0H149.33a64.08,64.08,0,0,0-64,64V448a64.08,64.08,0,0,0,64,64H362.67a64.08,64.08,0,0,0,64-64V64A64.08,64.08,0,0,0,362.67,0ZM149.33,42.67H362.67A21.35,21.35,0,0,1,384,64V426.67H128V64A21.35,21.35,0,0,1,149.33,42.67Z"/><path class="cls-1" d="M165.33,320a16,16,0,0,1-10.41-28.16l74.67-64a16,16,0,0,1,19.29-1.17L270,240.73l60.07-60a16,16,0,0,1,22.63,22.63l-69.33,69.33a16,16,0,0,1-20.18,2l-21.91-14.61-65.45,56.11A16.24,16.24,0,0,1,165.33,320Z"/><path class="cls-1" d="M346.67,256a15.92,15.92,0,0,1-11.31-4.69L282,198a16,16,0,0,1,11.31-27.31h53.33a16,16,0,0,1,16,16V240a16,16,0,0,1-16,16Z"/></svg>