<svg id="Ñëîé_1" data-name="Ñëîé 1" xmlns="http://www.w3.org/2000/svg" viewBox="0 0 500 500"><defs><style>.cls-1{fill:#064a5f;}.cls-2{fill:#04303a;}.cls-3{fill:#fff;}</style></defs><title>TL account</title><path class="cls-1" d="M495.45,250C495.45,61.72,433.87,4.55,250,4.55S4.55,61.72,4.55,250,66.13,495.45,250,495.45,495.45,438.28,495.45,250Z"/><path class="cls-2" d="M146.11,385.16,268,495.25c151.76-3.36,213.88-51.18,225.43-191-39.79-44.64-86.84-98.05-86.84-98.05L364.32,250.1,217.7,102.91l-37.26,75.51s10,13.6,25.42,34l-3.42,7.29s-26.67,104-26.67,106c0,1.5,51.63,23.2,77.53,34-7.88.4-13.62.67-14.2.67C237.11,360.42,146.11,385.16,146.11,385.16ZM303.7,336.57q3.73,4.43,7.37,8.68l-6,11.83-28.48,1.47Z"/><path class="cls-3" d="M406.56,206.18q0,67.48-15.63,109.24t-50,61.72q-34.36,20-90.72,20-42.38,0-104.1-11.93V293l-51.84,9.46V258.85l51.84-9.46V225.93l-52.67,9.46V193l52.67-9.88V102.91H217.7v66.65l55.13-10.29v43.61l-55.13,9.87v23.86l55.13-9.87v43.61l-55.13,9.88v48.14a156.35,156.35,0,0,0,32.09,2.88q35,0,53.49-16t25.1-42.79Q335,245.68,335,206.18Z"/></svg>