<svg id="Capa_1" data-name="Capa 1" xmlns="http://www.w3.org/2000/svg" viewBox="0 0 512 512"><defs><style>.cls-1{fill:#7bc144;}.cls-1,.cls-2{isolation:isolate;}.cls-3{fill:#00703d;}.cls-4{fill:#fff;}</style></defs><title>try</title><circle class="cls-1" cx="256" cy="256" r="252.84"/><circle class="cls-1" cx="255.94" cy="256" r="185.71"/><g class="cls-2"><path class="cls-3" d="M256,2.67C116.31,2.67,2.67,116.31,2.67,256A253.92,253.92,0,0,0,59,415.25,10.13,10.13,0,1,0,74.72,402.5,233.59,233.59,0,0,1,22.93,256C22.93,127.49,127.49,22.93,256,22.93S489.07,127.49,489.07,256,384.51,489.07,256,489.07a233.59,233.59,0,0,1-146.5-51.79A10.13,10.13,0,0,0,96.76,453,253.92,253.92,0,0,0,256,509.33c139.69,0,253.33-113.64,253.33-253.33S395.69,2.67,256,2.67Z"/></g><g class="cls-2"><path class="cls-3" d="M398.9,137.27a10.13,10.13,0,1,0-15.58,13A165.71,165.71,0,0,1,421.51,256c0,91.26-74.25,165.51-165.51,165.51S90.49,347.26,90.49,256,164.74,90.49,256,90.49a164.93,164.93,0,0,1,89.11,26A10.13,10.13,0,0,0,356,99.44,185.17,185.17,0,0,0,256,70.22C153.56,70.22,70.22,153.56,70.22,256S153.56,441.78,256,441.78,441.78,358.44,441.78,256A186,186,0,0,0,398.9,137.27Z"/></g><path class="cls-4" d="M311.48,319q-25.9,23-75.73,23h-35.1V279.57l-25.78,13.75V275.15l25.78-13.5V244.71l-25.78,13.5V240.29l25.78-13.75V170.08h31.42v40L294.66,177v18.17L232.06,228V245l62.6-32.9V230l-62.6,33.14v52h10.56q31.17,0,47-15.71t15.83-44.68h31.67Q337.37,296,311.48,319Z"/></svg>