<svg id="katman_1" data-name="katman 1" xmlns="http://www.w3.org/2000/svg" viewBox="0 0 60 75"><defs><style>.cls-1{fill:#7ac144;}</style></defs><title>world</title><path class="cls-1" d="M29,25.36V10.54c-3.42.94-6.92,6.73-8.62,15.45A70.48,70.48,0,0,1,29,25.36"/><path class="cls-1" d="M19.35,52.45a4.67,4.67,0,1,0-4.84-4.67,4.76,4.76,0,0,0,4.84,4.67"/><path class="cls-1" d="M1.93,37.5c0,2.82,4.23,5.83,11.1,7.94a6.71,6.71,0,0,1,4.52-4c-.08-1.34-.14-2.67-.14-4a63.78,63.78,0,0,1,.66-9.25C8.18,30,1.93,33.92,1.93,37.5"/><path class="cls-1" d="M31,10.56V25.37q1.57,0,3.15.11a6.65,6.65,0,0,1,4.11-4.37c-2-5.91-4.63-9.78-7.26-10.56"/><path class="cls-1" d="M40.65,22.55a4.67,4.67,0,1,0,4.84,4.67,4.76,4.76,0,0,0-4.84-4.67"/><path class="cls-1" d="M40.13,20.71l.52,0a6.67,6.67,0,0,1,6.78,6.54c0,.17,0,.33,0,.5,3.35,1,9,3.18,11.44,6.5C57.28,21.38,46.7,11.17,33.39,9.67c3.45,2.34,5.68,7.81,6.74,11"/><path class="cls-1" d="M19.48,41.24a6.66,6.66,0,0,1,6.64,6.41q1.46.08,2.91.1V27.23a68.25,68.25,0,0,0-9,.69,62.21,62.21,0,0,0-.72,9.58c0,1.23,0,2.48.12,3.74"/><path class="cls-1" d="M29,64.44V49.63q-1.57,0-3.15-.11a6.65,6.65,0,0,1-4.11,4.37c2,5.91,4.63,9.78,7.26,10.56"/><path class="cls-1" d="M41.6,48.7c-1.46,8-4.45,14.18-8.11,16.62,13.22-1.54,23.73-11.68,25.33-24.45-2.53,3.54-8.93,6.42-17.22,7.83"/><path class="cls-1" d="M18.4,26.3c1.46-8,4.45-14.18,8.11-16.62C13.28,11.22,2.77,21.36,1.18,34.13c2.53-3.54,8.93-6.42,17.22-7.83"/><path class="cls-1" d="M19.87,54.29l-.52,0a6.67,6.67,0,0,1-6.78-6.54c0-.17,0-.33,0-.5-3.35-1-9-3.18-11.44-6.5C2.72,53.62,13.3,63.83,26.61,65.33c-3.45-2.34-5.68-7.81-6.74-11"/><path class="cls-1" d="M31,49.64V64.46c3.42-.94,6.92-6.73,8.62-15.45a70.48,70.48,0,0,1-8.62.63"/><path class="cls-1" d="M40.52,33.76a6.66,6.66,0,0,1-6.64-6.41q-1.46-.08-2.91-.1V47.77a68.25,68.25,0,0,0,9-.69,62.21,62.21,0,0,0,.72-9.58c0-1.23,0-2.48-.12-3.74"/><path class="cls-1" d="M58.07,37.5c0-2.82-4.23-5.83-11.1-7.94a6.71,6.71,0,0,1-4.52,4c.08,1.34.14,2.67.14,4a63.78,63.78,0,0,1-.66,9.25c9.9-1.8,16.15-5.68,16.15-9.25"/></svg>