<svg id="Ñëîé_1" data-name="Ñëîé 1" xmlns="http://www.w3.org/2000/svg" viewBox="0 0 500 500"><defs><style>.cls-1{fill:#00b17c;}.cls-2{opacity:0.1;}.cls-3{fill:#fff;}</style></defs><title>Profile </title><path class="cls-1" d="M495,250C495,62.06,433.53,5,250,5S5,62.06,5,250,66.47,495,250,495s245-57.06,245-245Z"/><path class="cls-2" d="M489.15,336.27,308.5,141.16c-88.85,20.91,58.16,46.84-23,46.84-40.1,0-67.62,21.72-98.33,54.72L306.82,360.37c-5.64,21.63-26.51-31.91-91.92-31.91-40.1,0-67.62,21.72-98.33,54.72L227.14,494.67c7.41.21,15,.33,22.86.33C401.74,495,470,456,489.15,336.27Z"/><path class="cls-3" d="M250,272.51a78.78,78.78,0,1,0-78.78-78.78A78.86,78.86,0,0,0,250,272.51Zm56.27,11.25H193.73A78.86,78.86,0,0,0,115,362.54v16.88a5.63,5.63,0,0,0,5.63,5.63H379.42a5.63,5.63,0,0,0,5.63-5.63V362.54A78.86,78.86,0,0,0,306.27,283.76Z"/></svg>