<svg id="Capa_1" data-name="Capa 1" xmlns="http://www.w3.org/2000/svg" viewBox="0 0 512 512"><defs><style>.cls-1{fill:#7bc144;}.cls-1,.cls-2{isolation:isolate;}.cls-3{fill:#00703d;}.cls-4{fill:#fff;}</style></defs><title>dollar</title><circle class="cls-1" cx="256" cy="256" r="252.84"/><circle class="cls-1" cx="255.94" cy="256" r="185.71"/><g class="cls-2"><path class="cls-3" d="M256,2.67C116.31,2.67,2.67,116.31,2.67,256A253.92,253.92,0,0,0,59,415.25,10.13,10.13,0,1,0,74.72,402.5,233.59,233.59,0,0,1,22.93,256C22.93,127.49,127.49,22.93,256,22.93S489.07,127.49,489.07,256,384.51,489.07,256,489.07a233.59,233.59,0,0,1-146.5-51.79A10.13,10.13,0,0,0,96.76,453,253.92,253.92,0,0,0,256,509.33c139.69,0,253.33-113.64,253.33-253.33S395.69,2.67,256,2.67Z"/></g><g class="cls-2"><path class="cls-3" d="M398.9,137.27a10.13,10.13,0,1,0-15.58,13A165.71,165.71,0,0,1,421.51,256c0,91.26-74.25,165.51-165.51,165.51S90.49,347.26,90.49,256,164.74,90.49,256,90.49a164.93,164.93,0,0,1,89.11,26A10.13,10.13,0,0,0,356,99.44,185.17,185.17,0,0,0,256,70.22C153.56,70.22,70.22,153.56,70.22,256S153.56,441.78,256,441.78,441.78,358.44,441.78,256A186,186,0,0,0,398.9,137.27Z"/></g><path class="cls-4" d="M310.21,327.33q-14.66,13.92-42.5,16.88v27.6H247.5V344.46A138.11,138.11,0,0,1,213,337.8q-16.26-5.42-25.87-13.8l11.09-24.89a81.62,81.62,0,0,0,22.18,12.44,98.54,98.54,0,0,0,27.1,6.28V268.57a181.09,181.09,0,0,1-29.2-9.24,50.55,50.55,0,0,1-19.59-14.78q-7.89-9.73-7.88-25.75a45.53,45.53,0,0,1,14.54-34q14.54-14,42.13-16.75V140.19h20.2v27.35a115.53,115.53,0,0,1,27,4.68,88.79,88.79,0,0,1,23,10.35l-10.1,24.89a102.57,102.57,0,0,0-39.92-13.31v49.77A189.86,189.86,0,0,1,297.15,253a50.61,50.61,0,0,1,19.71,14.66q8,9.74,8,25.75Q324.87,313.41,310.21,327.33Zm-81.19-97q6.4,4.93,18.48,8.38V194.89q-12.57,2-18.73,7.88a19.36,19.36,0,0,0-6.16,14.54A15.66,15.66,0,0,0,229,230.37Zm58,79.34a18.15,18.15,0,0,0,6.28-14,16,16,0,0,0-6.65-13.43q-6.65-5-19-8.5v43.61Q280.76,315.38,287,309.71Z"/></svg>