<svg id="Ñëîé_1" data-name="Ñëîé 1" xmlns="http://www.w3.org/2000/svg" viewBox="0 0 500 500"><defs><style>.cls-1,.cls-3{fill:#fff;}.cls-1{opacity:0.6;}.cls-2{opacity:0.1;}.cls-4{fill:none;stroke:#fff;stroke-miterlimit:10;stroke-width:35px;}.cls-5{fill:#4cc14c;}</style></defs><title>Whatsapp</title><path class="cls-1" d="M490.45,250C490.45,65.55,430.12,9.55,250,9.55S9.55,65.55,9.55,250,69.88,490.45,250,490.45s240.45-56,240.45-240.45Z"/><path class="cls-2" d="M489.23,292.18,331.91,129.3,152.54,346.18,103,399.08l121.63,91q12.27.41,25.36.41C415.58,490.45,479.92,443.11,489.23,292.18Z"/><rect class="cls-3" x="157.03" y="167.93" width="178.25" height="169.91"/><path class="cls-4" d="M250,121.76H250c-70.71,0-128.21,57.51-128.21,128.24a127.29,127.29,0,0,0,24.41,75.16l-16,47.64L179.49,357A127.13,127.13,0,0,0,250,378.24c70.71,0,128.21-57.53,128.21-128.24S320.74,121.76,250,121.76Z"/><path class="cls-5" d="M250,121.76H250c-70.71,0-128.21,57.51-128.21,128.24a127.29,127.29,0,0,0,24.41,75.16l-16,47.64L179.49,357A127.13,127.13,0,0,0,250,378.24c70.71,0,128.21-57.53,128.21-128.24S320.74,121.76,250,121.76Zm74.62,181.09c-3.09,8.74-15.37,16-25.17,18.1-6.7,1.43-15.45,2.56-44.92-9.65-37.69-15.61-62-53.91-63.85-56.39s-15.23-20.28-15.23-38.68,9.35-27.36,13.11-31.21c3.09-3.16,8.21-4.6,13.11-4.6,1.59,0,3,.08,4.3.14,3.77.16,5.66.38,8.14,6.33,3.09,7.45,10.63,25.86,11.53,27.75s1.83,4.46.54,6.94a22.16,22.16,0,0,1-4.15,5.88c-1.89,2.18-3.69,3.85-5.58,6.19-1.73,2-3.69,4.22-1.51,8s9.71,16,20.81,25.86A94.28,94.28,0,0,0,265.87,286c3.09,1.28,6.78,1,9-1.43,2.87-3.09,6.41-8.22,10-13.27,2.56-3.62,5.8-4.07,9.2-2.79s21.78,10.26,25.55,12.13,6.25,2.79,7.17,4.38S327.74,294.1,324.65,302.85Z"/></svg>